<?xml version="1.0" encoding="utf-8" standalone="no"?>
<!DOCTYPE svg PUBLIC "-//W3C//DTD SVG 1.1//EN"
  "http://www.w3.org/Graphics/SVG/1.1/DTD/svg11.dtd">
<!-- Created with matplotlib (http://matplotlib.org/) -->
<svg height="720pt" version="1.1" viewBox="0 0 360 720" width="360pt" xmlns="http://www.w3.org/2000/svg" xmlns:xlink="http://www.w3.org/1999/xlink">
 <defs>
  <style type="text/css">
*{stroke-linecap:butt;stroke-linejoin:round;}
  </style>
 </defs>
 <g id="figure_1">
  <g id="patch_1">
   <path d="M 0 720 
L 360 720 
L 360 0 
L 0 0 
z
" style="fill:#ffffff;"/>
  </g>
  <g id="axes_1">
   <g id="patch_2">
    <path d="M 45 338.4 
L 324 338.4 
L 324 86.4 
L 45 86.4 
z
" style="fill:#ffffff;"/>
   </g>
   <g id="matplotlib.axis_1">
    <g id="xtick_1">
     <g id="line2d_1">
      <defs>
       <path d="M 0 0 
L 0 3.5 
" id="mff5351a7e0" style="stroke:#000000;stroke-width:0.8;"/>
      </defs>
      <g>
       <use style="stroke:#000000;stroke-width:0.8;" x="45.720208" xlink:href="#mff5351a7e0" y="338.4"/>
      </g>
     </g>
     <g id="text_1">
      <!-- −0.15 -->
      <defs>
       <path d="M 10.59375 35.5 
L 73.1875 35.5 
L 73.1875 27.203125 
L 10.59375 27.203125 
z
" id="DejaVuSans-2212"/>
       <path d="M 31.78125 66.40625 
Q 24.171875 66.40625 20.328125 58.90625 
Q 16.5 51.421875 16.5 36.375 
Q 16.5 21.390625 20.328125 13.890625 
Q 24.171875 6.390625 31.78125 6.390625 
Q 39.453125 6.390625 43.28125 13.890625 
Q 47.125 21.390625 47.125 36.375 
Q 47.125 51.421875 43.28125 58.90625 
Q 39.453125 66.40625 31.78125 66.40625 
z
M 31.78125 74.21875 
Q 44.046875 74.21875 50.515625 64.515625 
Q 56.984375 54.828125 56.984375 36.375 
Q 56.984375 17.96875 50.515625 8.265625 
Q 44.046875 -1.421875 31.78125 -1.421875 
Q 19.53125 -1.421875 13.0625 8.265625 
Q 6.59375 17.96875 6.59375 36.375 
Q 6.59375 54.828125 13.0625 64.515625 
Q 19.53125 74.21875 31.78125 74.21875 
z
" id="DejaVuSans-30"/>
       <path d="M 10.6875 12.40625 
L 21 12.40625 
L 21 0 
L 10.6875 0 
z
" id="DejaVuSans-2e"/>
       <path d="M 12.40625 8.296875 
L 28.515625 8.296875 
L 28.515625 63.921875 
L 10.984375 60.40625 
L 10.984375 69.390625 
L 28.421875 72.90625 
L 38.28125 72.90625 
L 38.28125 8.296875 
L 54.390625 8.296875 
L 54.390625 0 
L 12.40625 0 
z
" id="DejaVuSans-31"/>
       <path d="M 10.796875 72.90625 
L 49.515625 72.90625 
L 49.515625 64.59375 
L 19.828125 64.59375 
L 19.828125 46.734375 
Q 21.96875 47.46875 24.109375 47.828125 
Q 26.265625 48.1875 28.421875 48.1875 
Q 40.625 48.1875 47.75 41.5 
Q 54.890625 34.8125 54.890625 23.390625 
Q 54.890625 11.625 47.5625 5.09375 
Q 40.234375 -1.421875 26.90625 -1.421875 
Q 22.3125 -1.421875 17.546875 -0.640625 
Q 12.796875 0.140625 7.71875 1.703125 
L 7.71875 11.625 
Q 12.109375 9.234375 16.796875 8.0625 
Q 21.484375 6.890625 26.703125 6.890625 
Q 35.15625 6.890625 40.078125 11.328125 
Q 45.015625 15.765625 45.015625 23.390625 
Q 45.015625 31 40.078125 35.4375 
Q 35.15625 39.890625 26.703125 39.890625 
Q 22.75 39.890625 18.8125 39.015625 
Q 14.890625 38.140625 10.796875 36.28125 
z
" id="DejaVuSans-35"/>
      </defs>
      <g transform="translate(30.397551 352.998437)scale(0.1 -0.1)">
       <use xlink:href="#DejaVuSans-2212"/>
       <use x="83.789062" xlink:href="#DejaVuSans-30"/>
       <use x="147.412109" xlink:href="#DejaVuSans-2e"/>
       <use x="179.199219" xlink:href="#DejaVuSans-31"/>
       <use x="242.822266" xlink:href="#DejaVuSans-35"/>
      </g>
     </g>
    </g>
    <g id="xtick_2">
     <g id="line2d_2">
      <g>
       <use style="stroke:#000000;stroke-width:0.8;" x="91.980138" xlink:href="#mff5351a7e0" y="338.4"/>
      </g>
     </g>
     <g id="text_2">
      <!-- −0.10 -->
      <g transform="translate(76.657482 352.998437)scale(0.1 -0.1)">
       <use xlink:href="#DejaVuSans-2212"/>
       <use x="83.789062" xlink:href="#DejaVuSans-30"/>
       <use x="147.412109" xlink:href="#DejaVuSans-2e"/>
       <use x="179.199219" xlink:href="#DejaVuSans-31"/>
       <use x="242.822266" xlink:href="#DejaVuSans-30"/>
      </g>
     </g>
    </g>
    <g id="xtick_3">
     <g id="line2d_3">
      <g>
       <use style="stroke:#000000;stroke-width:0.8;" x="138.240069" xlink:href="#mff5351a7e0" y="338.4"/>
      </g>
     </g>
     <g id="text_3">
      <!-- −0.05 -->
      <g transform="translate(122.917413 352.998437)scale(0.1 -0.1)">
       <use xlink:href="#DejaVuSans-2212"/>
       <use x="83.789062" xlink:href="#DejaVuSans-30"/>
       <use x="147.412109" xlink:href="#DejaVuSans-2e"/>
       <use x="179.199219" xlink:href="#DejaVuSans-30"/>
       <use x="242.822266" xlink:href="#DejaVuSans-35"/>
      </g>
     </g>
    </g>
    <g id="xtick_4">
     <g id="line2d_4">
      <g>
       <use style="stroke:#000000;stroke-width:0.8;" x="184.5" xlink:href="#mff5351a7e0" y="338.4"/>
      </g>
     </g>
     <g id="text_4">
      <!-- 0.00 -->
      <g transform="translate(173.367188 352.998437)scale(0.1 -0.1)">
       <use xlink:href="#DejaVuSans-30"/>
       <use x="63.623047" xlink:href="#DejaVuSans-2e"/>
       <use x="95.410156" xlink:href="#DejaVuSans-30"/>
       <use x="159.033203" xlink:href="#DejaVuSans-30"/>
      </g>
     </g>
    </g>
    <g id="xtick_5">
     <g id="line2d_5">
      <g>
       <use style="stroke:#000000;stroke-width:0.8;" x="230.759931" xlink:href="#mff5351a7e0" y="338.4"/>
      </g>
     </g>
     <g id="text_5">
      <!-- 0.05 -->
      <g transform="translate(219.627118 352.998437)scale(0.1 -0.1)">
       <use xlink:href="#DejaVuSans-30"/>
       <use x="63.623047" xlink:href="#DejaVuSans-2e"/>
       <use x="95.410156" xlink:href="#DejaVuSans-30"/>
       <use x="159.033203" xlink:href="#DejaVuSans-35"/>
      </g>
     </g>
    </g>
    <g id="xtick_6">
     <g id="line2d_6">
      <g>
       <use style="stroke:#000000;stroke-width:0.8;" x="277.019862" xlink:href="#mff5351a7e0" y="338.4"/>
      </g>
     </g>
     <g id="text_6">
      <!-- 0.10 -->
      <g transform="translate(265.887049 352.998437)scale(0.1 -0.1)">
       <use xlink:href="#DejaVuSans-30"/>
       <use x="63.623047" xlink:href="#DejaVuSans-2e"/>
       <use x="95.410156" xlink:href="#DejaVuSans-31"/>
       <use x="159.033203" xlink:href="#DejaVuSans-30"/>
      </g>
     </g>
    </g>
    <g id="xtick_7">
     <g id="line2d_7">
      <g>
       <use style="stroke:#000000;stroke-width:0.8;" x="323.279792" xlink:href="#mff5351a7e0" y="338.4"/>
      </g>
     </g>
     <g id="text_7">
      <!-- 0.15 -->
      <g transform="translate(312.14698 352.998437)scale(0.1 -0.1)">
       <use xlink:href="#DejaVuSans-30"/>
       <use x="63.623047" xlink:href="#DejaVuSans-2e"/>
       <use x="95.410156" xlink:href="#DejaVuSans-31"/>
       <use x="159.033203" xlink:href="#DejaVuSans-35"/>
      </g>
     </g>
    </g>
   </g>
   <g id="matplotlib.axis_2">
    <g id="ytick_1">
     <g id="line2d_8">
      <defs>
       <path d="M 0 0 
L -3.5 0 
" id="m1b8dfb92a0" style="stroke:#000000;stroke-width:0.8;"/>
      </defs>
      <g>
       <use style="stroke:#000000;stroke-width:0.8;" x="45" xlink:href="#m1b8dfb92a0" y="337.74949"/>
      </g>
     </g>
     <g id="text_8">
      <!-- −0.15 -->
      <g transform="translate(7.354687 341.548709)scale(0.1 -0.1)">
       <use xlink:href="#DejaVuSans-2212"/>
       <use x="83.789062" xlink:href="#DejaVuSans-30"/>
       <use x="147.412109" xlink:href="#DejaVuSans-2e"/>
       <use x="179.199219" xlink:href="#DejaVuSans-31"/>
       <use x="242.822266" xlink:href="#DejaVuSans-35"/>
      </g>
     </g>
    </g>
    <g id="ytick_2">
     <g id="line2d_9">
      <g>
       <use style="stroke:#000000;stroke-width:0.8;" x="45" xlink:href="#m1b8dfb92a0" y="295.966327"/>
      </g>
     </g>
     <g id="text_9">
      <!-- −0.10 -->
      <g transform="translate(7.354687 299.765545)scale(0.1 -0.1)">
       <use xlink:href="#DejaVuSans-2212"/>
       <use x="83.789062" xlink:href="#DejaVuSans-30"/>
       <use x="147.412109" xlink:href="#DejaVuSans-2e"/>
       <use x="179.199219" xlink:href="#DejaVuSans-31"/>
       <use x="242.822266" xlink:href="#DejaVuSans-30"/>
      </g>
     </g>
    </g>
    <g id="ytick_3">
     <g id="line2d_10">
      <g>
       <use style="stroke:#000000;stroke-width:0.8;" x="45" xlink:href="#m1b8dfb92a0" y="254.183163"/>
      </g>
     </g>
     <g id="text_10">
      <!-- −0.05 -->
      <g transform="translate(7.354687 257.982382)scale(0.1 -0.1)">
       <use xlink:href="#DejaVuSans-2212"/>
       <use x="83.789062" xlink:href="#DejaVuSans-30"/>
       <use x="147.412109" xlink:href="#DejaVuSans-2e"/>
       <use x="179.199219" xlink:href="#DejaVuSans-30"/>
       <use x="242.822266" xlink:href="#DejaVuSans-35"/>
      </g>
     </g>
    </g>
    <g id="ytick_4">
     <g id="line2d_11">
      <g>
       <use style="stroke:#000000;stroke-width:0.8;" x="45" xlink:href="#m1b8dfb92a0" y="212.4"/>
      </g>
     </g>
     <g id="text_11">
      <!-- 0.00 -->
      <g transform="translate(15.734375 216.199219)scale(0.1 -0.1)">
       <use xlink:href="#DejaVuSans-30"/>
       <use x="63.623047" xlink:href="#DejaVuSans-2e"/>
       <use x="95.410156" xlink:href="#DejaVuSans-30"/>
       <use x="159.033203" xlink:href="#DejaVuSans-30"/>
      </g>
     </g>
    </g>
    <g id="ytick_5">
     <g id="line2d_12">
      <g>
       <use style="stroke:#000000;stroke-width:0.8;" x="45" xlink:href="#m1b8dfb92a0" y="170.616837"/>
      </g>
     </g>
     <g id="text_12">
      <!-- 0.05 -->
      <g transform="translate(15.734375 174.416055)scale(0.1 -0.1)">
       <use xlink:href="#DejaVuSans-30"/>
       <use x="63.623047" xlink:href="#DejaVuSans-2e"/>
       <use x="95.410156" xlink:href="#DejaVuSans-30"/>
       <use x="159.033203" xlink:href="#DejaVuSans-35"/>
      </g>
     </g>
    </g>
    <g id="ytick_6">
     <g id="line2d_13">
      <g>
       <use style="stroke:#000000;stroke-width:0.8;" x="45" xlink:href="#m1b8dfb92a0" y="128.833673"/>
      </g>
     </g>
     <g id="text_13">
      <!-- 0.10 -->
      <g transform="translate(15.734375 132.632892)scale(0.1 -0.1)">
       <use xlink:href="#DejaVuSans-30"/>
       <use x="63.623047" xlink:href="#DejaVuSans-2e"/>
       <use x="95.410156" xlink:href="#DejaVuSans-31"/>
       <use x="159.033203" xlink:href="#DejaVuSans-30"/>
      </g>
     </g>
    </g>
    <g id="ytick_7">
     <g id="line2d_14">
      <g>
       <use style="stroke:#000000;stroke-width:0.8;" x="45" xlink:href="#m1b8dfb92a0" y="87.05051"/>
      </g>
     </g>
     <g id="text_14">
      <!-- 0.15 -->
      <g transform="translate(15.734375 90.849729)scale(0.1 -0.1)">
       <use xlink:href="#DejaVuSans-30"/>
       <use x="63.623047" xlink:href="#DejaVuSans-2e"/>
       <use x="95.410156" xlink:href="#DejaVuSans-31"/>
       <use x="159.033203" xlink:href="#DejaVuSans-35"/>
      </g>
     </g>
    </g>
   </g>
   <g id="line2d_15">
    <path clip-path="url(#p7f41e109ce)" d="M 184.5 212.4 
L 184.5 212.4 
L 184.5 212.4 
L 184.5 212.4 
L 184.5 212.4 
L 184.5 212.4 
L 184.5 212.4 
L 184.5 212.4 
L 184.5 212.4 
L 184.5 212.4 
L 184.5 212.4 
L 184.5 212.4 
L 184.5 212.4 
L 184.5 212.4 
L 184.5 212.4 
L 184.5 212.4 
L 184.5 212.4 
L 184.5 212.4 
L 184.5 212.4 
L 184.5 212.4 
L 184.5 212.4 
L 184.5 212.4 
L 184.5 212.4 
L 184.5 212.4 
L 184.5 212.4 
L 184.5 212.4 
L 184.5 212.4 
L 184.5 212.4 
L 184.5 212.4 
L 184.5 212.4 
L 184.5 212.4 
L 184.5 212.4 
L 184.5 212.4 
L 184.5 212.4 
L 184.5 212.4 
L 184.5 212.4 
L 184.5 212.4 
L 184.5 212.4 
L 184.5 212.4 
L 184.5 212.4 
L 184.5 212.4 
L 184.5 212.4 
L 184.5 212.4 
L 184.5 212.4 
L 184.5 212.4 
L 184.5 212.4 
L 184.5 212.4 
L 184.5 212.4 
L 184.5 212.4 
" style="fill:none;stroke:#008000;stroke-linecap:square;stroke-width:1.5;"/>
    <defs>
     <path d="M 0 3 
C 0.795609 3 1.55874 2.683901 2.12132 2.12132 
C 2.683901 1.55874 3 0.795609 3 0 
C 3 -0.795609 2.683901 -1.55874 2.12132 -2.12132 
C 1.55874 -2.683901 0.795609 -3 0 -3 
C -0.795609 -3 -1.55874 -2.683901 -2.12132 -2.12132 
C -2.683901 -1.55874 -3 -0.795609 -3 0 
C -3 0.795609 -2.683901 1.55874 -2.12132 2.12132 
C -1.55874 2.683901 -0.795609 3 0 3 
z
" id="m8933cfc046" style="stroke:#008000;"/>
    </defs>
    <g clip-path="url(#p7f41e109ce)">
     <use style="fill:#008000;stroke:#008000;" x="184.5" xlink:href="#m8933cfc046" y="212.4"/>
     <use style="fill:#008000;stroke:#008000;" x="184.5" xlink:href="#m8933cfc046" y="212.4"/>
     <use style="fill:#008000;stroke:#008000;" x="184.5" xlink:href="#m8933cfc046" y="212.4"/>
     <use style="fill:#008000;stroke:#008000;" x="184.5" xlink:href="#m8933cfc046" y="212.4"/>
     <use style="fill:#008000;stroke:#008000;" x="184.5" xlink:href="#m8933cfc046" y="212.4"/>
     <use style="fill:#008000;stroke:#008000;" x="184.5" xlink:href="#m8933cfc046" y="212.4"/>
     <use style="fill:#008000;stroke:#008000;" x="184.5" xlink:href="#m8933cfc046" y="212.4"/>
     <use style="fill:#008000;stroke:#008000;" x="184.5" xlink:href="#m8933cfc046" y="212.4"/>
     <use style="fill:#008000;stroke:#008000;" x="184.5" xlink:href="#m8933cfc046" y="212.4"/>
     <use style="fill:#008000;stroke:#008000;" x="184.5" xlink:href="#m8933cfc046" y="212.4"/>
     <use style="fill:#008000;stroke:#008000;" x="184.5" xlink:href="#m8933cfc046" y="212.4"/>
     <use style="fill:#008000;stroke:#008000;" x="184.5" xlink:href="#m8933cfc046" y="212.4"/>
     <use style="fill:#008000;stroke:#008000;" x="184.5" xlink:href="#m8933cfc046" y="212.4"/>
     <use style="fill:#008000;stroke:#008000;" x="184.5" xlink:href="#m8933cfc046" y="212.4"/>
     <use style="fill:#008000;stroke:#008000;" x="184.5" xlink:href="#m8933cfc046" y="212.4"/>
     <use style="fill:#008000;stroke:#008000;" x="184.5" xlink:href="#m8933cfc046" y="212.4"/>
     <use style="fill:#008000;stroke:#008000;" x="184.5" xlink:href="#m8933cfc046" y="212.4"/>
     <use style="fill:#008000;stroke:#008000;" x="184.5" xlink:href="#m8933cfc046" y="212.4"/>
     <use style="fill:#008000;stroke:#008000;" x="184.5" xlink:href="#m8933cfc046" y="212.4"/>
     <use style="fill:#008000;stroke:#008000;" x="184.5" xlink:href="#m8933cfc046" y="212.4"/>
     <use style="fill:#008000;stroke:#008000;" x="184.5" xlink:href="#m8933cfc046" y="212.4"/>
     <use style="fill:#008000;stroke:#008000;" x="184.5" xlink:href="#m8933cfc046" y="212.4"/>
     <use style="fill:#008000;stroke:#008000;" x="184.5" xlink:href="#m8933cfc046" y="212.4"/>
     <use style="fill:#008000;stroke:#008000;" x="184.5" xlink:href="#m8933cfc046" y="212.4"/>
     <use style="fill:#008000;stroke:#008000;" x="184.5" xlink:href="#m8933cfc046" y="212.4"/>
     <use style="fill:#008000;stroke:#008000;" x="184.5" xlink:href="#m8933cfc046" y="212.4"/>
     <use style="fill:#008000;stroke:#008000;" x="184.5" xlink:href="#m8933cfc046" y="212.4"/>
     <use style="fill:#008000;stroke:#008000;" x="184.5" xlink:href="#m8933cfc046" y="212.4"/>
     <use style="fill:#008000;stroke:#008000;" x="184.5" xlink:href="#m8933cfc046" y="212.4"/>
     <use style="fill:#008000;stroke:#008000;" x="184.5" xlink:href="#m8933cfc046" y="212.4"/>
     <use style="fill:#008000;stroke:#008000;" x="184.5" xlink:href="#m8933cfc046" y="212.4"/>
     <use style="fill:#008000;stroke:#008000;" x="184.5" xlink:href="#m8933cfc046" y="212.4"/>
     <use style="fill:#008000;stroke:#008000;" x="184.5" xlink:href="#m8933cfc046" y="212.4"/>
     <use style="fill:#008000;stroke:#008000;" x="184.5" xlink:href="#m8933cfc046" y="212.4"/>
     <use style="fill:#008000;stroke:#008000;" x="184.5" xlink:href="#m8933cfc046" y="212.4"/>
     <use style="fill:#008000;stroke:#008000;" x="184.5" xlink:href="#m8933cfc046" y="212.4"/>
     <use style="fill:#008000;stroke:#008000;" x="184.5" xlink:href="#m8933cfc046" y="212.4"/>
     <use style="fill:#008000;stroke:#008000;" x="184.5" xlink:href="#m8933cfc046" y="212.4"/>
     <use style="fill:#008000;stroke:#008000;" x="184.5" xlink:href="#m8933cfc046" y="212.4"/>
     <use style="fill:#008000;stroke:#008000;" x="184.5" xlink:href="#m8933cfc046" y="212.4"/>
     <use style="fill:#008000;stroke:#008000;" x="184.5" xlink:href="#m8933cfc046" y="212.4"/>
     <use style="fill:#008000;stroke:#008000;" x="184.5" xlink:href="#m8933cfc046" y="212.4"/>
     <use style="fill:#008000;stroke:#008000;" x="184.5" xlink:href="#m8933cfc046" y="212.4"/>
     <use style="fill:#008000;stroke:#008000;" x="184.5" xlink:href="#m8933cfc046" y="212.4"/>
     <use style="fill:#008000;stroke:#008000;" x="184.5" xlink:href="#m8933cfc046" y="212.4"/>
     <use style="fill:#008000;stroke:#008000;" x="184.5" xlink:href="#m8933cfc046" y="212.4"/>
     <use style="fill:#008000;stroke:#008000;" x="184.5" xlink:href="#m8933cfc046" y="212.4"/>
     <use style="fill:#008000;stroke:#008000;" x="184.5" xlink:href="#m8933cfc046" y="212.4"/>
     <use style="fill:#008000;stroke:#008000;" x="184.5" xlink:href="#m8933cfc046" y="212.4"/>
    </g>
   </g>
   <g id="line2d_16">
    <path clip-path="url(#p7f41e109ce)" d="M 240.488566 194.319308 
L 168.826011 268.042293 
L 183.059073 199.982862 
L 190.010683 199.431069 
L 217.12667 175.758286 
L 209.86193 183.848576 
L 85.242082 213.66379 
L 225.479284 171.336371 
L 202.425489 148.428827 
L 147.885987 303.91583 
L 144.751404 99.37386 
L 201.285593 139.47537 
L 227.558764 246.566615 
L 203.856581 181.760568 
L 202.330654 187.939061 
L 135.658115 209.794831 
L 235.119117 274.930692 
L 190.293799 168.428809 
L 236.41991 290.953422 
L 241.428203 225.322345 
L 226.521708 282.411245 
L 168.05516 169.016419 
L 191.728396 157.424202 
L 201.024553 240.251378 
L 171.233367 188.224505 
L 221.023786 205.947559 
L 98.756733 231.704619 
L 284.304803 285.771033 
L 146.935088 149.082567 
L 89.23226 239.076125 
L 168.177849 177.725215 
L 91.00242 129.580418 
L 324 225.200972 
L 201.32033 151.824708 
L 304.41177 226.823168 
L 180.484369 197.68638 
L 149.924994 200.147026 
L 142.305779 218.799755 
L 172.575161 195.108061 
L 178.624933 189.534266 
L 216.099384 136.062097 
L 130.174364 299.270609 
L 125.380737 168.011056 
L 150.698042 182.608984 
L 232.768683 146.974572 
L 242.504252 170.607178 
L 234.310287 271.673727 
L 81.698832 190.923176 
L 229.924377 209.360592 
" style="fill:none;stroke:#000000;stroke-linecap:square;stroke-width:1.5;"/>
    <defs>
     <path d="M 0 3 
C 0.795609 3 1.55874 2.683901 2.12132 2.12132 
C 2.683901 1.55874 3 0.795609 3 0 
C 3 -0.795609 2.683901 -1.55874 2.12132 -2.12132 
C 1.55874 -2.683901 0.795609 -3 0 -3 
C -0.795609 -3 -1.55874 -2.683901 -2.12132 -2.12132 
C -2.683901 -1.55874 -3 -0.795609 -3 0 
C -3 0.795609 -2.683901 1.55874 -2.12132 2.12132 
C -1.55874 2.683901 -0.795609 3 0 3 
z
" id="m66bf2ce797" style="stroke:#000000;"/>
    </defs>
    <g clip-path="url(#p7f41e109ce)">
     <use style="stroke:#000000;" x="240.488566" xlink:href="#m66bf2ce797" y="194.319308"/>
     <use style="stroke:#000000;" x="168.826011" xlink:href="#m66bf2ce797" y="268.042293"/>
     <use style="stroke:#000000;" x="183.059073" xlink:href="#m66bf2ce797" y="199.982862"/>
     <use style="stroke:#000000;" x="190.010683" xlink:href="#m66bf2ce797" y="199.431069"/>
     <use style="stroke:#000000;" x="217.12667" xlink:href="#m66bf2ce797" y="175.758286"/>
     <use style="stroke:#000000;" x="209.86193" xlink:href="#m66bf2ce797" y="183.848576"/>
     <use style="stroke:#000000;" x="85.242082" xlink:href="#m66bf2ce797" y="213.66379"/>
     <use style="stroke:#000000;" x="225.479284" xlink:href="#m66bf2ce797" y="171.336371"/>
     <use style="stroke:#000000;" x="202.425489" xlink:href="#m66bf2ce797" y="148.428827"/>
     <use style="stroke:#000000;" x="147.885987" xlink:href="#m66bf2ce797" y="303.91583"/>
     <use style="stroke:#000000;" x="144.751404" xlink:href="#m66bf2ce797" y="99.37386"/>
     <use style="stroke:#000000;" x="201.285593" xlink:href="#m66bf2ce797" y="139.47537"/>
     <use style="stroke:#000000;" x="227.558764" xlink:href="#m66bf2ce797" y="246.566615"/>
     <use style="stroke:#000000;" x="203.856581" xlink:href="#m66bf2ce797" y="181.760568"/>
     <use style="stroke:#000000;" x="202.330654" xlink:href="#m66bf2ce797" y="187.939061"/>
     <use style="stroke:#000000;" x="135.658115" xlink:href="#m66bf2ce797" y="209.794831"/>
     <use style="stroke:#000000;" x="235.119117" xlink:href="#m66bf2ce797" y="274.930692"/>
     <use style="stroke:#000000;" x="190.293799" xlink:href="#m66bf2ce797" y="168.428809"/>
     <use style="stroke:#000000;" x="236.41991" xlink:href="#m66bf2ce797" y="290.953422"/>
     <use style="stroke:#000000;" x="241.428203" xlink:href="#m66bf2ce797" y="225.322345"/>
     <use style="stroke:#000000;" x="226.521708" xlink:href="#m66bf2ce797" y="282.411245"/>
     <use style="stroke:#000000;" x="168.05516" xlink:href="#m66bf2ce797" y="169.016419"/>
     <use style="stroke:#000000;" x="191.728396" xlink:href="#m66bf2ce797" y="157.424202"/>
     <use style="stroke:#000000;" x="201.024553" xlink:href="#m66bf2ce797" y="240.251378"/>
     <use style="stroke:#000000;" x="171.233367" xlink:href="#m66bf2ce797" y="188.224505"/>
     <use style="stroke:#000000;" x="221.023786" xlink:href="#m66bf2ce797" y="205.947559"/>
     <use style="stroke:#000000;" x="98.756733" xlink:href="#m66bf2ce797" y="231.704619"/>
     <use style="stroke:#000000;" x="284.304803" xlink:href="#m66bf2ce797" y="285.771033"/>
     <use style="stroke:#000000;" x="146.935088" xlink:href="#m66bf2ce797" y="149.082567"/>
     <use style="stroke:#000000;" x="89.23226" xlink:href="#m66bf2ce797" y="239.076125"/>
     <use style="stroke:#000000;" x="168.177849" xlink:href="#m66bf2ce797" y="177.725215"/>
     <use style="stroke:#000000;" x="91.00242" xlink:href="#m66bf2ce797" y="129.580418"/>
     <use style="stroke:#000000;" x="324" xlink:href="#m66bf2ce797" y="225.200972"/>
     <use style="stroke:#000000;" x="201.32033" xlink:href="#m66bf2ce797" y="151.824708"/>
     <use style="stroke:#000000;" x="304.41177" xlink:href="#m66bf2ce797" y="226.823168"/>
     <use style="stroke:#000000;" x="180.484369" xlink:href="#m66bf2ce797" y="197.68638"/>
     <use style="stroke:#000000;" x="149.924994" xlink:href="#m66bf2ce797" y="200.147026"/>
     <use style="stroke:#000000;" x="142.305779" xlink:href="#m66bf2ce797" y="218.799755"/>
     <use style="stroke:#000000;" x="172.575161" xlink:href="#m66bf2ce797" y="195.108061"/>
     <use style="stroke:#000000;" x="178.624933" xlink:href="#m66bf2ce797" y="189.534266"/>
     <use style="stroke:#000000;" x="216.099384" xlink:href="#m66bf2ce797" y="136.062097"/>
     <use style="stroke:#000000;" x="130.174364" xlink:href="#m66bf2ce797" y="299.270609"/>
     <use style="stroke:#000000;" x="125.380737" xlink:href="#m66bf2ce797" y="168.011056"/>
     <use style="stroke:#000000;" x="150.698042" xlink:href="#m66bf2ce797" y="182.608984"/>
     <use style="stroke:#000000;" x="232.768683" xlink:href="#m66bf2ce797" y="146.974572"/>
     <use style="stroke:#000000;" x="242.504252" xlink:href="#m66bf2ce797" y="170.607178"/>
     <use style="stroke:#000000;" x="234.310287" xlink:href="#m66bf2ce797" y="271.673727"/>
     <use style="stroke:#000000;" x="81.698832" xlink:href="#m66bf2ce797" y="190.923176"/>
     <use style="stroke:#000000;" x="229.924377" xlink:href="#m66bf2ce797" y="209.360592"/>
    </g>
   </g>
   <g id="line2d_17">
    <path clip-path="url(#p7f41e109ce)" d="M 184.5 212.4 
L 185.597815 212.045477 
L 183.902839 214.519906 
L 184.420881 211.718191 
L 184.884031 211.496216 
L 187.185387 209.384149 
L 186.853873 209.750105 
L 174.437724 212.528117 
L 188.935503 207.955368 
L 186.537446 205.128912 
L 180.183105 223.189975 
L 179.682854 198.702324 
L 186.576747 203.37762 
L 189.910835 216.693433 
L 186.961033 208.504443 
L 186.787108 209.262437 
L 178.19337 212.063612 
L 191.068915 220.514698 
L 185.254711 206.672228 
L 191.282443 222.661652 
L 191.952642 214.091703 
L 190.010079 221.580196 
L 182.341051 206.704417 
L 185.449846 205.175915 
L 186.672908 216.062337 
L 182.754585 209.219368 
L 189.307115 211.550755 
L 173.21147 214.94155 
L 197.642736 222.061821 
L 179.552454 204.060678 
L 171.95102 215.913867 
L 182.349787 207.832087 
L 172.182126 201.488902 
L 202.87948 214.086561 
L 186.716212 204.418724 
L 200.299816 214.300426 
L 183.97088 210.461259 
L 179.944142 210.785458 
L 178.940104 213.24329 
L 182.928659 210.121434 
L 183.725834 209.386949 
L 188.66392 202.340788 
L 177.341362 223.847179 
L 176.709667 206.550728 
L 180.045798 208.474334 
L 190.860544 203.778647 
L 192.143447 206.892796 
L 191.063703 220.210739 
L 170.953463 209.56991 
" style="fill:none;stroke:#ff0000;stroke-linecap:square;stroke-width:1.5;"/>
    <defs>
     <path d="M 0 3 
C 0.795609 3 1.55874 2.683901 2.12132 2.12132 
C 2.683901 1.55874 3 0.795609 3 0 
C 3 -0.795609 2.683901 -1.55874 2.12132 -2.12132 
C 1.55874 -2.683901 0.795609 -3 0 -3 
C -0.795609 -3 -1.55874 -2.683901 -2.12132 -2.12132 
C -2.683901 -1.55874 -3 -0.795609 -3 0 
C -3 0.795609 -2.683901 1.55874 -2.12132 2.12132 
C -1.55874 2.683901 -0.795609 3 0 3 
z
" id="m7614e78edf" style="stroke:#ff0000;"/>
    </defs>
    <g clip-path="url(#p7f41e109ce)">
     <use style="fill:#ff0000;stroke:#ff0000;" x="184.5" xlink:href="#m7614e78edf" y="212.4"/>
     <use style="fill:#ff0000;stroke:#ff0000;" x="185.597815" xlink:href="#m7614e78edf" y="212.045477"/>
     <use style="fill:#ff0000;stroke:#ff0000;" x="183.902839" xlink:href="#m7614e78edf" y="214.519906"/>
     <use style="fill:#ff0000;stroke:#ff0000;" x="184.420881" xlink:href="#m7614e78edf" y="211.718191"/>
     <use style="fill:#ff0000;stroke:#ff0000;" x="184.884031" xlink:href="#m7614e78edf" y="211.496216"/>
     <use style="fill:#ff0000;stroke:#ff0000;" x="187.185387" xlink:href="#m7614e78edf" y="209.384149"/>
     <use style="fill:#ff0000;stroke:#ff0000;" x="186.853873" xlink:href="#m7614e78edf" y="209.750105"/>
     <use style="fill:#ff0000;stroke:#ff0000;" x="174.437724" xlink:href="#m7614e78edf" y="212.528117"/>
     <use style="fill:#ff0000;stroke:#ff0000;" x="188.935503" xlink:href="#m7614e78edf" y="207.955368"/>
     <use style="fill:#ff0000;stroke:#ff0000;" x="186.537446" xlink:href="#m7614e78edf" y="205.128912"/>
     <use style="fill:#ff0000;stroke:#ff0000;" x="180.183105" xlink:href="#m7614e78edf" y="223.189975"/>
     <use style="fill:#ff0000;stroke:#ff0000;" x="179.682854" xlink:href="#m7614e78edf" y="198.702324"/>
     <use style="fill:#ff0000;stroke:#ff0000;" x="186.576747" xlink:href="#m7614e78edf" y="203.37762"/>
     <use style="fill:#ff0000;stroke:#ff0000;" x="189.910835" xlink:href="#m7614e78edf" y="216.693433"/>
     <use style="fill:#ff0000;stroke:#ff0000;" x="186.961033" xlink:href="#m7614e78edf" y="208.504443"/>
     <use style="fill:#ff0000;stroke:#ff0000;" x="186.787108" xlink:href="#m7614e78edf" y="209.262437"/>
     <use style="fill:#ff0000;stroke:#ff0000;" x="178.19337" xlink:href="#m7614e78edf" y="212.063612"/>
     <use style="fill:#ff0000;stroke:#ff0000;" x="191.068915" xlink:href="#m7614e78edf" y="220.514698"/>
     <use style="fill:#ff0000;stroke:#ff0000;" x="185.254711" xlink:href="#m7614e78edf" y="206.672228"/>
     <use style="fill:#ff0000;stroke:#ff0000;" x="191.282443" xlink:href="#m7614e78edf" y="222.661652"/>
     <use style="fill:#ff0000;stroke:#ff0000;" x="191.952642" xlink:href="#m7614e78edf" y="214.091703"/>
     <use style="fill:#ff0000;stroke:#ff0000;" x="190.010079" xlink:href="#m7614e78edf" y="221.580196"/>
     <use style="fill:#ff0000;stroke:#ff0000;" x="182.341051" xlink:href="#m7614e78edf" y="206.704417"/>
     <use style="fill:#ff0000;stroke:#ff0000;" x="185.449846" xlink:href="#m7614e78edf" y="205.175915"/>
     <use style="fill:#ff0000;stroke:#ff0000;" x="186.672908" xlink:href="#m7614e78edf" y="216.062337"/>
     <use style="fill:#ff0000;stroke:#ff0000;" x="182.754585" xlink:href="#m7614e78edf" y="209.219368"/>
     <use style="fill:#ff0000;stroke:#ff0000;" x="189.307115" xlink:href="#m7614e78edf" y="211.550755"/>
     <use style="fill:#ff0000;stroke:#ff0000;" x="173.21147" xlink:href="#m7614e78edf" y="214.94155"/>
     <use style="fill:#ff0000;stroke:#ff0000;" x="197.642736" xlink:href="#m7614e78edf" y="222.061821"/>
     <use style="fill:#ff0000;stroke:#ff0000;" x="179.552454" xlink:href="#m7614e78edf" y="204.060678"/>
     <use style="fill:#ff0000;stroke:#ff0000;" x="171.95102" xlink:href="#m7614e78edf" y="215.913867"/>
     <use style="fill:#ff0000;stroke:#ff0000;" x="182.349787" xlink:href="#m7614e78edf" y="207.832087"/>
     <use style="fill:#ff0000;stroke:#ff0000;" x="172.182126" xlink:href="#m7614e78edf" y="201.488902"/>
     <use style="fill:#ff0000;stroke:#ff0000;" x="202.87948" xlink:href="#m7614e78edf" y="214.086561"/>
     <use style="fill:#ff0000;stroke:#ff0000;" x="186.716212" xlink:href="#m7614e78edf" y="204.418724"/>
     <use style="fill:#ff0000;stroke:#ff0000;" x="200.299816" xlink:href="#m7614e78edf" y="214.300426"/>
     <use style="fill:#ff0000;stroke:#ff0000;" x="183.97088" xlink:href="#m7614e78edf" y="210.461259"/>
     <use style="fill:#ff0000;stroke:#ff0000;" x="179.944142" xlink:href="#m7614e78edf" y="210.785458"/>
     <use style="fill:#ff0000;stroke:#ff0000;" x="178.940104" xlink:href="#m7614e78edf" y="213.24329"/>
     <use style="fill:#ff0000;stroke:#ff0000;" x="182.928659" xlink:href="#m7614e78edf" y="210.121434"/>
     <use style="fill:#ff0000;stroke:#ff0000;" x="183.725834" xlink:href="#m7614e78edf" y="209.386949"/>
     <use style="fill:#ff0000;stroke:#ff0000;" x="188.66392" xlink:href="#m7614e78edf" y="202.340788"/>
     <use style="fill:#ff0000;stroke:#ff0000;" x="177.341362" xlink:href="#m7614e78edf" y="223.847179"/>
     <use style="fill:#ff0000;stroke:#ff0000;" x="176.709667" xlink:href="#m7614e78edf" y="206.550728"/>
     <use style="fill:#ff0000;stroke:#ff0000;" x="180.045798" xlink:href="#m7614e78edf" y="208.474334"/>
     <use style="fill:#ff0000;stroke:#ff0000;" x="190.860544" xlink:href="#m7614e78edf" y="203.778647"/>
     <use style="fill:#ff0000;stroke:#ff0000;" x="192.143447" xlink:href="#m7614e78edf" y="206.892796"/>
     <use style="fill:#ff0000;stroke:#ff0000;" x="191.063703" xlink:href="#m7614e78edf" y="220.210739"/>
     <use style="fill:#ff0000;stroke:#ff0000;" x="170.953463" xlink:href="#m7614e78edf" y="209.56991"/>
    </g>
   </g>
   <g id="patch_3">
    <path d="M 45 338.4 
L 45 86.4 
" style="fill:none;stroke:#000000;stroke-linecap:square;stroke-linejoin:miter;stroke-width:0.8;"/>
   </g>
   <g id="patch_4">
    <path d="M 324 338.4 
L 324 86.4 
" style="fill:none;stroke:#000000;stroke-linecap:square;stroke-linejoin:miter;stroke-width:0.8;"/>
   </g>
   <g id="patch_5">
    <path d="M 45 338.4 
L 324 338.4 
" style="fill:none;stroke:#000000;stroke-linecap:square;stroke-linejoin:miter;stroke-width:0.8;"/>
   </g>
   <g id="patch_6">
    <path d="M 45 86.4 
L 324 86.4 
" style="fill:none;stroke:#000000;stroke-linecap:square;stroke-linejoin:miter;stroke-width:0.8;"/>
   </g>
   <g id="legend_1">
    <g id="patch_7">
     <path d="M 204.232812 138.434375 
L 317 138.434375 
Q 319 138.434375 319 136.434375 
L 319 93.4 
Q 319 91.4 317 91.4 
L 204.232812 91.4 
Q 202.232812 91.4 202.232812 93.4 
L 202.232812 136.434375 
Q 202.232812 138.434375 204.232812 138.434375 
z
" style="fill:#ffffff;opacity:0.8;stroke:#cccccc;stroke-linejoin:miter;"/>
    </g>
    <g id="line2d_18">
     <path d="M 206.232812 99.498438 
L 226.232812 99.498438 
" style="fill:none;stroke:#008000;stroke-linecap:square;stroke-width:1.5;"/>
    </g>
    <g id="line2d_19">
     <g>
      <use style="fill:#008000;stroke:#008000;" x="216.232812" xlink:href="#m8933cfc046" y="99.498438"/>
     </g>
    </g>
    <g id="text_15">
     <!-- True position -->
     <defs>
      <path d="M -0.296875 72.90625 
L 61.375 72.90625 
L 61.375 64.59375 
L 35.5 64.59375 
L 35.5 0 
L 25.59375 0 
L 25.59375 64.59375 
L -0.296875 64.59375 
z
" id="DejaVuSans-54"/>
      <path d="M 41.109375 46.296875 
Q 39.59375 47.171875 37.8125 47.578125 
Q 36.03125 48 33.890625 48 
Q 26.265625 48 22.1875 43.046875 
Q 18.109375 38.09375 18.109375 28.8125 
L 18.109375 0 
L 9.078125 0 
L 9.078125 54.6875 
L 18.109375 54.6875 
L 18.109375 46.1875 
Q 20.953125 51.171875 25.484375 53.578125 
Q 30.03125 56 36.53125 56 
Q 37.453125 56 38.578125 55.875 
Q 39.703125 55.765625 41.0625 55.515625 
z
" id="DejaVuSans-72"/>
      <path d="M 8.5 21.578125 
L 8.5 54.6875 
L 17.484375 54.6875 
L 17.484375 21.921875 
Q 17.484375 14.15625 20.5 10.265625 
Q 23.53125 6.390625 29.59375 6.390625 
Q 36.859375 6.390625 41.078125 11.03125 
Q 45.3125 15.671875 45.3125 23.6875 
L 45.3125 54.6875 
L 54.296875 54.6875 
L 54.296875 0 
L 45.3125 0 
L 45.3125 8.40625 
Q 42.046875 3.421875 37.71875 1 
Q 33.40625 -1.421875 27.6875 -1.421875 
Q 18.265625 -1.421875 13.375 4.4375 
Q 8.5 10.296875 8.5 21.578125 
z
M 31.109375 56 
z
" id="DejaVuSans-75"/>
      <path d="M 56.203125 29.59375 
L 56.203125 25.203125 
L 14.890625 25.203125 
Q 15.484375 15.921875 20.484375 11.0625 
Q 25.484375 6.203125 34.421875 6.203125 
Q 39.59375 6.203125 44.453125 7.46875 
Q 49.3125 8.734375 54.109375 11.28125 
L 54.109375 2.78125 
Q 49.265625 0.734375 44.1875 -0.34375 
Q 39.109375 -1.421875 33.890625 -1.421875 
Q 20.796875 -1.421875 13.15625 6.1875 
Q 5.515625 13.8125 5.515625 26.8125 
Q 5.515625 40.234375 12.765625 48.109375 
Q 20.015625 56 32.328125 56 
Q 43.359375 56 49.78125 48.890625 
Q 56.203125 41.796875 56.203125 29.59375 
z
M 47.21875 32.234375 
Q 47.125 39.59375 43.09375 43.984375 
Q 39.0625 48.390625 32.421875 48.390625 
Q 24.90625 48.390625 20.390625 44.140625 
Q 15.875 39.890625 15.1875 32.171875 
z
" id="DejaVuSans-65"/>
      <path id="DejaVuSans-20"/>
      <path d="M 18.109375 8.203125 
L 18.109375 -20.796875 
L 9.078125 -20.796875 
L 9.078125 54.6875 
L 18.109375 54.6875 
L 18.109375 46.390625 
Q 20.953125 51.265625 25.265625 53.625 
Q 29.59375 56 35.59375 56 
Q 45.5625 56 51.78125 48.09375 
Q 58.015625 40.1875 58.015625 27.296875 
Q 58.015625 14.40625 51.78125 6.484375 
Q 45.5625 -1.421875 35.59375 -1.421875 
Q 29.59375 -1.421875 25.265625 0.953125 
Q 20.953125 3.328125 18.109375 8.203125 
z
M 48.6875 27.296875 
Q 48.6875 37.203125 44.609375 42.84375 
Q 40.53125 48.484375 33.40625 48.484375 
Q 26.265625 48.484375 22.1875 42.84375 
Q 18.109375 37.203125 18.109375 27.296875 
Q 18.109375 17.390625 22.1875 11.75 
Q 26.265625 6.109375 33.40625 6.109375 
Q 40.53125 6.109375 44.609375 11.75 
Q 48.6875 17.390625 48.6875 27.296875 
z
" id="DejaVuSans-70"/>
      <path d="M 30.609375 48.390625 
Q 23.390625 48.390625 19.1875 42.75 
Q 14.984375 37.109375 14.984375 27.296875 
Q 14.984375 17.484375 19.15625 11.84375 
Q 23.34375 6.203125 30.609375 6.203125 
Q 37.796875 6.203125 41.984375 11.859375 
Q 46.1875 17.53125 46.1875 27.296875 
Q 46.1875 37.015625 41.984375 42.703125 
Q 37.796875 48.390625 30.609375 48.390625 
z
M 30.609375 56 
Q 42.328125 56 49.015625 48.375 
Q 55.71875 40.765625 55.71875 27.296875 
Q 55.71875 13.875 49.015625 6.21875 
Q 42.328125 -1.421875 30.609375 -1.421875 
Q 18.84375 -1.421875 12.171875 6.21875 
Q 5.515625 13.875 5.515625 27.296875 
Q 5.515625 40.765625 12.171875 48.375 
Q 18.84375 56 30.609375 56 
z
" id="DejaVuSans-6f"/>
      <path d="M 44.28125 53.078125 
L 44.28125 44.578125 
Q 40.484375 46.53125 36.375 47.5 
Q 32.28125 48.484375 27.875 48.484375 
Q 21.1875 48.484375 17.84375 46.4375 
Q 14.5 44.390625 14.5 40.28125 
Q 14.5 37.15625 16.890625 35.375 
Q 19.28125 33.59375 26.515625 31.984375 
L 29.59375 31.296875 
Q 39.15625 29.25 43.1875 25.515625 
Q 47.21875 21.78125 47.21875 15.09375 
Q 47.21875 7.46875 41.1875 3.015625 
Q 35.15625 -1.421875 24.609375 -1.421875 
Q 20.21875 -1.421875 15.453125 -0.5625 
Q 10.6875 0.296875 5.421875 2 
L 5.421875 11.28125 
Q 10.40625 8.6875 15.234375 7.390625 
Q 20.0625 6.109375 24.8125 6.109375 
Q 31.15625 6.109375 34.5625 8.28125 
Q 37.984375 10.453125 37.984375 14.40625 
Q 37.984375 18.0625 35.515625 20.015625 
Q 33.0625 21.96875 24.703125 23.78125 
L 21.578125 24.515625 
Q 13.234375 26.265625 9.515625 29.90625 
Q 5.8125 33.546875 5.8125 39.890625 
Q 5.8125 47.609375 11.28125 51.796875 
Q 16.75 56 26.8125 56 
Q 31.78125 56 36.171875 55.265625 
Q 40.578125 54.546875 44.28125 53.078125 
z
" id="DejaVuSans-73"/>
      <path d="M 9.421875 54.6875 
L 18.40625 54.6875 
L 18.40625 0 
L 9.421875 0 
z
M 9.421875 75.984375 
L 18.40625 75.984375 
L 18.40625 64.59375 
L 9.421875 64.59375 
z
" id="DejaVuSans-69"/>
      <path d="M 18.3125 70.21875 
L 18.3125 54.6875 
L 36.8125 54.6875 
L 36.8125 47.703125 
L 18.3125 47.703125 
L 18.3125 18.015625 
Q 18.3125 11.328125 20.140625 9.421875 
Q 21.96875 7.515625 27.59375 7.515625 
L 36.8125 7.515625 
L 36.8125 0 
L 27.59375 0 
Q 17.1875 0 13.234375 3.875 
Q 9.28125 7.765625 9.28125 18.015625 
L 9.28125 47.703125 
L 2.6875 47.703125 
L 2.6875 54.6875 
L 9.28125 54.6875 
L 9.28125 70.21875 
z
" id="DejaVuSans-74"/>
      <path d="M 54.890625 33.015625 
L 54.890625 0 
L 45.90625 0 
L 45.90625 32.71875 
Q 45.90625 40.484375 42.875 44.328125 
Q 39.84375 48.1875 33.796875 48.1875 
Q 26.515625 48.1875 22.3125 43.546875 
Q 18.109375 38.921875 18.109375 30.90625 
L 18.109375 0 
L 9.078125 0 
L 9.078125 54.6875 
L 18.109375 54.6875 
L 18.109375 46.1875 
Q 21.34375 51.125 25.703125 53.5625 
Q 30.078125 56 35.796875 56 
Q 45.21875 56 50.046875 50.171875 
Q 54.890625 44.34375 54.890625 33.015625 
z
" id="DejaVuSans-6e"/>
     </defs>
     <g transform="translate(234.232812 102.998438)scale(0.1 -0.1)">
      <use xlink:href="#DejaVuSans-54"/>
      <use x="60.865234" xlink:href="#DejaVuSans-72"/>
      <use x="101.978516" xlink:href="#DejaVuSans-75"/>
      <use x="165.357422" xlink:href="#DejaVuSans-65"/>
      <use x="226.880859" xlink:href="#DejaVuSans-20"/>
      <use x="258.667969" xlink:href="#DejaVuSans-70"/>
      <use x="322.144531" xlink:href="#DejaVuSans-6f"/>
      <use x="383.326172" xlink:href="#DejaVuSans-73"/>
      <use x="435.425781" xlink:href="#DejaVuSans-69"/>
      <use x="463.208984" xlink:href="#DejaVuSans-74"/>
      <use x="502.417969" xlink:href="#DejaVuSans-69"/>
      <use x="530.201172" xlink:href="#DejaVuSans-6f"/>
      <use x="591.382812" xlink:href="#DejaVuSans-6e"/>
     </g>
    </g>
    <g id="line2d_20">
     <path d="M 206.232812 114.176563 
L 226.232812 114.176563 
" style="fill:none;stroke:#000000;stroke-linecap:square;stroke-width:1.5;"/>
    </g>
    <g id="line2d_21">
     <g>
      <use style="stroke:#000000;" x="216.232812" xlink:href="#m66bf2ce797" y="114.176563"/>
     </g>
    </g>
    <g id="text_16">
     <!-- Noisy position -->
     <defs>
      <path d="M 9.8125 72.90625 
L 23.09375 72.90625 
L 55.421875 11.921875 
L 55.421875 72.90625 
L 64.984375 72.90625 
L 64.984375 0 
L 51.703125 0 
L 19.390625 60.984375 
L 19.390625 0 
L 9.8125 0 
z
" id="DejaVuSans-4e"/>
      <path d="M 32.171875 -5.078125 
Q 28.375 -14.84375 24.75 -17.8125 
Q 21.140625 -20.796875 15.09375 -20.796875 
L 7.90625 -20.796875 
L 7.90625 -13.28125 
L 13.1875 -13.28125 
Q 16.890625 -13.28125 18.9375 -11.515625 
Q 21 -9.765625 23.484375 -3.21875 
L 25.09375 0.875 
L 2.984375 54.6875 
L 12.5 54.6875 
L 29.59375 11.921875 
L 46.6875 54.6875 
L 56.203125 54.6875 
z
" id="DejaVuSans-79"/>
     </defs>
     <g transform="translate(234.232812 117.676563)scale(0.1 -0.1)">
      <use xlink:href="#DejaVuSans-4e"/>
      <use x="74.804688" xlink:href="#DejaVuSans-6f"/>
      <use x="135.986328" xlink:href="#DejaVuSans-69"/>
      <use x="163.769531" xlink:href="#DejaVuSans-73"/>
      <use x="215.869141" xlink:href="#DejaVuSans-79"/>
      <use x="275.048828" xlink:href="#DejaVuSans-20"/>
      <use x="306.835938" xlink:href="#DejaVuSans-70"/>
      <use x="370.3125" xlink:href="#DejaVuSans-6f"/>
      <use x="431.494141" xlink:href="#DejaVuSans-73"/>
      <use x="483.59375" xlink:href="#DejaVuSans-69"/>
      <use x="511.376953" xlink:href="#DejaVuSans-74"/>
      <use x="550.585938" xlink:href="#DejaVuSans-69"/>
      <use x="578.369141" xlink:href="#DejaVuSans-6f"/>
      <use x="639.550781" xlink:href="#DejaVuSans-6e"/>
     </g>
    </g>
    <g id="line2d_22">
     <path d="M 206.232812 128.854688 
L 226.232812 128.854688 
" style="fill:none;stroke:#ff0000;stroke-linecap:square;stroke-width:1.5;"/>
    </g>
    <g id="line2d_23">
     <g>
      <use style="fill:#ff0000;stroke:#ff0000;" x="216.232812" xlink:href="#m7614e78edf" y="128.854688"/>
     </g>
    </g>
    <g id="text_17">
     <!-- Filtered position -->
     <defs>
      <path d="M 9.8125 72.90625 
L 51.703125 72.90625 
L 51.703125 64.59375 
L 19.671875 64.59375 
L 19.671875 43.109375 
L 48.578125 43.109375 
L 48.578125 34.8125 
L 19.671875 34.8125 
L 19.671875 0 
L 9.8125 0 
z
" id="DejaVuSans-46"/>
      <path d="M 9.421875 75.984375 
L 18.40625 75.984375 
L 18.40625 0 
L 9.421875 0 
z
" id="DejaVuSans-6c"/>
      <path d="M 45.40625 46.390625 
L 45.40625 75.984375 
L 54.390625 75.984375 
L 54.390625 0 
L 45.40625 0 
L 45.40625 8.203125 
Q 42.578125 3.328125 38.25 0.953125 
Q 33.9375 -1.421875 27.875 -1.421875 
Q 17.96875 -1.421875 11.734375 6.484375 
Q 5.515625 14.40625 5.515625 27.296875 
Q 5.515625 40.1875 11.734375 48.09375 
Q 17.96875 56 27.875 56 
Q 33.9375 56 38.25 53.625 
Q 42.578125 51.265625 45.40625 46.390625 
z
M 14.796875 27.296875 
Q 14.796875 17.390625 18.875 11.75 
Q 22.953125 6.109375 30.078125 6.109375 
Q 37.203125 6.109375 41.296875 11.75 
Q 45.40625 17.390625 45.40625 27.296875 
Q 45.40625 37.203125 41.296875 42.84375 
Q 37.203125 48.484375 30.078125 48.484375 
Q 22.953125 48.484375 18.875 42.84375 
Q 14.796875 37.203125 14.796875 27.296875 
z
" id="DejaVuSans-64"/>
     </defs>
     <g transform="translate(234.232812 132.354688)scale(0.1 -0.1)">
      <use xlink:href="#DejaVuSans-46"/>
      <use x="57.410156" xlink:href="#DejaVuSans-69"/>
      <use x="85.193359" xlink:href="#DejaVuSans-6c"/>
      <use x="112.976562" xlink:href="#DejaVuSans-74"/>
      <use x="152.185547" xlink:href="#DejaVuSans-65"/>
      <use x="213.708984" xlink:href="#DejaVuSans-72"/>
      <use x="254.791016" xlink:href="#DejaVuSans-65"/>
      <use x="316.314453" xlink:href="#DejaVuSans-64"/>
      <use x="379.791016" xlink:href="#DejaVuSans-20"/>
      <use x="411.578125" xlink:href="#DejaVuSans-70"/>
      <use x="475.054688" xlink:href="#DejaVuSans-6f"/>
      <use x="536.236328" xlink:href="#DejaVuSans-73"/>
      <use x="588.335938" xlink:href="#DejaVuSans-69"/>
      <use x="616.119141" xlink:href="#DejaVuSans-74"/>
      <use x="655.328125" xlink:href="#DejaVuSans-69"/>
      <use x="683.111328" xlink:href="#DejaVuSans-6f"/>
      <use x="744.292969" xlink:href="#DejaVuSans-6e"/>
     </g>
    </g>
   </g>
  </g>
  <g id="axes_2">
   <g id="patch_8">
    <path d="M 45 640.8 
L 324 640.8 
L 324 388.8 
L 45 388.8 
z
" style="fill:#ffffff;"/>
   </g>
   <g id="matplotlib.axis_3">
    <g id="xtick_8">
     <g id="line2d_24">
      <g>
       <use style="stroke:#000000;stroke-width:0.8;" x="45.720208" xlink:href="#mff5351a7e0" y="640.8"/>
      </g>
     </g>
     <g id="text_18">
      <!-- −0.15 -->
      <g transform="translate(30.397551 655.398438)scale(0.1 -0.1)">
       <use xlink:href="#DejaVuSans-2212"/>
       <use x="83.789062" xlink:href="#DejaVuSans-30"/>
       <use x="147.412109" xlink:href="#DejaVuSans-2e"/>
       <use x="179.199219" xlink:href="#DejaVuSans-31"/>
       <use x="242.822266" xlink:href="#DejaVuSans-35"/>
      </g>
     </g>
    </g>
    <g id="xtick_9">
     <g id="line2d_25">
      <g>
       <use style="stroke:#000000;stroke-width:0.8;" x="91.980138" xlink:href="#mff5351a7e0" y="640.8"/>
      </g>
     </g>
     <g id="text_19">
      <!-- −0.10 -->
      <g transform="translate(76.657482 655.398438)scale(0.1 -0.1)">
       <use xlink:href="#DejaVuSans-2212"/>
       <use x="83.789062" xlink:href="#DejaVuSans-30"/>
       <use x="147.412109" xlink:href="#DejaVuSans-2e"/>
       <use x="179.199219" xlink:href="#DejaVuSans-31"/>
       <use x="242.822266" xlink:href="#DejaVuSans-30"/>
      </g>
     </g>
    </g>
    <g id="xtick_10">
     <g id="line2d_26">
      <g>
       <use style="stroke:#000000;stroke-width:0.8;" x="138.240069" xlink:href="#mff5351a7e0" y="640.8"/>
      </g>
     </g>
     <g id="text_20">
      <!-- −0.05 -->
      <g transform="translate(122.917413 655.398438)scale(0.1 -0.1)">
       <use xlink:href="#DejaVuSans-2212"/>
       <use x="83.789062" xlink:href="#DejaVuSans-30"/>
       <use x="147.412109" xlink:href="#DejaVuSans-2e"/>
       <use x="179.199219" xlink:href="#DejaVuSans-30"/>
       <use x="242.822266" xlink:href="#DejaVuSans-35"/>
      </g>
     </g>
    </g>
    <g id="xtick_11">
     <g id="line2d_27">
      <g>
       <use style="stroke:#000000;stroke-width:0.8;" x="184.5" xlink:href="#mff5351a7e0" y="640.8"/>
      </g>
     </g>
     <g id="text_21">
      <!-- 0.00 -->
      <g transform="translate(173.367188 655.398438)scale(0.1 -0.1)">
       <use xlink:href="#DejaVuSans-30"/>
       <use x="63.623047" xlink:href="#DejaVuSans-2e"/>
       <use x="95.410156" xlink:href="#DejaVuSans-30"/>
       <use x="159.033203" xlink:href="#DejaVuSans-30"/>
      </g>
     </g>
    </g>
    <g id="xtick_12">
     <g id="line2d_28">
      <g>
       <use style="stroke:#000000;stroke-width:0.8;" x="230.759931" xlink:href="#mff5351a7e0" y="640.8"/>
      </g>
     </g>
     <g id="text_22">
      <!-- 0.05 -->
      <g transform="translate(219.627118 655.398438)scale(0.1 -0.1)">
       <use xlink:href="#DejaVuSans-30"/>
       <use x="63.623047" xlink:href="#DejaVuSans-2e"/>
       <use x="95.410156" xlink:href="#DejaVuSans-30"/>
       <use x="159.033203" xlink:href="#DejaVuSans-35"/>
      </g>
     </g>
    </g>
    <g id="xtick_13">
     <g id="line2d_29">
      <g>
       <use style="stroke:#000000;stroke-width:0.8;" x="277.019862" xlink:href="#mff5351a7e0" y="640.8"/>
      </g>
     </g>
     <g id="text_23">
      <!-- 0.10 -->
      <g transform="translate(265.887049 655.398438)scale(0.1 -0.1)">
       <use xlink:href="#DejaVuSans-30"/>
       <use x="63.623047" xlink:href="#DejaVuSans-2e"/>
       <use x="95.410156" xlink:href="#DejaVuSans-31"/>
       <use x="159.033203" xlink:href="#DejaVuSans-30"/>
      </g>
     </g>
    </g>
    <g id="xtick_14">
     <g id="line2d_30">
      <g>
       <use style="stroke:#000000;stroke-width:0.8;" x="323.279792" xlink:href="#mff5351a7e0" y="640.8"/>
      </g>
     </g>
     <g id="text_24">
      <!-- 0.15 -->
      <g transform="translate(312.14698 655.398438)scale(0.1 -0.1)">
       <use xlink:href="#DejaVuSans-30"/>
       <use x="63.623047" xlink:href="#DejaVuSans-2e"/>
       <use x="95.410156" xlink:href="#DejaVuSans-31"/>
       <use x="159.033203" xlink:href="#DejaVuSans-35"/>
      </g>
     </g>
    </g>
    <g id="text_25">
     <!-- X position [mas] -->
     <defs>
      <path d="M 6.296875 72.90625 
L 16.890625 72.90625 
L 35.015625 45.796875 
L 53.21875 72.90625 
L 63.8125 72.90625 
L 40.375 37.890625 
L 65.375 0 
L 54.78125 0 
L 34.28125 31 
L 13.625 0 
L 2.984375 0 
L 29 38.921875 
z
" id="DejaVuSans-58"/>
      <path d="M 8.59375 75.984375 
L 29.296875 75.984375 
L 29.296875 69 
L 17.578125 69 
L 17.578125 -6.203125 
L 29.296875 -6.203125 
L 29.296875 -13.1875 
L 8.59375 -13.1875 
z
" id="DejaVuSans-5b"/>
      <path d="M 52 44.1875 
Q 55.375 50.25 60.0625 53.125 
Q 64.75 56 71.09375 56 
Q 79.640625 56 84.28125 50.015625 
Q 88.921875 44.046875 88.921875 33.015625 
L 88.921875 0 
L 79.890625 0 
L 79.890625 32.71875 
Q 79.890625 40.578125 77.09375 44.375 
Q 74.3125 48.1875 68.609375 48.1875 
Q 61.625 48.1875 57.5625 43.546875 
Q 53.515625 38.921875 53.515625 30.90625 
L 53.515625 0 
L 44.484375 0 
L 44.484375 32.71875 
Q 44.484375 40.625 41.703125 44.40625 
Q 38.921875 48.1875 33.109375 48.1875 
Q 26.21875 48.1875 22.15625 43.53125 
Q 18.109375 38.875 18.109375 30.90625 
L 18.109375 0 
L 9.078125 0 
L 9.078125 54.6875 
L 18.109375 54.6875 
L 18.109375 46.1875 
Q 21.1875 51.21875 25.484375 53.609375 
Q 29.78125 56 35.6875 56 
Q 41.65625 56 45.828125 52.96875 
Q 50 49.953125 52 44.1875 
z
" id="DejaVuSans-6d"/>
      <path d="M 34.28125 27.484375 
Q 23.390625 27.484375 19.1875 25 
Q 14.984375 22.515625 14.984375 16.5 
Q 14.984375 11.71875 18.140625 8.90625 
Q 21.296875 6.109375 26.703125 6.109375 
Q 34.1875 6.109375 38.703125 11.40625 
Q 43.21875 16.703125 43.21875 25.484375 
L 43.21875 27.484375 
z
M 52.203125 31.203125 
L 52.203125 0 
L 43.21875 0 
L 43.21875 8.296875 
Q 40.140625 3.328125 35.546875 0.953125 
Q 30.953125 -1.421875 24.3125 -1.421875 
Q 15.921875 -1.421875 10.953125 3.296875 
Q 6 8.015625 6 15.921875 
Q 6 25.140625 12.171875 29.828125 
Q 18.359375 34.515625 30.609375 34.515625 
L 43.21875 34.515625 
L 43.21875 35.40625 
Q 43.21875 41.609375 39.140625 45 
Q 35.0625 48.390625 27.6875 48.390625 
Q 23 48.390625 18.546875 47.265625 
Q 14.109375 46.140625 10.015625 43.890625 
L 10.015625 52.203125 
Q 14.9375 54.109375 19.578125 55.046875 
Q 24.21875 56 28.609375 56 
Q 40.484375 56 46.34375 49.84375 
Q 52.203125 43.703125 52.203125 31.203125 
z
" id="DejaVuSans-61"/>
      <path d="M 30.421875 75.984375 
L 30.421875 -13.1875 
L 9.71875 -13.1875 
L 9.71875 -6.203125 
L 21.390625 -6.203125 
L 21.390625 69 
L 9.71875 69 
L 9.71875 75.984375 
z
" id="DejaVuSans-5d"/>
     </defs>
     <g transform="translate(127.312187 672.115937)scale(0.14 -0.14)">
      <use xlink:href="#DejaVuSans-58"/>
      <use x="68.505859" xlink:href="#DejaVuSans-20"/>
      <use x="100.292969" xlink:href="#DejaVuSans-70"/>
      <use x="163.769531" xlink:href="#DejaVuSans-6f"/>
      <use x="224.951172" xlink:href="#DejaVuSans-73"/>
      <use x="277.050781" xlink:href="#DejaVuSans-69"/>
      <use x="304.833984" xlink:href="#DejaVuSans-74"/>
      <use x="344.042969" xlink:href="#DejaVuSans-69"/>
      <use x="371.826172" xlink:href="#DejaVuSans-6f"/>
      <use x="433.007812" xlink:href="#DejaVuSans-6e"/>
      <use x="496.386719" xlink:href="#DejaVuSans-20"/>
      <use x="528.173828" xlink:href="#DejaVuSans-5b"/>
      <use x="567.1875" xlink:href="#DejaVuSans-6d"/>
      <use x="664.599609" xlink:href="#DejaVuSans-61"/>
      <use x="725.878906" xlink:href="#DejaVuSans-73"/>
      <use x="777.978516" xlink:href="#DejaVuSans-5d"/>
     </g>
    </g>
   </g>
   <g id="matplotlib.axis_4">
    <g id="ytick_8">
     <g id="line2d_31">
      <g>
       <use style="stroke:#000000;stroke-width:0.8;" x="45" xlink:href="#m1b8dfb92a0" y="640.14949"/>
      </g>
     </g>
     <g id="text_26">
      <!-- −0.15 -->
      <g transform="translate(7.354687 643.948709)scale(0.1 -0.1)">
       <use xlink:href="#DejaVuSans-2212"/>
       <use x="83.789062" xlink:href="#DejaVuSans-30"/>
       <use x="147.412109" xlink:href="#DejaVuSans-2e"/>
       <use x="179.199219" xlink:href="#DejaVuSans-31"/>
       <use x="242.822266" xlink:href="#DejaVuSans-35"/>
      </g>
     </g>
    </g>
    <g id="ytick_9">
     <g id="line2d_32">
      <g>
       <use style="stroke:#000000;stroke-width:0.8;" x="45" xlink:href="#m1b8dfb92a0" y="598.366327"/>
      </g>
     </g>
     <g id="text_27">
      <!-- −0.10 -->
      <g transform="translate(7.354687 602.165545)scale(0.1 -0.1)">
       <use xlink:href="#DejaVuSans-2212"/>
       <use x="83.789062" xlink:href="#DejaVuSans-30"/>
       <use x="147.412109" xlink:href="#DejaVuSans-2e"/>
       <use x="179.199219" xlink:href="#DejaVuSans-31"/>
       <use x="242.822266" xlink:href="#DejaVuSans-30"/>
      </g>
     </g>
    </g>
    <g id="ytick_10">
     <g id="line2d_33">
      <g>
       <use style="stroke:#000000;stroke-width:0.8;" x="45" xlink:href="#m1b8dfb92a0" y="556.583163"/>
      </g>
     </g>
     <g id="text_28">
      <!-- −0.05 -->
      <g transform="translate(7.354687 560.382382)scale(0.1 -0.1)">
       <use xlink:href="#DejaVuSans-2212"/>
       <use x="83.789062" xlink:href="#DejaVuSans-30"/>
       <use x="147.412109" xlink:href="#DejaVuSans-2e"/>
       <use x="179.199219" xlink:href="#DejaVuSans-30"/>
       <use x="242.822266" xlink:href="#DejaVuSans-35"/>
      </g>
     </g>
    </g>
    <g id="ytick_11">
     <g id="line2d_34">
      <g>
       <use style="stroke:#000000;stroke-width:0.8;" x="45" xlink:href="#m1b8dfb92a0" y="514.8"/>
      </g>
     </g>
     <g id="text_29">
      <!-- 0.00 -->
      <g transform="translate(15.734375 518.599219)scale(0.1 -0.1)">
       <use xlink:href="#DejaVuSans-30"/>
       <use x="63.623047" xlink:href="#DejaVuSans-2e"/>
       <use x="95.410156" xlink:href="#DejaVuSans-30"/>
       <use x="159.033203" xlink:href="#DejaVuSans-30"/>
      </g>
     </g>
    </g>
    <g id="ytick_12">
     <g id="line2d_35">
      <g>
       <use style="stroke:#000000;stroke-width:0.8;" x="45" xlink:href="#m1b8dfb92a0" y="473.016837"/>
      </g>
     </g>
     <g id="text_30">
      <!-- 0.05 -->
      <g transform="translate(15.734375 476.816055)scale(0.1 -0.1)">
       <use xlink:href="#DejaVuSans-30"/>
       <use x="63.623047" xlink:href="#DejaVuSans-2e"/>
       <use x="95.410156" xlink:href="#DejaVuSans-30"/>
       <use x="159.033203" xlink:href="#DejaVuSans-35"/>
      </g>
     </g>
    </g>
    <g id="ytick_13">
     <g id="line2d_36">
      <g>
       <use style="stroke:#000000;stroke-width:0.8;" x="45" xlink:href="#m1b8dfb92a0" y="431.233673"/>
      </g>
     </g>
     <g id="text_31">
      <!-- 0.10 -->
      <g transform="translate(15.734375 435.032892)scale(0.1 -0.1)">
       <use xlink:href="#DejaVuSans-30"/>
       <use x="63.623047" xlink:href="#DejaVuSans-2e"/>
       <use x="95.410156" xlink:href="#DejaVuSans-31"/>
       <use x="159.033203" xlink:href="#DejaVuSans-30"/>
      </g>
     </g>
    </g>
    <g id="ytick_14">
     <g id="line2d_37">
      <g>
       <use style="stroke:#000000;stroke-width:0.8;" x="45" xlink:href="#m1b8dfb92a0" y="389.45051"/>
      </g>
     </g>
     <g id="text_32">
      <!-- 0.15 -->
      <g transform="translate(15.734375 393.249729)scale(0.1 -0.1)">
       <use xlink:href="#DejaVuSans-30"/>
       <use x="63.623047" xlink:href="#DejaVuSans-2e"/>
       <use x="95.410156" xlink:href="#DejaVuSans-31"/>
       <use x="159.033203" xlink:href="#DejaVuSans-35"/>
      </g>
     </g>
    </g>
    <g id="text_33">
     <!-- Y position [mas] -->
     <defs>
      <path d="M -0.203125 72.90625 
L 10.40625 72.90625 
L 30.609375 42.921875 
L 50.6875 72.90625 
L 61.28125 72.90625 
L 35.5 34.71875 
L 35.5 0 
L 25.59375 0 
L 25.59375 34.71875 
z
" id="DejaVuSans-59"/>
     </defs>
     <g transform="translate(0.443125 571.468281)rotate(-90)scale(0.14 -0.14)">
      <use xlink:href="#DejaVuSans-59"/>
      <use x="61.083984" xlink:href="#DejaVuSans-20"/>
      <use x="92.871094" xlink:href="#DejaVuSans-70"/>
      <use x="156.347656" xlink:href="#DejaVuSans-6f"/>
      <use x="217.529297" xlink:href="#DejaVuSans-73"/>
      <use x="269.628906" xlink:href="#DejaVuSans-69"/>
      <use x="297.412109" xlink:href="#DejaVuSans-74"/>
      <use x="336.621094" xlink:href="#DejaVuSans-69"/>
      <use x="364.404297" xlink:href="#DejaVuSans-6f"/>
      <use x="425.585938" xlink:href="#DejaVuSans-6e"/>
      <use x="488.964844" xlink:href="#DejaVuSans-20"/>
      <use x="520.751953" xlink:href="#DejaVuSans-5b"/>
      <use x="559.765625" xlink:href="#DejaVuSans-6d"/>
      <use x="657.177734" xlink:href="#DejaVuSans-61"/>
      <use x="718.457031" xlink:href="#DejaVuSans-73"/>
      <use x="770.556641" xlink:href="#DejaVuSans-5d"/>
     </g>
    </g>
   </g>
   <g id="line2d_38">
    <path clip-path="url(#p2a6799b64a)" d="M 240.488566 496.719308 
L 168.826011 570.442293 
L 183.059073 502.382862 
L 190.010683 501.831069 
L 217.12667 478.158286 
L 209.86193 486.248576 
L 85.242082 516.06379 
L 225.479284 473.736371 
L 202.425489 450.828827 
L 147.885987 606.31583 
L 144.751404 401.77386 
L 201.285593 441.87537 
L 227.558764 548.966615 
L 203.856581 484.160568 
L 202.330654 490.339061 
L 135.658115 512.194831 
L 235.119117 577.330692 
L 190.293799 470.828809 
L 236.41991 593.353422 
L 241.428203 527.722345 
L 226.521708 584.811245 
L 168.05516 471.416419 
L 191.728396 459.824202 
L 201.024553 542.651378 
L 171.233367 490.624505 
L 221.023786 508.347559 
L 98.756733 534.104619 
L 284.304803 588.171033 
L 146.935088 451.482567 
L 89.23226 541.476125 
L 168.177849 480.125215 
L 91.00242 431.980418 
L 324 527.600972 
L 201.32033 454.224708 
L 304.41177 529.223168 
L 180.484369 500.08638 
L 149.924994 502.547026 
L 142.305779 521.199755 
L 172.575161 497.508061 
L 178.624933 491.934266 
L 216.099384 438.462097 
L 130.174364 601.670609 
L 125.380737 470.411056 
L 150.698042 485.008984 
L 232.768683 449.374572 
L 242.504252 473.007178 
L 234.310287 574.073727 
L 81.698832 493.323176 
L 229.924377 511.760592 
" style="fill:none;stroke:#000000;stroke-linecap:square;stroke-width:1.5;"/>
    <g clip-path="url(#p2a6799b64a)">
     <use style="stroke:#000000;" x="240.488566" xlink:href="#m66bf2ce797" y="496.719308"/>
     <use style="stroke:#000000;" x="168.826011" xlink:href="#m66bf2ce797" y="570.442293"/>
     <use style="stroke:#000000;" x="183.059073" xlink:href="#m66bf2ce797" y="502.382862"/>
     <use style="stroke:#000000;" x="190.010683" xlink:href="#m66bf2ce797" y="501.831069"/>
     <use style="stroke:#000000;" x="217.12667" xlink:href="#m66bf2ce797" y="478.158286"/>
     <use style="stroke:#000000;" x="209.86193" xlink:href="#m66bf2ce797" y="486.248576"/>
     <use style="stroke:#000000;" x="85.242082" xlink:href="#m66bf2ce797" y="516.06379"/>
     <use style="stroke:#000000;" x="225.479284" xlink:href="#m66bf2ce797" y="473.736371"/>
     <use style="stroke:#000000;" x="202.425489" xlink:href="#m66bf2ce797" y="450.828827"/>
     <use style="stroke:#000000;" x="147.885987" xlink:href="#m66bf2ce797" y="606.31583"/>
     <use style="stroke:#000000;" x="144.751404" xlink:href="#m66bf2ce797" y="401.77386"/>
     <use style="stroke:#000000;" x="201.285593" xlink:href="#m66bf2ce797" y="441.87537"/>
     <use style="stroke:#000000;" x="227.558764" xlink:href="#m66bf2ce797" y="548.966615"/>
     <use style="stroke:#000000;" x="203.856581" xlink:href="#m66bf2ce797" y="484.160568"/>
     <use style="stroke:#000000;" x="202.330654" xlink:href="#m66bf2ce797" y="490.339061"/>
     <use style="stroke:#000000;" x="135.658115" xlink:href="#m66bf2ce797" y="512.194831"/>
     <use style="stroke:#000000;" x="235.119117" xlink:href="#m66bf2ce797" y="577.330692"/>
     <use style="stroke:#000000;" x="190.293799" xlink:href="#m66bf2ce797" y="470.828809"/>
     <use style="stroke:#000000;" x="236.41991" xlink:href="#m66bf2ce797" y="593.353422"/>
     <use style="stroke:#000000;" x="241.428203" xlink:href="#m66bf2ce797" y="527.722345"/>
     <use style="stroke:#000000;" x="226.521708" xlink:href="#m66bf2ce797" y="584.811245"/>
     <use style="stroke:#000000;" x="168.05516" xlink:href="#m66bf2ce797" y="471.416419"/>
     <use style="stroke:#000000;" x="191.728396" xlink:href="#m66bf2ce797" y="459.824202"/>
     <use style="stroke:#000000;" x="201.024553" xlink:href="#m66bf2ce797" y="542.651378"/>
     <use style="stroke:#000000;" x="171.233367" xlink:href="#m66bf2ce797" y="490.624505"/>
     <use style="stroke:#000000;" x="221.023786" xlink:href="#m66bf2ce797" y="508.347559"/>
     <use style="stroke:#000000;" x="98.756733" xlink:href="#m66bf2ce797" y="534.104619"/>
     <use style="stroke:#000000;" x="284.304803" xlink:href="#m66bf2ce797" y="588.171033"/>
     <use style="stroke:#000000;" x="146.935088" xlink:href="#m66bf2ce797" y="451.482567"/>
     <use style="stroke:#000000;" x="89.23226" xlink:href="#m66bf2ce797" y="541.476125"/>
     <use style="stroke:#000000;" x="168.177849" xlink:href="#m66bf2ce797" y="480.125215"/>
     <use style="stroke:#000000;" x="91.00242" xlink:href="#m66bf2ce797" y="431.980418"/>
     <use style="stroke:#000000;" x="324" xlink:href="#m66bf2ce797" y="527.600972"/>
     <use style="stroke:#000000;" x="201.32033" xlink:href="#m66bf2ce797" y="454.224708"/>
     <use style="stroke:#000000;" x="304.41177" xlink:href="#m66bf2ce797" y="529.223168"/>
     <use style="stroke:#000000;" x="180.484369" xlink:href="#m66bf2ce797" y="500.08638"/>
     <use style="stroke:#000000;" x="149.924994" xlink:href="#m66bf2ce797" y="502.547026"/>
     <use style="stroke:#000000;" x="142.305779" xlink:href="#m66bf2ce797" y="521.199755"/>
     <use style="stroke:#000000;" x="172.575161" xlink:href="#m66bf2ce797" y="497.508061"/>
     <use style="stroke:#000000;" x="178.624933" xlink:href="#m66bf2ce797" y="491.934266"/>
     <use style="stroke:#000000;" x="216.099384" xlink:href="#m66bf2ce797" y="438.462097"/>
     <use style="stroke:#000000;" x="130.174364" xlink:href="#m66bf2ce797" y="601.670609"/>
     <use style="stroke:#000000;" x="125.380737" xlink:href="#m66bf2ce797" y="470.411056"/>
     <use style="stroke:#000000;" x="150.698042" xlink:href="#m66bf2ce797" y="485.008984"/>
     <use style="stroke:#000000;" x="232.768683" xlink:href="#m66bf2ce797" y="449.374572"/>
     <use style="stroke:#000000;" x="242.504252" xlink:href="#m66bf2ce797" y="473.007178"/>
     <use style="stroke:#000000;" x="234.310287" xlink:href="#m66bf2ce797" y="574.073727"/>
     <use style="stroke:#000000;" x="81.698832" xlink:href="#m66bf2ce797" y="493.323176"/>
     <use style="stroke:#000000;" x="229.924377" xlink:href="#m66bf2ce797" y="511.760592"/>
    </g>
   </g>
   <g id="line2d_39">
    <path clip-path="url(#p2a6799b64a)" d="M 184.5 514.8 
L 185.597815 514.445477 
L 183.902839 516.919906 
L 184.420881 514.118191 
L 184.884031 513.896216 
L 187.185387 511.784149 
L 186.853873 512.150105 
L 174.437724 514.928117 
L 188.935503 510.355368 
L 186.537446 507.528912 
L 180.183105 525.589975 
L 179.682854 501.102324 
L 186.576747 505.77762 
L 189.910835 519.093433 
L 186.961033 510.904443 
L 186.787108 511.662437 
L 178.19337 514.463612 
L 191.068915 522.914698 
L 185.254711 509.072228 
L 191.282443 525.061652 
L 191.952642 516.491703 
L 190.010079 523.980196 
L 182.341051 509.104417 
L 185.449846 507.575915 
L 186.672908 518.462337 
L 182.754585 511.619368 
L 189.307115 513.950755 
L 173.21147 517.34155 
L 197.642736 524.461821 
L 179.552454 506.460678 
L 171.95102 518.313867 
L 182.349787 510.232087 
L 172.182126 503.888902 
L 202.87948 516.486561 
L 186.716212 506.818724 
L 200.299816 516.700426 
L 183.97088 512.861259 
L 179.944142 513.185458 
L 178.940104 515.64329 
L 182.928659 512.521434 
L 183.725834 511.786949 
L 188.66392 504.740788 
L 177.341362 526.247179 
L 176.709667 508.950728 
L 180.045798 510.874334 
L 190.860544 506.178647 
L 192.143447 509.292796 
L 191.063703 522.610739 
L 170.953463 511.96991 
" style="fill:none;stroke:#ff0000;stroke-linecap:square;stroke-width:1.5;"/>
    <g clip-path="url(#p2a6799b64a)">
     <use style="fill:#ff0000;stroke:#ff0000;" x="184.5" xlink:href="#m7614e78edf" y="514.8"/>
     <use style="fill:#ff0000;stroke:#ff0000;" x="185.597815" xlink:href="#m7614e78edf" y="514.445477"/>
     <use style="fill:#ff0000;stroke:#ff0000;" x="183.902839" xlink:href="#m7614e78edf" y="516.919906"/>
     <use style="fill:#ff0000;stroke:#ff0000;" x="184.420881" xlink:href="#m7614e78edf" y="514.118191"/>
     <use style="fill:#ff0000;stroke:#ff0000;" x="184.884031" xlink:href="#m7614e78edf" y="513.896216"/>
     <use style="fill:#ff0000;stroke:#ff0000;" x="187.185387" xlink:href="#m7614e78edf" y="511.784149"/>
     <use style="fill:#ff0000;stroke:#ff0000;" x="186.853873" xlink:href="#m7614e78edf" y="512.150105"/>
     <use style="fill:#ff0000;stroke:#ff0000;" x="174.437724" xlink:href="#m7614e78edf" y="514.928117"/>
     <use style="fill:#ff0000;stroke:#ff0000;" x="188.935503" xlink:href="#m7614e78edf" y="510.355368"/>
     <use style="fill:#ff0000;stroke:#ff0000;" x="186.537446" xlink:href="#m7614e78edf" y="507.528912"/>
     <use style="fill:#ff0000;stroke:#ff0000;" x="180.183105" xlink:href="#m7614e78edf" y="525.589975"/>
     <use style="fill:#ff0000;stroke:#ff0000;" x="179.682854" xlink:href="#m7614e78edf" y="501.102324"/>
     <use style="fill:#ff0000;stroke:#ff0000;" x="186.576747" xlink:href="#m7614e78edf" y="505.77762"/>
     <use style="fill:#ff0000;stroke:#ff0000;" x="189.910835" xlink:href="#m7614e78edf" y="519.093433"/>
     <use style="fill:#ff0000;stroke:#ff0000;" x="186.961033" xlink:href="#m7614e78edf" y="510.904443"/>
     <use style="fill:#ff0000;stroke:#ff0000;" x="186.787108" xlink:href="#m7614e78edf" y="511.662437"/>
     <use style="fill:#ff0000;stroke:#ff0000;" x="178.19337" xlink:href="#m7614e78edf" y="514.463612"/>
     <use style="fill:#ff0000;stroke:#ff0000;" x="191.068915" xlink:href="#m7614e78edf" y="522.914698"/>
     <use style="fill:#ff0000;stroke:#ff0000;" x="185.254711" xlink:href="#m7614e78edf" y="509.072228"/>
     <use style="fill:#ff0000;stroke:#ff0000;" x="191.282443" xlink:href="#m7614e78edf" y="525.061652"/>
     <use style="fill:#ff0000;stroke:#ff0000;" x="191.952642" xlink:href="#m7614e78edf" y="516.491703"/>
     <use style="fill:#ff0000;stroke:#ff0000;" x="190.010079" xlink:href="#m7614e78edf" y="523.980196"/>
     <use style="fill:#ff0000;stroke:#ff0000;" x="182.341051" xlink:href="#m7614e78edf" y="509.104417"/>
     <use style="fill:#ff0000;stroke:#ff0000;" x="185.449846" xlink:href="#m7614e78edf" y="507.575915"/>
     <use style="fill:#ff0000;stroke:#ff0000;" x="186.672908" xlink:href="#m7614e78edf" y="518.462337"/>
     <use style="fill:#ff0000;stroke:#ff0000;" x="182.754585" xlink:href="#m7614e78edf" y="511.619368"/>
     <use style="fill:#ff0000;stroke:#ff0000;" x="189.307115" xlink:href="#m7614e78edf" y="513.950755"/>
     <use style="fill:#ff0000;stroke:#ff0000;" x="173.21147" xlink:href="#m7614e78edf" y="517.34155"/>
     <use style="fill:#ff0000;stroke:#ff0000;" x="197.642736" xlink:href="#m7614e78edf" y="524.461821"/>
     <use style="fill:#ff0000;stroke:#ff0000;" x="179.552454" xlink:href="#m7614e78edf" y="506.460678"/>
     <use style="fill:#ff0000;stroke:#ff0000;" x="171.95102" xlink:href="#m7614e78edf" y="518.313867"/>
     <use style="fill:#ff0000;stroke:#ff0000;" x="182.349787" xlink:href="#m7614e78edf" y="510.232087"/>
     <use style="fill:#ff0000;stroke:#ff0000;" x="172.182126" xlink:href="#m7614e78edf" y="503.888902"/>
     <use style="fill:#ff0000;stroke:#ff0000;" x="202.87948" xlink:href="#m7614e78edf" y="516.486561"/>
     <use style="fill:#ff0000;stroke:#ff0000;" x="186.716212" xlink:href="#m7614e78edf" y="506.818724"/>
     <use style="fill:#ff0000;stroke:#ff0000;" x="200.299816" xlink:href="#m7614e78edf" y="516.700426"/>
     <use style="fill:#ff0000;stroke:#ff0000;" x="183.97088" xlink:href="#m7614e78edf" y="512.861259"/>
     <use style="fill:#ff0000;stroke:#ff0000;" x="179.944142" xlink:href="#m7614e78edf" y="513.185458"/>
     <use style="fill:#ff0000;stroke:#ff0000;" x="178.940104" xlink:href="#m7614e78edf" y="515.64329"/>
     <use style="fill:#ff0000;stroke:#ff0000;" x="182.928659" xlink:href="#m7614e78edf" y="512.521434"/>
     <use style="fill:#ff0000;stroke:#ff0000;" x="183.725834" xlink:href="#m7614e78edf" y="511.786949"/>
     <use style="fill:#ff0000;stroke:#ff0000;" x="188.66392" xlink:href="#m7614e78edf" y="504.740788"/>
     <use style="fill:#ff0000;stroke:#ff0000;" x="177.341362" xlink:href="#m7614e78edf" y="526.247179"/>
     <use style="fill:#ff0000;stroke:#ff0000;" x="176.709667" xlink:href="#m7614e78edf" y="508.950728"/>
     <use style="fill:#ff0000;stroke:#ff0000;" x="180.045798" xlink:href="#m7614e78edf" y="510.874334"/>
     <use style="fill:#ff0000;stroke:#ff0000;" x="190.860544" xlink:href="#m7614e78edf" y="506.178647"/>
     <use style="fill:#ff0000;stroke:#ff0000;" x="192.143447" xlink:href="#m7614e78edf" y="509.292796"/>
     <use style="fill:#ff0000;stroke:#ff0000;" x="191.063703" xlink:href="#m7614e78edf" y="522.610739"/>
     <use style="fill:#ff0000;stroke:#ff0000;" x="170.953463" xlink:href="#m7614e78edf" y="511.96991"/>
    </g>
   </g>
   <g id="patch_9">
    <path d="M 45 640.8 
L 45 388.8 
" style="fill:none;stroke:#000000;stroke-linecap:square;stroke-linejoin:miter;stroke-width:0.8;"/>
   </g>
   <g id="patch_10">
    <path d="M 324 640.8 
L 324 388.8 
" style="fill:none;stroke:#000000;stroke-linecap:square;stroke-linejoin:miter;stroke-width:0.8;"/>
   </g>
   <g id="patch_11">
    <path d="M 45 640.8 
L 324 640.8 
" style="fill:none;stroke:#000000;stroke-linecap:square;stroke-linejoin:miter;stroke-width:0.8;"/>
   </g>
   <g id="patch_12">
    <path d="M 45 388.8 
L 324 388.8 
" style="fill:none;stroke:#000000;stroke-linecap:square;stroke-linejoin:miter;stroke-width:0.8;"/>
   </g>
   <g id="text_34">
    <!-- Tip-Tilt Filtering, vibration N = 0 -->
    <defs>
     <path d="M 4.890625 31.390625 
L 31.203125 31.390625 
L 31.203125 23.390625 
L 4.890625 23.390625 
z
" id="DejaVuSans-2d"/>
     <path d="M 45.40625 27.984375 
Q 45.40625 37.75 41.375 43.109375 
Q 37.359375 48.484375 30.078125 48.484375 
Q 22.859375 48.484375 18.828125 43.109375 
Q 14.796875 37.75 14.796875 27.984375 
Q 14.796875 18.265625 18.828125 12.890625 
Q 22.859375 7.515625 30.078125 7.515625 
Q 37.359375 7.515625 41.375 12.890625 
Q 45.40625 18.265625 45.40625 27.984375 
z
M 54.390625 6.78125 
Q 54.390625 -7.171875 48.1875 -13.984375 
Q 42 -20.796875 29.203125 -20.796875 
Q 24.46875 -20.796875 20.265625 -20.09375 
Q 16.0625 -19.390625 12.109375 -17.921875 
L 12.109375 -9.1875 
Q 16.0625 -11.328125 19.921875 -12.34375 
Q 23.78125 -13.375 27.78125 -13.375 
Q 36.625 -13.375 41.015625 -8.765625 
Q 45.40625 -4.15625 45.40625 5.171875 
L 45.40625 9.625 
Q 42.625 4.78125 38.28125 2.390625 
Q 33.9375 0 27.875 0 
Q 17.828125 0 11.671875 7.65625 
Q 5.515625 15.328125 5.515625 27.984375 
Q 5.515625 40.671875 11.671875 48.328125 
Q 17.828125 56 27.875 56 
Q 33.9375 56 38.28125 53.609375 
Q 42.625 51.21875 45.40625 46.390625 
L 45.40625 54.6875 
L 54.390625 54.6875 
z
" id="DejaVuSans-67"/>
     <path d="M 11.71875 12.40625 
L 22.015625 12.40625 
L 22.015625 4 
L 14.015625 -11.625 
L 7.71875 -11.625 
L 11.71875 4 
z
" id="DejaVuSans-2c"/>
     <path d="M 2.984375 54.6875 
L 12.5 54.6875 
L 29.59375 8.796875 
L 46.6875 54.6875 
L 56.203125 54.6875 
L 35.6875 0 
L 23.484375 0 
z
" id="DejaVuSans-76"/>
     <path d="M 48.6875 27.296875 
Q 48.6875 37.203125 44.609375 42.84375 
Q 40.53125 48.484375 33.40625 48.484375 
Q 26.265625 48.484375 22.1875 42.84375 
Q 18.109375 37.203125 18.109375 27.296875 
Q 18.109375 17.390625 22.1875 11.75 
Q 26.265625 6.109375 33.40625 6.109375 
Q 40.53125 6.109375 44.609375 11.75 
Q 48.6875 17.390625 48.6875 27.296875 
z
M 18.109375 46.390625 
Q 20.953125 51.265625 25.265625 53.625 
Q 29.59375 56 35.59375 56 
Q 45.5625 56 51.78125 48.09375 
Q 58.015625 40.1875 58.015625 27.296875 
Q 58.015625 14.40625 51.78125 6.484375 
Q 45.5625 -1.421875 35.59375 -1.421875 
Q 29.59375 -1.421875 25.265625 0.953125 
Q 20.953125 3.328125 18.109375 8.203125 
L 18.109375 0 
L 9.078125 0 
L 9.078125 75.984375 
L 18.109375 75.984375 
z
" id="DejaVuSans-62"/>
     <path d="M 10.59375 45.40625 
L 73.1875 45.40625 
L 73.1875 37.203125 
L 10.59375 37.203125 
z
M 10.59375 25.484375 
L 73.1875 25.484375 
L 73.1875 17.1875 
L 10.59375 17.1875 
z
" id="DejaVuSans-3d"/>
    </defs>
    <g transform="translate(87.852187 382.8)scale(0.12 -0.12)">
     <use xlink:href="#DejaVuSans-54"/>
     <use x="61.037109" xlink:href="#DejaVuSans-69"/>
     <use x="88.820312" xlink:href="#DejaVuSans-70"/>
     <use x="152.296875" xlink:href="#DejaVuSans-2d"/>
     <use x="188.240234" xlink:href="#DejaVuSans-54"/>
     <use x="249.277344" xlink:href="#DejaVuSans-69"/>
     <use x="277.060547" xlink:href="#DejaVuSans-6c"/>
     <use x="304.84375" xlink:href="#DejaVuSans-74"/>
     <use x="344.052734" xlink:href="#DejaVuSans-20"/>
     <use x="375.839844" xlink:href="#DejaVuSans-46"/>
     <use x="433.25" xlink:href="#DejaVuSans-69"/>
     <use x="461.033203" xlink:href="#DejaVuSans-6c"/>
     <use x="488.816406" xlink:href="#DejaVuSans-74"/>
     <use x="528.025391" xlink:href="#DejaVuSans-65"/>
     <use x="589.548828" xlink:href="#DejaVuSans-72"/>
     <use x="630.662109" xlink:href="#DejaVuSans-69"/>
     <use x="658.445312" xlink:href="#DejaVuSans-6e"/>
     <use x="721.824219" xlink:href="#DejaVuSans-67"/>
     <use x="785.300781" xlink:href="#DejaVuSans-2c"/>
     <use x="817.087891" xlink:href="#DejaVuSans-20"/>
     <use x="848.875" xlink:href="#DejaVuSans-76"/>
     <use x="908.054688" xlink:href="#DejaVuSans-69"/>
     <use x="935.837891" xlink:href="#DejaVuSans-62"/>
     <use x="999.314453" xlink:href="#DejaVuSans-72"/>
     <use x="1040.427734" xlink:href="#DejaVuSans-61"/>
     <use x="1101.707031" xlink:href="#DejaVuSans-74"/>
     <use x="1140.916016" xlink:href="#DejaVuSans-69"/>
     <use x="1168.699219" xlink:href="#DejaVuSans-6f"/>
     <use x="1229.880859" xlink:href="#DejaVuSans-6e"/>
     <use x="1293.259766" xlink:href="#DejaVuSans-20"/>
     <use x="1325.046875" xlink:href="#DejaVuSans-4e"/>
     <use x="1399.851562" xlink:href="#DejaVuSans-20"/>
     <use x="1431.638672" xlink:href="#DejaVuSans-3d"/>
     <use x="1515.427734" xlink:href="#DejaVuSans-20"/>
     <use x="1547.214844" xlink:href="#DejaVuSans-30"/>
    </g>
   </g>
   <g id="legend_2">
    <g id="patch_13">
     <path d="M 204.001562 426.15625 
L 317 426.15625 
Q 319 426.15625 319 424.15625 
L 319 395.8 
Q 319 393.8 317 393.8 
L 204.001562 393.8 
Q 202.001562 393.8 202.001562 395.8 
L 202.001562 424.15625 
Q 202.001562 426.15625 204.001562 426.15625 
z
" style="fill:#ffffff;opacity:0.8;stroke:#cccccc;stroke-linejoin:miter;"/>
    </g>
    <g id="line2d_40">
     <path d="M 206.001562 401.898438 
L 226.001562 401.898438 
" style="fill:none;stroke:#000000;stroke-linecap:square;stroke-width:1.5;"/>
    </g>
    <g id="line2d_41">
     <g>
      <use style="stroke:#000000;" x="216.001562" xlink:href="#m66bf2ce797" y="401.898438"/>
     </g>
    </g>
    <g id="text_35">
     <!-- Noisy residual -->
     <g transform="translate(234.001562 405.398438)scale(0.1 -0.1)">
      <use xlink:href="#DejaVuSans-4e"/>
      <use x="74.804688" xlink:href="#DejaVuSans-6f"/>
      <use x="135.986328" xlink:href="#DejaVuSans-69"/>
      <use x="163.769531" xlink:href="#DejaVuSans-73"/>
      <use x="215.869141" xlink:href="#DejaVuSans-79"/>
      <use x="275.048828" xlink:href="#DejaVuSans-20"/>
      <use x="306.835938" xlink:href="#DejaVuSans-72"/>
      <use x="347.917969" xlink:href="#DejaVuSans-65"/>
      <use x="409.441406" xlink:href="#DejaVuSans-73"/>
      <use x="461.541016" xlink:href="#DejaVuSans-69"/>
      <use x="489.324219" xlink:href="#DejaVuSans-64"/>
      <use x="552.800781" xlink:href="#DejaVuSans-75"/>
      <use x="616.179688" xlink:href="#DejaVuSans-61"/>
      <use x="677.458984" xlink:href="#DejaVuSans-6c"/>
     </g>
    </g>
    <g id="line2d_42">
     <path d="M 206.001562 416.576563 
L 226.001562 416.576563 
" style="fill:none;stroke:#ff0000;stroke-linecap:square;stroke-width:1.5;"/>
    </g>
    <g id="line2d_43">
     <g>
      <use style="fill:#ff0000;stroke:#ff0000;" x="216.001562" xlink:href="#m7614e78edf" y="416.576563"/>
     </g>
    </g>
    <g id="text_36">
     <!-- Filtered residual -->
     <g transform="translate(234.001562 420.076563)scale(0.1 -0.1)">
      <use xlink:href="#DejaVuSans-46"/>
      <use x="57.410156" xlink:href="#DejaVuSans-69"/>
      <use x="85.193359" xlink:href="#DejaVuSans-6c"/>
      <use x="112.976562" xlink:href="#DejaVuSans-74"/>
      <use x="152.185547" xlink:href="#DejaVuSans-65"/>
      <use x="213.708984" xlink:href="#DejaVuSans-72"/>
      <use x="254.791016" xlink:href="#DejaVuSans-65"/>
      <use x="316.314453" xlink:href="#DejaVuSans-64"/>
      <use x="379.791016" xlink:href="#DejaVuSans-20"/>
      <use x="411.578125" xlink:href="#DejaVuSans-72"/>
      <use x="452.660156" xlink:href="#DejaVuSans-65"/>
      <use x="514.183594" xlink:href="#DejaVuSans-73"/>
      <use x="566.283203" xlink:href="#DejaVuSans-69"/>
      <use x="594.066406" xlink:href="#DejaVuSans-64"/>
      <use x="657.542969" xlink:href="#DejaVuSans-75"/>
      <use x="720.921875" xlink:href="#DejaVuSans-61"/>
      <use x="782.201172" xlink:href="#DejaVuSans-6c"/>
     </g>
    </g>
   </g>
  </g>
 </g>
 <defs>
  <clipPath id="p7f41e109ce">
   <rect height="252" width="279" x="45" y="86.4"/>
  </clipPath>
  <clipPath id="p2a6799b64a">
   <rect height="252" width="279" x="45" y="388.8"/>
  </clipPath>
 </defs>
</svg>
