<?xml version="1.0" encoding="utf-8" standalone="no"?>
<!DOCTYPE svg PUBLIC "-//W3C//DTD SVG 1.1//EN"
  "http://www.w3.org/Graphics/SVG/1.1/DTD/svg11.dtd">
<!-- Created with matplotlib (https://matplotlib.org/) -->
<svg height="720pt" version="1.1" viewBox="0 0 720 720" width="720pt" xmlns="http://www.w3.org/2000/svg" xmlns:xlink="http://www.w3.org/1999/xlink">
 <defs>
  <style type="text/css">
*{stroke-linecap:butt;stroke-linejoin:round;}
  </style>
 </defs>
 <g id="figure_1">
  <g id="patch_1">
   <path d="M 0 720 
L 720 720 
L 720 0 
L 0 0 
z
" style="fill:none;"/>
  </g>
  <g id="axes_1">
   <g id="patch_2">
    <path d="M 90 630 
L 648 630 
L 648 86.4 
L 90 86.4 
z
" style="fill:none;"/>
   </g>
   <g id="matplotlib.axis_1">
    <g id="xtick_1">
     <g id="line2d_1">
      <defs>
       <path d="M 0 0 
L 0 3.5 
" id="m6d2ed5d425" style="stroke:#000000;stroke-width:0.8;"/>
      </defs>
      <g>
       <use style="stroke:#000000;stroke-width:0.8;" x="115.363636" xlink:href="#m6d2ed5d425" y="630"/>
      </g>
     </g>
     <g id="text_1">
      <!-- 0 -->
      <defs>
       <path d="M 31.34375 -1.8125 
Q 20.171875 -1.8125 13.25 8.703125 
Q 6.34375 19.234375 6.34375 36.1875 
Q 6.34375 53.265625 13.296875 63.671875 
Q 20.265625 74.078125 31.640625 74.078125 
Q 43.015625 74.078125 49.96875 63.671875 
Q 56.9375 53.265625 56.9375 36.328125 
Q 56.9375 18.953125 49.96875 8.5625 
Q 43.015625 -1.8125 31.34375 -1.8125 
z
M 31.453125 5.421875 
Q 46.734375 5.421875 46.734375 36.46875 
Q 46.734375 66.84375 31.640625 66.84375 
Q 16.609375 66.84375 16.609375 36.1875 
Q 16.609375 5.421875 31.453125 5.421875 
z
" id="LucidaGrande-48"/>
      </defs>
      <g transform="translate(112.729925 643.421909)scale(0.0833 -0.0833)">
       <use xlink:href="#LucidaGrande-48"/>
      </g>
     </g>
    </g>
    <g id="xtick_2">
     <g id="line2d_2">
      <g>
       <use style="stroke:#000000;stroke-width:0.8;" x="217.021498" xlink:href="#m6d2ed5d425" y="630"/>
      </g>
     </g>
     <g id="text_2">
      <!-- 100 -->
      <defs>
       <path d="M 15.046875 0 
L 15.046875 7.234375 
L 29.5 7.234375 
L 29.5 64.265625 
L 15.046875 60.640625 
L 15.046875 68.0625 
L 39.15625 74.078125 
L 39.15625 7.234375 
L 53.609375 7.234375 
L 53.609375 0 
z
" id="LucidaGrande-49"/>
      </defs>
      <g transform="translate(209.120362 643.421909)scale(0.0833 -0.0833)">
       <use xlink:href="#LucidaGrande-49"/>
       <use x="63.232422" xlink:href="#LucidaGrande-48"/>
       <use x="126.464844" xlink:href="#LucidaGrande-48"/>
      </g>
     </g>
    </g>
    <g id="xtick_3">
     <g id="line2d_3">
      <g>
       <use style="stroke:#000000;stroke-width:0.8;" x="318.679359" xlink:href="#m6d2ed5d425" y="630"/>
      </g>
     </g>
     <g id="text_3">
      <!-- 200 -->
      <defs>
       <path d="M 8.296875 0 
L 8.296875 8.453125 
Q 12.5 18.265625 25.296875 29.828125 
L 30.8125 34.765625 
Q 41.453125 44.390625 41.453125 53.859375 
Q 41.453125 59.90625 37.8125 63.375 
Q 34.1875 66.84375 27.828125 66.84375 
Q 20.3125 66.84375 10.109375 61.03125 
L 10.109375 69.53125 
Q 19.734375 74.078125 29.203125 74.078125 
Q 39.359375 74.078125 45.5 68.609375 
Q 51.65625 63.140625 51.65625 54.109375 
Q 51.65625 47.609375 48.546875 42.578125 
Q 45.453125 37.546875 37.015625 30.375 
L 33.296875 27.203125 
Q 21.734375 17.390625 19.921875 8.453125 
L 51.3125 8.453125 
L 51.3125 0 
z
" id="LucidaGrande-50"/>
      </defs>
      <g transform="translate(310.778224 643.421909)scale(0.0833 -0.0833)">
       <use xlink:href="#LucidaGrande-50"/>
       <use x="63.232422" xlink:href="#LucidaGrande-48"/>
       <use x="126.464844" xlink:href="#LucidaGrande-48"/>
      </g>
     </g>
    </g>
    <g id="xtick_4">
     <g id="line2d_4">
      <g>
       <use style="stroke:#000000;stroke-width:0.8;" x="420.33722" xlink:href="#m6d2ed5d425" y="630"/>
      </g>
     </g>
     <g id="text_4">
      <!-- 300 -->
      <defs>
       <path d="M 10.15625 0.53125 
L 10.15625 9.515625 
Q 20.515625 5.421875 26.46875 5.421875 
Q 33.34375 5.421875 37.671875 9.453125 
Q 42 13.484375 42 19.875 
Q 42 35.109375 20.65625 35.109375 
L 16.84375 35.109375 
L 16.84375 41.609375 
L 20.21875 41.65625 
Q 40.234375 41.65625 40.234375 55.765625 
Q 40.234375 66.84375 27.046875 66.84375 
Q 19.828125 66.84375 11.140625 62.796875 
L 11.140625 71.1875 
Q 19.671875 74.078125 27.734375 74.078125 
Q 49.90625 74.078125 49.90625 57.328125 
Q 49.90625 44.578125 34.8125 39.15625 
Q 52.296875 35.109375 52.296875 20.015625 
Q 52.296875 9.8125 45.546875 4 
Q 38.8125 -1.8125 27.046875 -1.8125 
Q 20.359375 -1.8125 10.15625 0.53125 
z
" id="LucidaGrande-51"/>
      </defs>
      <g transform="translate(412.436085 643.421909)scale(0.0833 -0.0833)">
       <use xlink:href="#LucidaGrande-51"/>
       <use x="63.232422" xlink:href="#LucidaGrande-48"/>
       <use x="126.464844" xlink:href="#LucidaGrande-48"/>
      </g>
     </g>
    </g>
    <g id="xtick_5">
     <g id="line2d_5">
      <g>
       <use style="stroke:#000000;stroke-width:0.8;" x="521.995081" xlink:href="#m6d2ed5d425" y="630"/>
      </g>
     </g>
     <g id="text_5">
      <!-- 400 -->
      <defs>
       <path d="M 37.640625 0 
L 37.640625 20.453125 
L 5.125 20.453125 
L 5.125 27.734375 
L 37.640625 72.265625 
L 46.6875 72.265625 
L 46.6875 28.328125 
L 56.34375 28.328125 
L 56.34375 20.453125 
L 46.6875 20.453125 
L 46.6875 0 
z
M 14.546875 28.328125 
L 38.28125 28.328125 
L 38.28125 60.453125 
z
" id="LucidaGrande-52"/>
      </defs>
      <g transform="translate(514.093946 643.421909)scale(0.0833 -0.0833)">
       <use xlink:href="#LucidaGrande-52"/>
       <use x="63.232422" xlink:href="#LucidaGrande-48"/>
       <use x="126.464844" xlink:href="#LucidaGrande-48"/>
      </g>
     </g>
    </g>
    <g id="xtick_6">
     <g id="line2d_6">
      <g>
       <use style="stroke:#000000;stroke-width:0.8;" x="623.652942" xlink:href="#m6d2ed5d425" y="630"/>
      </g>
     </g>
     <g id="text_6">
      <!-- 500 -->
      <defs>
       <path d="M 12.15625 -0.296875 
L 12.15625 8.296875 
Q 19.34375 5.421875 25.828125 5.421875 
Q 32.953125 5.421875 37.03125 9.609375 
Q 41.109375 13.8125 41.109375 21.1875 
Q 41.109375 37.453125 18.703125 37.453125 
Q 16.15625 37.453125 13.375 37.109375 
L 13.375 72.265625 
L 49.953125 72.265625 
L 49.953125 63.875 
L 21.828125 63.875 
L 21.828125 44.828125 
Q 35.75 44.828125 43.5625 38.421875 
Q 51.375 32.03125 51.375 20.703125 
Q 51.375 10.15625 44.265625 4.171875 
Q 37.15625 -1.8125 24.5625 -1.8125 
Q 19.09375 -1.8125 12.15625 -0.296875 
z
" id="LucidaGrande-53"/>
      </defs>
      <g transform="translate(615.751807 643.421909)scale(0.0833 -0.0833)">
       <use xlink:href="#LucidaGrande-53"/>
       <use x="63.232422" xlink:href="#LucidaGrande-48"/>
       <use x="126.464844" xlink:href="#LucidaGrande-48"/>
      </g>
     </g>
    </g>
    <g id="text_7">
     <!-- Time (ms) -->
     <defs>
      <path d="M 26.515625 0 
L 26.515625 64.59375 
L 0.875 64.59375 
L 0.875 72.265625 
L 62.40625 72.265625 
L 62.40625 64.59375 
L 36.765625 64.59375 
L 36.765625 0 
z
" id="LucidaGrande-84"/>
      <path d="M 9.625 0 
L 9.625 53.03125 
L 19.234375 53.03125 
L 19.234375 0 
z
M 9.625 62.640625 
L 9.625 72.265625 
L 19.234375 72.265625 
L 19.234375 62.640625 
z
" id="LucidaGrande-105"/>
      <path d="M 9.625 0 
L 9.625 53.03125 
L 19.234375 53.03125 
L 19.234375 43.0625 
Q 26.265625 54.203125 37.3125 54.203125 
Q 47.953125 54.203125 51.8125 43.0625 
Q 58.640625 54.25 69.578125 54.25 
Q 76.609375 54.25 80.46875 50.125 
Q 84.328125 46 84.328125 38.578125 
L 84.328125 0 
L 74.65625 0 
L 74.65625 37.0625 
Q 74.65625 46.140625 67.484375 46.140625 
Q 60.015625 46.140625 51.8125 35.546875 
L 51.8125 0 
L 42.140625 0 
L 42.140625 37.0625 
Q 42.140625 46.1875 34.8125 46.1875 
Q 27.546875 46.1875 19.234375 35.546875 
L 19.234375 0 
z
" id="LucidaGrande-109"/>
      <path d="M 48.484375 1.703125 
Q 38.8125 -1.21875 31.9375 -1.21875 
Q 20.21875 -1.21875 12.8125 6.5625 
Q 5.421875 14.359375 5.421875 26.765625 
Q 5.421875 38.8125 11.9375 46.53125 
Q 18.453125 54.25 28.609375 54.25 
Q 38.234375 54.25 43.484375 47.40625 
Q 48.734375 40.578125 48.734375 27.984375 
L 48.6875 25 
L 15.234375 25 
Q 17.328125 6.109375 33.734375 6.109375 
Q 39.75 6.109375 48.484375 9.328125 
z
M 15.671875 32.234375 
L 39.0625 32.234375 
Q 39.0625 47.015625 28.03125 47.015625 
Q 16.9375 47.015625 15.671875 32.234375 
z
" id="LucidaGrande-101"/>
      <path id="LucidaGrande-32"/>
      <path d="M 28.90625 -7.8125 
L 28.90625 -14.453125 
Q 18.359375 -7.28125 12.171875 5.046875 
Q 6 17.390625 6 31.34375 
Q 6 45.265625 12.171875 57.59375 
Q 18.359375 69.921875 28.90625 77.09375 
L 28.90625 70.453125 
Q 21.734375 62.640625 18.671875 53.65625 
Q 15.625 44.671875 15.625 31.34375 
Q 15.625 17.96875 18.671875 8.984375 
Q 21.734375 0 28.90625 -7.8125 
z
" id="LucidaGrande-40"/>
      <path d="M 23.6875 -1.21875 
Q 17.09375 -1.21875 7.671875 1.859375 
L 7.671875 10.6875 
Q 17.09375 6 24.078125 6 
Q 28.21875 6 30.953125 8.25 
Q 33.6875 10.5 33.6875 13.875 
Q 33.6875 18.796875 26.03125 22.015625 
L 20.40625 24.421875 
Q 7.953125 29.59375 7.953125 39.3125 
Q 7.953125 46.234375 12.859375 50.21875 
Q 17.78125 54.203125 26.3125 54.203125 
Q 30.765625 54.203125 37.3125 52.984375 
L 39.3125 52.59375 
L 39.3125 44.578125 
Q 31.25 46.96875 26.515625 46.96875 
Q 17.234375 46.96875 17.234375 40.234375 
Q 17.234375 35.890625 24.265625 32.90625 
L 28.90625 30.953125 
Q 36.765625 27.640625 40.03125 23.953125 
Q 43.3125 20.265625 43.3125 14.75 
Q 43.3125 7.765625 37.796875 3.265625 
Q 32.28125 -1.21875 23.6875 -1.21875 
z
" id="LucidaGrande-115"/>
      <path d="M 3.609375 -7.8125 
L 3.609375 -14.453125 
Q 14.15625 -7.28125 20.328125 5.046875 
Q 26.515625 17.390625 26.515625 31.34375 
Q 26.515625 45.265625 20.328125 57.59375 
Q 14.15625 69.921875 3.609375 77.09375 
L 3.609375 70.453125 
Q 10.796875 62.640625 13.84375 53.65625 
Q 16.890625 44.671875 16.890625 31.34375 
Q 16.890625 17.96875 13.84375 8.984375 
Q 10.796875 0 3.609375 -7.8125 
z
" id="LucidaGrande-41"/>
     </defs>
     <g transform="translate(344.888281 656.737413)scale(0.1 -0.1)">
      <use xlink:href="#LucidaGrande-84"/>
      <use x="63.232422" xlink:href="#LucidaGrande-105"/>
      <use x="92.138672" xlink:href="#LucidaGrande-109"/>
      <use x="185.498047" xlink:href="#LucidaGrande-101"/>
      <use x="241.210938" xlink:href="#LucidaGrande-32"/>
      <use x="272.851562" xlink:href="#LucidaGrande-40"/>
      <use x="305.371094" xlink:href="#LucidaGrande-109"/>
      <use x="398.730469" xlink:href="#LucidaGrande-115"/>
      <use x="449.707031" xlink:href="#LucidaGrande-41"/>
     </g>
    </g>
   </g>
   <g id="matplotlib.axis_2">
    <g id="ytick_1">
     <g id="line2d_7">
      <defs>
       <path d="M 0 0 
L -3.5 0 
" id="m6447c3c450" style="stroke:#000000;stroke-width:0.8;"/>
      </defs>
      <g>
       <use style="stroke:#000000;stroke-width:0.8;" x="90" xlink:href="#m6447c3c450" y="626.065614"/>
      </g>
     </g>
     <g id="text_8">
      <!-- −3 -->
      <defs>
       <path d="M 10.84375 25.296875 
L 10.84375 32.515625 
L 68.65625 32.515625 
L 68.65625 25.296875 
z
" id="LucidaGrande-8722"/>
      </defs>
      <g transform="translate(71.106322 629.276568)scale(0.0833 -0.0833)">
       <use xlink:href="#LucidaGrande-8722"/>
       <use x="79.541016" xlink:href="#LucidaGrande-51"/>
      </g>
     </g>
    </g>
    <g id="ytick_2">
     <g id="line2d_8">
      <g>
       <use style="stroke:#000000;stroke-width:0.8;" x="90" xlink:href="#m6447c3c450" y="536.00744"/>
      </g>
     </g>
     <g id="text_9">
      <!-- −2 -->
      <g transform="translate(71.106322 539.218395)scale(0.0833 -0.0833)">
       <use xlink:href="#LucidaGrande-8722"/>
       <use x="79.541016" xlink:href="#LucidaGrande-50"/>
      </g>
     </g>
    </g>
    <g id="ytick_3">
     <g id="line2d_9">
      <g>
       <use style="stroke:#000000;stroke-width:0.8;" x="90" xlink:href="#m6447c3c450" y="445.949267"/>
      </g>
     </g>
     <g id="text_10">
      <!-- −1 -->
      <g transform="translate(71.106322 449.160222)scale(0.0833 -0.0833)">
       <use xlink:href="#LucidaGrande-8722"/>
       <use x="79.541016" xlink:href="#LucidaGrande-49"/>
      </g>
     </g>
    </g>
    <g id="ytick_4">
     <g id="line2d_10">
      <g>
       <use style="stroke:#000000;stroke-width:0.8;" x="90" xlink:href="#m6447c3c450" y="355.891094"/>
      </g>
     </g>
     <g id="text_11">
      <!-- 0 -->
      <g transform="translate(77.732577 359.102049)scale(0.0833 -0.0833)">
       <use xlink:href="#LucidaGrande-48"/>
      </g>
     </g>
    </g>
    <g id="ytick_5">
     <g id="line2d_11">
      <g>
       <use style="stroke:#000000;stroke-width:0.8;" x="90" xlink:href="#m6447c3c450" y="265.832921"/>
      </g>
     </g>
     <g id="text_12">
      <!-- 1 -->
      <g transform="translate(77.732577 269.043876)scale(0.0833 -0.0833)">
       <use xlink:href="#LucidaGrande-49"/>
      </g>
     </g>
    </g>
    <g id="ytick_6">
     <g id="line2d_12">
      <g>
       <use style="stroke:#000000;stroke-width:0.8;" x="90" xlink:href="#m6447c3c450" y="175.774748"/>
      </g>
     </g>
     <g id="text_13">
      <!-- 2 -->
      <g transform="translate(77.732577 178.985703)scale(0.0833 -0.0833)">
       <use xlink:href="#LucidaGrande-50"/>
      </g>
     </g>
    </g>
    <g id="text_14">
     <!-- Deviation (mas) -->
     <defs>
      <path d="M 9.328125 0 
L 9.328125 72.265625 
L 33.34375 72.265625 
Q 44.09375 72.265625 50.703125 69.875 
Q 57.328125 67.484375 62.15625 61.765625 
Q 69.828125 52.6875 69.828125 37.84375 
Q 69.828125 19.828125 60.296875 9.90625 
Q 50.78125 0 33.5 0 
z
M 19.578125 7.671875 
L 32.71875 7.671875 
Q 46.78125 7.671875 52.640625 15.234375 
Q 58.9375 23.296875 58.9375 36.859375 
Q 58.9375 49.609375 52.734375 56.890625 
Q 48.96875 61.328125 43.75 62.953125 
Q 38.53125 64.59375 28.03125 64.59375 
L 19.578125 64.59375 
z
" id="LucidaGrande-68"/>
      <path d="M 20.609375 0 
L 0.875 53.03125 
L 10.5 53.03125 
L 25.921875 11.765625 
L 42.1875 53.03125 
L 51.171875 53.03125 
L 30.21875 0 
z
" id="LucidaGrande-118"/>
      <path d="M 36.96875 6.734375 
Q 28.328125 -1.21875 20.3125 -1.21875 
Q 13.71875 -1.21875 9.375 2.90625 
Q 5.03125 7.03125 5.03125 13.328125 
Q 5.03125 22.015625 12.328125 26.671875 
Q 19.625 31.34375 33.25 31.34375 
L 35.546875 31.34375 
L 35.546875 37.75 
Q 35.546875 46.96875 26.078125 46.96875 
Q 18.453125 46.96875 9.625 42.28125 
L 9.625 50.25 
Q 19.34375 54.203125 27.828125 54.203125 
Q 36.71875 54.203125 40.9375 50.1875 
Q 45.171875 46.1875 45.171875 37.75 
L 45.171875 13.71875 
Q 45.171875 5.46875 50.25 5.46875 
Q 50.875 5.46875 52.09375 5.671875 
L 52.78125 0.34375 
Q 49.515625 -1.21875 45.5625 -1.21875 
Q 38.8125 -1.21875 36.96875 6.734375 
z
M 35.546875 11.96875 
L 35.546875 25.6875 
L 32.328125 25.78125 
Q 24.421875 25.78125 19.53125 22.78125 
Q 14.65625 19.78125 14.65625 14.890625 
Q 14.65625 11.421875 17.09375 9.03125 
Q 19.53125 6.640625 23.046875 6.640625 
Q 29.046875 6.640625 35.546875 11.96875 
z
" id="LucidaGrande-97"/>
      <path d="M 25.53125 -1.21875 
Q 18.21875 -1.21875 14.109375 2.96875 
Q 10.015625 7.171875 10.015625 14.65625 
L 10.015625 45.796875 
L 3.375 45.796875 
L 3.375 53.03125 
L 10.015625 53.03125 
L 10.015625 62.640625 
L 19.625 63.578125 
L 19.625 53.03125 
L 33.5 53.03125 
L 33.5 45.796875 
L 19.625 45.796875 
L 19.625 16.40625 
Q 19.625 6 28.609375 6 
Q 30.515625 6 33.25 6.640625 
L 33.25 0 
Q 28.8125 -1.21875 25.53125 -1.21875 
z
" id="LucidaGrande-116"/>
      <path d="M 30.375 -1.21875 
Q 19 -1.21875 12.203125 6.328125 
Q 5.421875 13.875 5.421875 26.515625 
Q 5.421875 39.3125 12.234375 46.75 
Q 19.046875 54.203125 30.71875 54.203125 
Q 42.390625 54.203125 49.1875 46.75 
Q 56 39.3125 56 26.609375 
Q 56 13.625 49.15625 6.203125 
Q 42.328125 -1.21875 30.375 -1.21875 
z
M 30.515625 6 
Q 45.796875 6 45.796875 26.609375 
Q 45.796875 46.96875 30.71875 46.96875 
Q 15.671875 46.96875 15.671875 26.515625 
Q 15.671875 6 30.515625 6 
z
" id="LucidaGrande-111"/>
      <path d="M 9.625 0 
L 9.625 53.03125 
L 19.234375 53.03125 
L 19.234375 43.0625 
Q 26.859375 54.203125 37.890625 54.203125 
Q 44.78125 54.203125 48.875 49.828125 
Q 52.984375 45.453125 52.984375 38.09375 
L 52.984375 0 
L 43.359375 0 
L 43.359375 34.96875 
Q 43.359375 40.875 41.625 43.390625 
Q 39.890625 45.90625 35.890625 45.90625 
Q 27.046875 45.90625 19.234375 34.328125 
L 19.234375 0 
z
" id="LucidaGrande-110"/>
     </defs>
     <g transform="translate(65.178197 395.827344)rotate(-90)scale(0.1 -0.1)">
      <use xlink:href="#LucidaGrande-68"/>
      <use x="74.902344" xlink:href="#LucidaGrande-101"/>
      <use x="130.615234" xlink:href="#LucidaGrande-118"/>
      <use x="182.373047" xlink:href="#LucidaGrande-105"/>
      <use x="211.279297" xlink:href="#LucidaGrande-97"/>
      <use x="266.503906" xlink:href="#LucidaGrande-116"/>
      <use x="303.90625" xlink:href="#LucidaGrande-105"/>
      <use x="332.8125" xlink:href="#LucidaGrande-111"/>
      <use x="394.238281" xlink:href="#LucidaGrande-110"/>
      <use x="456.298828" xlink:href="#LucidaGrande-32"/>
      <use x="487.939453" xlink:href="#LucidaGrande-40"/>
      <use x="520.458984" xlink:href="#LucidaGrande-109"/>
      <use x="613.818359" xlink:href="#LucidaGrande-97"/>
      <use x="669.042969" xlink:href="#LucidaGrande-115"/>
      <use x="720.019531" xlink:href="#LucidaGrande-41"/>
     </g>
    </g>
   </g>
   <g id="line2d_13">
    <path clip-path="url(#pe6ff58cbdb)" d="M 115.363636 471.910243 
L 116.380215 382.260986 
L 117.396794 323.463614 
L 118.413372 419.81966 
L 119.429951 431.782583 
L 120.446529 420.970044 
L 121.463108 525.511434 
L 122.479687 483.433743 
L 123.496265 277.637913 
L 124.512844 230.081661 
L 125.529422 240.215309 
L 126.546001 137.961309 
L 127.56258 192.570339 
L 128.579158 403.329786 
L 129.595737 444.353273 
L 130.612316 424.907343 
L 131.628894 490.856364 
L 132.645473 405.014798 
L 133.662051 262.26033 
L 135.695209 465.28511 
L 136.711787 382.896804 
L 137.728366 398.853619 
L 138.744944 455.760253 
L 139.761523 300.356764 
L 140.778102 191.026475 
L 141.79468 265.823883 
L 142.811259 244.468613 
L 143.827837 232.639536 
L 144.844416 429.28988 
L 145.860995 501.708047 
L 146.877573 369.881582 
L 147.894152 393.35988 
L 148.910731 460.382722 
L 149.927309 343.847393 
L 150.943888 326.184447 
L 151.960466 431.376078 
L 153.993624 278.374637 
L 155.010202 393.898963 
L 156.026781 365.089481 
L 157.043359 227.318611 
L 159.076517 404.173734 
L 160.093095 291.939826 
L 161.109674 310.711741 
L 162.126253 421.987672 
L 163.142831 351.496565 
L 164.15941 350.675226 
L 165.175988 503.505901 
L 166.192567 440.03035 
L 167.209146 289.483903 
L 168.225724 363.268657 
L 169.242303 377.078313 
L 170.258881 241.783061 
L 171.27546 307.533419 
L 172.292039 427.647028 
L 173.308617 341.299044 
L 174.325196 336.026226 
L 175.341774 428.627124 
L 176.358353 301.41601 
L 177.374932 202.029405 
L 178.39151 366.577433 
L 179.408089 423.837705 
L 180.424668 340.175536 
L 181.441246 433.620859 
L 182.457825 485.264352 
L 183.474403 331.62627 
L 184.490982 323.983449 
L 185.507561 409.280051 
L 186.524139 297.141799 
L 187.540718 267.564138 
L 188.557296 430.790334 
L 189.573875 392.389553 
L 190.590454 251.298464 
L 191.607032 328.631919 
L 192.623611 363.010353 
L 193.640189 261.456661 
L 194.656768 345.980436 
L 195.673347 452.620812 
L 196.689925 342.158421 
L 197.706504 345.770389 
L 198.723083 492.677598 
L 199.739661 419.687309 
L 200.75624 317.657884 
L 201.772818 421.981252 
L 202.789397 404.69982 
L 203.805976 254.802523 
L 204.822554 293.033086 
L 205.839133 324.113117 
L 206.855711 207.990992 
L 207.87229 281.763397 
L 208.888869 451.461715 
L 209.905447 377.728706 
L 210.922026 319.332461 
L 211.938604 439.661087 
L 212.955183 413.733294 
L 213.971762 324.634043 
L 214.98834 436.255333 
L 216.004919 477.090171 
L 217.021498 356.879827 
L 219.054655 411.394667 
L 220.071233 217.675471 
L 221.087812 149.99155 
L 222.104391 286.781447 
L 223.120969 290.195175 
L 224.137548 279.969499 
L 225.154126 434.562156 
L 226.170705 461.805487 
L 227.187284 369.95717 
L 228.203862 449.05866 
L 229.220441 495.535673 
L 230.237019 358.492061 
L 231.253598 360.396648 
L 232.270177 458.673926 
L 234.303334 251.242953 
L 235.319913 306.308313 
L 236.336491 258.037019 
L 237.35307 184.179573 
L 238.369648 301.408253 
L 239.386227 358.368087 
L 240.402806 283.344526 
L 241.419384 379.978904 
L 242.435963 528.566664 
L 243.452541 480.079768 
L 244.46912 458.297932 
L 245.485699 522.983748 
L 246.502277 421.569237 
L 247.518856 288.253325 
L 248.535435 305.559544 
L 249.552013 254.153084 
L 250.568592 155.455183 
L 252.601749 370.48847 
L 253.618328 301.067697 
L 254.634906 298.593523 
L 255.651485 385.936967 
L 256.668063 363.936832 
L 257.684642 384.81322 
L 258.701221 529.332595 
L 259.717799 543.639344 
L 260.734378 464.142425 
L 261.750956 478.159979 
L 262.767535 406.093103 
L 263.784114 197.554831 
L 264.800692 137.456414 
L 265.817271 203.9349 
L 266.83385 207.521218 
L 267.850428 266.878242 
L 268.867007 394.306505 
L 269.883585 389.215079 
L 270.900164 357.118214 
L 271.916743 449.036876 
L 272.933321 480.306043 
L 273.9499 420.972482 
L 275.983057 513.392984 
L 276.999636 417.114329 
L 278.016214 331.671679 
L 279.032793 296.257808 
L 280.049371 195.793345 
L 281.06595 150.737328 
L 282.082529 236.347151 
L 283.099107 268.518447 
L 284.115686 255.912466 
L 286.148843 475.983798 
L 287.165422 488.911822 
L 289.198579 539.54956 
L 291.231736 376.032906 
L 292.248315 352.358716 
L 294.281472 205.919307 
L 296.314629 306.3003 
L 297.331208 265.963517 
L 298.347786 250.297731 
L 299.364365 280.62487 
L 300.380944 302.048486 
L 301.397522 383.573478 
L 302.414101 520.498231 
L 303.43068 574.835868 
L 304.447258 550.980412 
L 305.463837 523.337909 
L 306.480415 426.402317 
L 307.496994 256.584105 
L 308.513573 164.69563 
L 309.530151 185.22747 
L 310.54673 230.993909 
L 312.579887 353.618745 
L 313.596466 340.485472 
L 314.613044 301.604449 
L 315.629623 337.265376 
L 316.646201 400.182041 
L 317.66278 433.538718 
L 318.679359 493.550728 
L 319.695937 560.19874 
L 320.712516 526.473079 
L 322.745673 305.435444 
L 323.762252 208.844954 
L 324.77883 154.234307 
L 325.795409 202.540378 
L 326.811988 277.807361 
L 327.828566 294.349708 
L 328.845145 326.543859 
L 329.861723 404.593686 
L 330.878302 431.22418 
L 331.894881 420.334293 
L 332.911459 452.880751 
L 333.928038 471.672039 
L 334.944617 439.014143 
L 335.961195 426.221926 
L 336.977774 399.070447 
L 337.994352 302.287268 
L 339.010931 252.266051 
L 340.02751 285.266124 
L 341.044088 264.596908 
L 342.060667 214.089529 
L 343.077245 255.041859 
L 344.093824 317.512428 
L 345.110403 351.674488 
L 346.126981 443.109732 
L 347.14356 521.430825 
L 348.160138 482.656298 
L 349.176717 448.250388 
L 350.193296 452.749943 
L 351.209874 359.517511 
L 352.226453 255.551911 
L 353.243032 288.674059 
L 354.25961 326.19863 
L 355.276189 296.282353 
L 356.292767 316.99563 
L 357.309346 323.502253 
L 358.325925 246.116745 
L 359.342503 266.111973 
L 360.359082 387.487977 
L 361.37566 411.069453 
L 362.392239 417.497245 
L 363.408818 512.402435 
L 364.425396 505.592894 
L 365.441975 384.429558 
L 366.458553 348.693853 
L 367.475132 326.087579 
L 368.491711 244.193334 
L 369.508289 281.844014 
L 370.524868 371.987349 
L 371.541447 307.229922 
L 372.558025 258.205459 
L 373.574604 347.986958 
L 374.591182 360.510906 
L 375.607761 321.871589 
L 376.62434 411.3171 
L 377.640918 458.999488 
L 378.657497 386.603623 
L 379.674075 408.315565 
L 380.690654 440.175684 
L 381.707233 321.341246 
L 382.723811 289.253425 
L 383.74039 397.146532 
L 384.756968 364.026794 
L 385.773547 273.268168 
L 386.790126 320.226327 
L 387.806704 314.850688 
L 388.823283 246.223135 
L 390.85644 443.557154 
L 391.873019 372.351526 
L 392.889597 388.704973 
L 393.906176 476.748208 
L 395.939333 272.63848 
L 396.955912 359.123158 
L 397.97249 373.027624 
L 398.989069 324.299538 
L 400.005648 416.975989 
L 401.022226 427.153442 
L 402.038805 272.022694 
L 403.055383 276.618478 
L 404.071962 364.839071 
L 405.088541 282.497621 
L 406.105119 272.79455 
L 407.121698 423.997409 
L 408.138277 421.149547 
L 409.154855 352.782033 
L 410.171434 430.769726 
L 411.188012 407.822272 
L 412.204591 276.018265 
L 413.22117 348.271136 
L 414.237748 438.503247 
L 415.254327 324.592476 
L 416.270905 315.250583 
L 417.287484 433.073941 
L 418.304063 364.884589 
L 419.320641 284.171792 
L 420.33722 362.252687 
L 421.353799 313.254579 
L 422.370377 205.539147 
L 423.386956 331.309473 
L 424.403534 429.000634 
L 425.420113 343.523913 
L 426.436692 406.720021 
L 427.45327 530.085548 
L 428.469849 412.152873 
L 429.486427 314.99764 
L 430.503006 374.446029 
L 431.519585 304.262498 
L 432.536163 243.556588 
L 433.552742 407.826211 
L 434.56932 447.659364 
L 435.585899 291.402258 
L 436.602478 302.888288 
L 437.619056 344.812215 
L 438.635635 207.059189 
L 439.652214 223.357743 
L 440.668792 417.904012 
L 441.685371 444.404204 
L 442.701949 455.437263 
L 443.718528 584.401701 
L 444.735107 488.830196 
L 445.751685 260.466934 
L 446.768264 283.931806 
L 447.784842 335.54027 
L 448.801421 234.778834 
L 449.818 295.262237 
L 450.834578 423.950759 
L 451.851157 321.28259 
L 452.867735 257.803223 
L 453.884314 353.309503 
L 455.917471 240.492658 
L 456.93405 448.211018 
L 457.950629 557.955713 
L 458.967207 451.232727 
L 461.000364 490.92369 
L 462.016943 307.644191 
L 463.033522 246.22272 
L 464.0501 324.849558 
L 465.066679 226.065939 
L 466.083257 168.13024 
L 467.099836 335.100495 
L 468.116415 363.553528 
L 469.132993 268.857613 
L 470.149572 381.961606 
L 471.16615 479.951074 
L 472.182729 391.118529 
L 473.199308 426.602285 
L 474.215886 515.087683 
L 475.232465 396.136131 
L 476.249044 350.336508 
L 477.265622 468.612063 
L 478.282201 382.72816 
L 479.298779 207.971864 
L 480.315358 242.434393 
L 481.331937 237.629812 
L 482.348515 131.766892 
L 483.365094 241.497131 
L 484.381672 409.052793 
L 485.398251 397.667849 
L 486.41483 469.945307 
L 487.431408 605.290909 
L 488.447987 483.904959 
L 489.464565 335.471336 
L 490.481144 404.700806 
L 491.497723 398.312856 
L 492.514301 297.860668 
L 493.53088 356.726858 
L 494.547459 363.497811 
L 495.564037 194.979996 
L 496.580616 177.222332 
L 497.597194 264.651402 
L 498.613773 209.542182 
L 499.630352 256.690914 
L 500.64693 492.399898 
L 501.663509 557.161613 
L 502.680087 491.024994 
L 503.696666 532.111919 
L 504.713245 485.822257 
L 505.729823 327.345853 
L 506.746402 343.108425 
L 507.762981 386.294856 
L 508.779559 249.115868 
L 509.796138 201.586923 
L 510.812716 285.297374 
L 511.829295 227.029692 
L 512.845874 176.999894 
L 513.862452 319.456672 
L 514.879031 404.590749 
L 515.895609 405.234737 
L 516.912188 519.05176 
L 517.928767 559.301097 
L 518.945345 423.930609 
L 519.961924 405.713139 
L 520.978502 473.778945 
L 523.01166 281.323551 
L 524.028238 302.294533 
L 525.044817 226.849412 
L 526.061396 129.350047 
L 528.094553 280.264214 
L 529.111131 287.610574 
L 531.144289 574.363987 
L 533.177446 440.480893 
L 534.194024 464.646275 
L 536.227182 340.667166 
L 537.24376 388.623467 
L 538.260339 352.61257 
L 539.276917 233.76234 
L 540.293496 233.757552 
L 541.310075 245.304411 
L 542.326653 169.362364 
L 543.343232 212.669052 
L 544.359811 374.915136 
L 545.376389 446.999329 
L 546.392968 485.092731 
L 547.409546 553.479067 
L 548.426125 509.387477 
L 549.442704 411.792598 
L 550.459282 416.019563 
L 551.475861 393.159681 
L 552.492439 276.955551 
L 553.509018 244.795797 
L 554.525597 278.375663 
L 555.542175 239.635172 
L 556.558754 225.064686 
L 557.575332 291.918041 
L 558.591911 319.34858 
L 559.60849 341.932744 
L 560.625068 435.681454 
L 561.641647 472.903862 
L 562.658226 429.475211 
L 563.674804 454.362621 
L 564.691383 503.268853 
L 565.707961 450.988371 
L 566.72454 373.027692 
L 567.741119 321.68072 
L 568.757697 233.872383 
L 569.774276 172.398863 
L 570.790854 212.328771 
L 571.807433 261.842795 
L 572.824012 294.579042 
L 574.857169 472.894624 
L 575.873747 446.085565 
L 576.890326 396.166242 
L 577.906905 398.542638 
L 578.923483 402.208078 
L 579.940062 411.152982 
L 580.956641 444.797961 
L 581.973219 421.820719 
L 582.989798 331.205768 
L 584.006376 273.209506 
L 585.022955 245.964358 
L 586.039534 197.637472 
L 587.056112 202.051939 
L 589.089269 402.728246 
L 590.105848 446.01734 
L 591.122427 470.799585 
L 592.139005 454.575161 
L 593.155584 396.152832 
L 594.172163 381.763576 
L 595.188741 399.665198 
L 596.20532 362.087802 
L 597.221898 319.946309 
L 598.238477 341.06303 
L 599.255056 341.848178 
L 600.271634 291.603628 
L 601.288213 280.298932 
L 602.304791 296.440811 
L 603.32137 290.281542 
L 604.337949 326.576146 
L 605.354527 396.484972 
L 606.371106 400.766462 
L 607.387684 399.616579 
L 608.404263 466.801655 
L 609.420842 477.475952 
L 610.43742 389.49519 
L 611.453999 335.423936 
L 612.470578 311.500991 
L 613.487156 260.16966 
L 614.503735 277.333982 
L 615.520313 354.840619 
L 616.536892 356.244359 
L 617.553471 343.285953 
L 618.570049 393.489943 
L 619.586628 368.421366 
L 620.603206 274.864826 
L 621.619785 297.562662 
L 622.636364 381.455313 
L 622.636364 381.455313 
" style="fill:none;stroke:#1976d2;stroke-linecap:square;stroke-width:1.5;"/>
   </g>
   <g id="line2d_14">
    <path clip-path="url(#pe6ff58cbdb)" d="M 115.363636 464.677205 
L 116.380215 423.741834 
L 117.396794 309.200523 
L 118.413372 372.921911 
L 119.429951 458.975533 
L 120.446529 418.05857 
L 121.463108 472.253166 
L 122.479687 517.765406 
L 123.496265 325.495386 
L 124.512844 189.599612 
L 125.529422 246.714068 
L 126.546001 198.471323 
L 127.56258 157.263637 
L 128.579158 359.836767 
L 129.595737 490.977395 
L 130.612316 422.196736 
L 131.628894 444.913945 
L 132.645473 448.821681 
L 133.662051 283.507766 
L 134.67863 291.698099 
L 135.695209 469.084981 
L 136.711787 433.961897 
L 137.728366 353.470391 
L 138.744944 437.889089 
L 139.761523 371.24655 
L 140.778102 183.719774 
L 141.79468 224.556602 
L 142.811259 295.786034 
L 143.827837 237.949952 
L 144.844416 359.325704 
L 145.860995 531.126795 
L 146.877573 418.428908 
L 147.894152 331.825126 
L 148.910731 447.332421 
L 149.927309 404.076311 
L 150.943888 291.148408 
L 151.960466 392.922121 
L 152.977045 413.559086 
L 153.993624 274.825776 
L 155.010202 334.841236 
L 156.026781 416.374573 
L 157.043359 264.382423 
L 158.059938 249.26542 
L 159.076517 413.729998 
L 160.093095 355.769579 
L 161.109674 264.203376 
L 162.126253 394.356426 
L 163.142831 411.474139 
L 164.15941 321.603148 
L 165.175988 446.276797 
L 166.192567 502.215501 
L 167.209146 309.761604 
L 168.225724 292.966612 
L 169.242303 406.936639 
L 170.258881 295.311909 
L 171.27546 244.998946 
L 172.292039 415.033999 
L 173.308617 406.343827 
L 174.325196 301.544746 
L 175.341774 394.840856 
L 176.358353 376.521443 
L 177.374932 198.958211 
L 178.39151 291.316276 
L 179.408089 463.699752 
L 180.424668 375.859115 
L 181.441246 363.303184 
L 182.457825 493.202903 
L 183.474403 393.266906 
L 184.490982 274.051533 
L 185.507561 385.277875 
L 186.524139 367.702285 
L 187.540718 242.628768 
L 188.557296 370.873368 
L 189.573875 457.34073 
L 190.590454 279.379698 
L 191.607032 260.776314 
L 192.623611 388.244886 
L 193.640189 310.153845 
L 194.656768 283.976035 
L 195.673347 444.676915 
L 196.689925 408.00455 
L 197.706504 301.556179 
L 198.723083 443.166617 
L 199.739661 486.007607 
L 200.75624 318.023501 
L 201.772818 353.373595 
L 202.789397 448.241522 
L 203.805976 298.2273 
L 204.822554 236.164787 
L 205.839133 339.766132 
L 206.855711 267.299482 
L 207.87229 225.888439 
L 208.888869 422.545076 
L 209.905447 449.928696 
L 210.922026 302.89424 
L 212.955183 462.334735 
L 213.971762 339.703426 
L 214.98834 365.551464 
L 216.004919 496.988439 
L 217.021498 401.187066 
L 218.038076 329.619008 
L 219.054655 413.998842 
L 220.071233 296.6906 
L 221.087812 123.156457 
L 222.104391 242.499753 
L 223.120969 348.298245 
L 224.137548 282.291619 
L 225.154126 373.467893 
L 226.170705 495.379999 
L 227.187284 396.362944 
L 228.203862 382.814879 
L 229.220441 500.818129 
L 230.237019 411.762397 
L 231.253598 310.520426 
L 232.270177 429.035257 
L 233.286755 419.504491 
L 234.303334 248.996261 
L 235.319913 265.055171 
L 236.336491 308.443647 
L 237.35307 204.608053 
L 238.369648 248.092533 
L 239.386227 384.148403 
L 240.402806 324.627176 
L 241.419384 318.865565 
L 242.435963 504.92908 
L 243.452541 527.874675 
L 244.46912 427.997618 
L 245.485699 481.939518 
L 246.502277 470.695278 
L 247.518856 297.721012 
L 248.535435 265.962412 
L 249.552013 294.651559 
L 250.568592 187.746505 
L 251.58517 207.28533 
L 252.601749 376.449862 
L 253.618328 356.915268 
L 254.634906 271.211146 
L 255.651485 359.045405 
L 256.668063 401.733536 
L 257.684642 364.184532 
L 258.701221 477.062913 
L 259.717799 569.147043 
L 260.734378 473.535362 
L 261.750956 433.264755 
L 262.767535 432.57255 
L 263.784114 251.065121 
L 264.800692 111.109091 
L 265.817271 193.498956 
L 266.83385 249.565982 
L 267.850428 253.361168 
L 268.867007 368.47756 
L 269.883585 425.057444 
L 270.900164 356.307173 
L 271.916743 401.567627 
L 272.933321 493.102091 
L 273.9499 438.405882 
L 274.966478 419.549486 
L 275.983057 503.564675 
L 276.999636 454.581246 
L 278.016214 322.965423 
L 279.032793 288.95992 
L 280.049371 236.596755 
L 281.06595 153.891096 
L 282.082529 212.980342 
L 283.099107 298.298011 
L 284.115686 273.424547 
L 285.132265 320.966819 
L 286.148843 466.274573 
L 287.165422 504.984881 
L 288.182 487.058022 
L 289.198579 521.219918 
L 290.215158 481.329344 
L 291.231736 371.160097 
L 293.264893 305.812266 
L 294.281472 219.030306 
L 295.298051 232.015319 
L 296.314629 317.815558 
L 297.331208 298.843106 
L 298.347786 245.247559 
L 299.364365 274.927009 
L 300.380944 313.722093 
L 301.397522 363.021699 
L 302.414101 489.620357 
L 303.43068 578.036818 
L 304.447258 547.97091 
L 305.463837 503.003747 
L 306.480415 441.155543 
L 307.496994 287.010749 
L 308.513573 160.831501 
L 309.530151 178.109442 
L 310.54673 244.548236 
L 311.563308 293.42373 
L 312.579887 349.979015 
L 313.596466 359.62175 
L 314.613044 308.956897 
L 315.629623 316.605582 
L 316.646201 393.179436 
L 317.66278 435.998459 
L 318.679359 469.540746 
L 319.695937 538.786954 
L 320.712516 538.628714 
L 322.745673 305.629738 
L 323.762252 224.750057 
L 324.77883 166.977913 
L 325.795409 192.093976 
L 326.811988 282.012512 
L 327.828566 315.460766 
L 328.845145 318.329915 
L 329.861723 385.556016 
L 330.878302 440.27351 
L 331.894881 420.998184 
L 332.911459 428.238162 
L 333.928038 467.553681 
L 334.944617 446.304304 
L 335.961195 411.319792 
L 336.977774 400.512043 
L 337.994352 328.355613 
L 339.010931 247.28773 
L 340.02751 272.443798 
L 341.044088 293.839816 
L 342.060667 232.414265 
L 343.077245 235.496618 
L 344.093824 319.840808 
L 345.110403 361.103995 
L 346.126981 414.274613 
L 347.14356 509.316546 
L 348.160138 502.005318 
L 349.176717 431.632544 
L 350.193296 433.320162 
L 351.209874 391.635539 
L 352.226453 265.61142 
L 353.243032 257.3574 
L 354.25961 337.275648 
L 355.276189 321.794609 
L 356.292767 299.751402 
L 357.309346 331.208798 
L 358.325925 280.612927 
L 359.342503 243.168717 
L 360.359082 360.415226 
L 361.37566 438.635118 
L 362.392239 409.211868 
L 364.425396 524.781861 
L 365.441975 409.694602 
L 366.458553 319.100391 
L 367.475132 332.406629 
L 368.491711 276.876553 
L 369.508289 252.759659 
L 370.524868 360.381552 
L 371.541447 357.906137 
L 372.558025 253.310648 
L 373.574604 308.878454 
L 374.591182 390.80669 
L 375.607761 335.693067 
L 376.62434 364.0689 
L 377.640918 467.099811 
L 379.674075 368.889921 
L 380.690654 433.738355 
L 381.707233 370.526439 
L 382.723811 264.284154 
L 383.74039 358.345366 
L 384.756968 412.358483 
L 385.773547 289.32838 
L 386.790126 278.886492 
L 387.806704 342.385176 
L 388.823283 274.432578 
L 389.839862 293.90119 
L 390.85644 442.77966 
L 391.873019 418.715805 
L 392.889597 349.554102 
L 393.906176 447.925564 
L 394.922755 431.183178 
L 395.939333 269.770526 
L 396.955912 306.047408 
L 397.97249 405.073976 
L 398.989069 342.782402 
L 400.005648 364.103414 
L 401.022226 449.657643 
L 402.038805 324.186737 
L 403.055383 229.94562 
L 404.071962 349.493535 
L 405.088541 345.080313 
L 406.105119 249.901625 
L 407.121698 372.960593 
L 408.138277 468.111418 
L 409.154855 362.849018 
L 410.171434 374.995703 
L 411.188012 440.110498 
L 412.204591 312.473819 
L 413.22117 285.057863 
L 414.237748 436.578572 
L 415.254327 388.197635 
L 416.270905 276.756042 
L 417.287484 393.759711 
L 418.304063 426.319073 
L 419.320641 284.584281 
L 420.33722 313.054239 
L 421.353799 363.695291 
L 422.370377 232.452037 
L 423.386956 262.63866 
L 424.403534 441.96555 
L 426.436692 346.476954 
L 427.45327 502.252652 
L 428.469849 480.631627 
L 429.486427 299.626406 
L 431.519585 359.039436 
L 432.536163 248.032114 
L 433.552742 337.205762 
L 434.56932 485.112559 
L 435.585899 346.22183 
L 436.602478 246.844765 
L 437.619056 346.843824 
L 438.635635 278.30417 
L 439.652214 182.445204 
L 440.668792 367.688993 
L 441.685371 494.413581 
L 442.701949 438.909705 
L 443.718528 522.351085 
L 444.735107 545.872549 
L 445.751685 298.325187 
L 446.768264 213.935431 
L 447.784842 347.583755 
L 449.818 244.222838 
L 450.834578 403.214005 
L 451.851157 394.879366 
L 452.867735 242.181085 
L 453.884314 307.933999 
L 454.900893 355.467405 
L 455.917471 243.977162 
L 456.93405 362.803952 
L 457.950629 579.566456 
L 459.983786 408.151508 
L 461.000364 485.009738 
L 462.016943 375.65084 
L 463.033522 213.212871 
L 464.0501 294.727764 
L 465.066679 299.963551 
L 466.083257 165.712094 
L 467.099836 272.286994 
L 468.116415 413.969927 
L 469.132993 303.943331 
L 470.149572 309.507679 
L 471.16615 483.037583 
L 472.182729 442.158684 
L 473.199308 371.898531 
L 474.215886 489.61985 
L 475.232465 457.498116 
L 476.249044 320.322026 
L 477.265622 414.296062 
L 478.282201 449.36487 
L 479.298779 237.521064 
L 480.315358 187.630675 
L 481.331937 274.269064 
L 482.348515 183.3332 
L 483.365094 183.056779 
L 484.381672 396.399071 
L 485.398251 447.431251 
L 486.41483 421.473883 
L 487.431408 563.243872 
L 488.447987 548.749108 
L 489.464565 332.717673 
L 490.481144 337.88363 
L 491.497723 432.750582 
L 492.514301 329.423056 
L 493.53088 303.401444 
L 494.547459 385.267436 
L 496.580616 141.554942 
L 497.597194 251.294148 
L 498.613773 272.237101 
L 499.630352 228.23862 
L 500.64693 427.09225 
L 501.663509 595.00041 
L 502.680087 503.115564 
L 503.696666 473.236091 
L 504.713245 506.005846 
L 505.729823 363.062427 
L 506.746402 290.653403 
L 507.762981 386.350512 
L 508.779559 314.909466 
L 509.796138 180.575812 
L 510.812716 258.469863 
L 511.829295 288.905253 
L 512.845874 183.723109 
L 513.862452 265.389888 
L 514.879031 426.436531 
L 515.895609 420.764174 
L 516.912188 461.708967 
L 517.928767 564.303781 
L 519.961924 359.116421 
L 520.978502 446.227564 
L 521.995081 430.656338 
L 523.01166 279.904783 
L 524.028238 273.127729 
L 525.044817 275.918453 
L 526.061396 154.456916 
L 527.077974 168.81526 
L 528.094553 297.953527 
L 529.111131 312.528572 
L 530.12771 378.108192 
L 531.144289 557.320225 
L 532.160867 551.02827 
L 533.177446 419.3583 
L 534.194024 428.594026 
L 535.210603 432.962635 
L 536.227182 340.898235 
L 537.24376 353.573411 
L 538.260339 383.62739 
L 539.276917 266.015486 
L 540.293496 206.582945 
L 541.310075 259.680513 
L 542.326653 214.464418 
L 543.343232 186.594989 
L 544.359811 343.92808 
L 545.376389 469.502078 
L 546.392968 473.647137 
L 547.409546 519.236105 
L 548.426125 528.292282 
L 549.442704 418.161925 
L 550.459282 380.099829 
L 551.475861 405.509101 
L 553.509018 226.977835 
L 554.525597 272.583851 
L 555.542175 276.712594 
L 556.558754 225.64839 
L 557.575332 273.761484 
L 558.591911 338.294516 
L 559.60849 341.751932 
L 560.625068 404.602851 
L 561.641647 479.879641 
L 562.658226 441.942879 
L 563.674804 420.68423 
L 564.691383 487.094318 
L 565.707961 473.740513 
L 566.72454 373.039635 
L 568.757697 260.822902 
L 569.774276 183.545049 
L 570.790854 199.249452 
L 571.807433 273.501865 
L 572.824012 304.432378 
L 573.84059 364.023288 
L 574.857169 464.944555 
L 575.873747 466.406986 
L 576.890326 391.25075 
L 577.906905 379.12268 
L 578.923483 403.591737 
L 579.940062 406.31473 
L 580.956641 428.74036 
L 581.973219 432.228721 
L 584.006376 269.203183 
L 585.022955 251.576402 
L 586.039534 222.525103 
L 587.056112 201.048182 
L 588.072691 283.535276 
L 589.089269 403.187688 
L 590.105848 449.583862 
L 591.122427 457.980221 
L 592.139005 454.338119 
L 593.155584 403.612657 
L 594.172163 366.663196 
L 595.188741 390.403984 
L 596.20532 380.136373 
L 597.221898 322.002207 
L 598.238477 324.608779 
L 599.255056 353.281179 
L 601.288213 272.81294 
L 602.304791 296.520845 
L 603.32137 305.301195 
L 604.337949 315.565596 
L 605.354527 383.518688 
L 606.371106 415.6769 
L 607.387684 392.665021 
L 608.404263 435.872273 
L 609.420842 485.655301 
L 610.43742 411.285063 
L 611.453999 322.40525 
L 612.470578 311.113427 
L 613.487156 282.267952 
L 614.503735 265.156821 
L 615.520313 340.398944 
L 616.536892 380.027555 
L 617.553471 343.040885 
L 618.570049 369.311414 
L 619.586628 391.672175 
L 620.603206 298.649476 
L 621.619785 266.824973 
L 622.636364 369.32161 
L 622.636364 369.32161 
" style="fill:none;stroke:#d32f2f;stroke-linecap:square;stroke-width:1.5;"/>
   </g>
   <g id="patch_3">
    <path d="M 90 630 
L 90 86.4 
" style="fill:none;stroke:#000000;stroke-linecap:square;stroke-linejoin:miter;stroke-width:0.8;"/>
   </g>
   <g id="patch_4">
    <path d="M 648 630 
L 648 86.4 
" style="fill:none;stroke:#000000;stroke-linecap:square;stroke-linejoin:miter;stroke-width:0.8;"/>
   </g>
   <g id="patch_5">
    <path d="M 90 630 
L 648 630 
" style="fill:none;stroke:#000000;stroke-linecap:square;stroke-linejoin:miter;stroke-width:0.8;"/>
   </g>
   <g id="patch_6">
    <path d="M 90 86.4 
L 648 86.4 
" style="fill:none;stroke:#000000;stroke-linecap:square;stroke-linejoin:miter;stroke-width:0.8;"/>
   </g>
   <g id="legend_1">
    <g id="patch_7">
     <path d="M 582.43125 121.675 
L 641 121.675 
Q 643 121.675 643 119.675 
L 643 93.4 
Q 643 91.4 641 91.4 
L 582.43125 91.4 
Q 580.43125 91.4 580.43125 93.4 
L 580.43125 119.675 
Q 580.43125 121.675 582.43125 121.675 
z
" style="fill:#ffffff;opacity:0.8;stroke:#cccccc;stroke-linejoin:miter;"/>
    </g>
    <g id="line2d_15">
     <path d="M 584.43125 99.609375 
L 604.43125 99.609375 
" style="fill:none;stroke:#1976d2;stroke-linecap:square;stroke-width:1.5;"/>
    </g>
    <g id="line2d_16"/>
    <g id="text_15">
     <!-- Truth -->
     <defs>
      <path d="M 9.625 0 
L 9.625 53.03125 
L 19.234375 53.03125 
L 19.234375 43.0625 
Q 24.953125 54.203125 35.84375 54.203125 
Q 37.3125 54.203125 38.921875 53.953125 
L 38.921875 44.96875 
Q 36.421875 45.796875 34.515625 45.796875 
Q 25.390625 45.796875 19.234375 34.96875 
L 19.234375 0 
z
" id="LucidaGrande-114"/>
      <path d="M 42.78125 0 
L 42.78125 9.96875 
Q 35.109375 -1.21875 24.171875 -1.21875 
Q 17.234375 -1.21875 13.125 3.140625 
Q 9.03125 7.515625 9.03125 14.9375 
L 9.03125 53.03125 
L 18.65625 53.03125 
L 18.65625 18.0625 
Q 18.65625 12.109375 20.390625 9.59375 
Q 22.125 7.078125 26.171875 7.078125 
Q 34.96875 7.078125 42.78125 18.65625 
L 42.78125 53.03125 
L 52.390625 53.03125 
L 52.390625 0 
z
" id="LucidaGrande-117"/>
      <path d="M 9.625 0 
L 9.625 77.09375 
L 19.234375 77.09375 
L 19.234375 43.0625 
Q 26.859375 54.203125 37.890625 54.203125 
Q 44.78125 54.203125 48.875 49.828125 
Q 52.984375 45.453125 52.984375 38.09375 
L 52.984375 0 
L 43.359375 0 
L 43.359375 34.96875 
Q 43.359375 40.875 41.625 43.390625 
Q 39.890625 45.90625 35.890625 45.90625 
Q 27.046875 45.90625 19.234375 34.328125 
L 19.234375 0 
z
" id="LucidaGrande-104"/>
     </defs>
     <g transform="translate(612.43125 103.109375)scale(0.1 -0.1)">
      <use xlink:href="#LucidaGrande-84"/>
      <use x="63.232422" xlink:href="#LucidaGrande-114"/>
      <use x="104.150391" xlink:href="#LucidaGrande-117"/>
      <use x="166.210938" xlink:href="#LucidaGrande-116"/>
      <use x="203.613281" xlink:href="#LucidaGrande-104"/>
     </g>
    </g>
    <g id="line2d_17">
     <path d="M 584.43125 112.246875 
L 604.43125 112.246875 
" style="fill:none;stroke:#d32f2f;stroke-linecap:square;stroke-width:1.5;"/>
    </g>
    <g id="line2d_18"/>
    <g id="text_16">
     <!-- Fit -->
     <defs>
      <path d="M 9.328125 0 
L 9.328125 72.265625 
L 49.703125 72.265625 
L 49.703125 64.59375 
L 19.578125 64.59375 
L 19.578125 40.375 
L 44.875 40.375 
L 44.875 32.8125 
L 19.578125 32.8125 
L 19.578125 0 
z
" id="LucidaGrande-70"/>
     </defs>
     <g transform="translate(612.43125 115.746875)scale(0.1 -0.1)">
      <use xlink:href="#LucidaGrande-70"/>
      <use x="53.613281" xlink:href="#LucidaGrande-105"/>
      <use x="82.519531" xlink:href="#LucidaGrande-116"/>
     </g>
    </g>
   </g>
  </g>
 </g>
 <defs>
  <clipPath id="pe6ff58cbdb">
   <rect height="543.6" width="558" x="90" y="86.4"/>
  </clipPath>
 </defs>
</svg>
