<?xml version="1.0" encoding="utf-8" standalone="no"?>
<!DOCTYPE svg PUBLIC "-//W3C//DTD SVG 1.1//EN"
  "http://www.w3.org/Graphics/SVG/1.1/DTD/svg11.dtd">
<!-- Created with matplotlib (https://matplotlib.org/) -->
<svg height="511.2pt" version="1.1" viewBox="0 0 720 511.2" width="720pt" xmlns="http://www.w3.org/2000/svg" xmlns:xlink="http://www.w3.org/1999/xlink">
 <defs>
  <style type="text/css">
*{stroke-linecap:butt;stroke-linejoin:round;}
  </style>
 </defs>
 <g id="figure_1">
  <g id="patch_1">
   <path d="M 0 511.2 
L 720 511.2 
L 720 0 
L 0 0 
z
" style="fill:none;"/>
  </g>
  <g id="axes_1">
   <g id="patch_2">
    <path d="M 90 454.968 
L 648 454.968 
L 648 61.344 
L 90 61.344 
z
" style="fill:none;"/>
   </g>
   <g id="matplotlib.axis_1">
    <g id="xtick_1">
     <g id="line2d_1">
      <defs>
       <path d="M 0 0 
L 0 3.5 
" id="mae1912d9e5" style="stroke:#000000;stroke-width:0.8;"/>
      </defs>
      <g>
       <use style="stroke:#000000;stroke-width:0.8;" x="166.265072" xlink:href="#mae1912d9e5" y="454.968"/>
      </g>
     </g>
     <g id="text_1">
      <!-- $\mathdefault{10^{0}}$ -->
      <defs>
       <path d="M 15.046875 0 
L 15.046875 7.234375 
L 29.5 7.234375 
L 29.5 64.265625 
L 15.046875 60.640625 
L 15.046875 68.0625 
L 39.15625 74.078125 
L 39.15625 7.234375 
L 53.609375 7.234375 
L 53.609375 0 
z
" id="LucidaGrande-49"/>
       <path d="M 31.34375 -1.8125 
Q 20.171875 -1.8125 13.25 8.703125 
Q 6.34375 19.234375 6.34375 36.1875 
Q 6.34375 53.265625 13.296875 63.671875 
Q 20.265625 74.078125 31.640625 74.078125 
Q 43.015625 74.078125 49.96875 63.671875 
Q 56.9375 53.265625 56.9375 36.328125 
Q 56.9375 18.953125 49.96875 8.5625 
Q 43.015625 -1.8125 31.34375 -1.8125 
z
M 31.453125 5.421875 
Q 46.734375 5.421875 46.734375 36.46875 
Q 46.734375 66.84375 31.640625 66.84375 
Q 16.609375 66.84375 16.609375 36.1875 
Q 16.609375 5.421875 31.453125 5.421875 
z
" id="LucidaGrande-48"/>
      </defs>
      <g transform="translate(156.060822 470.958673)scale(0.11662 -0.11662)">
       <use transform="translate(0 0.023438)" xlink:href="#LucidaGrande-49"/>
       <use transform="translate(63.232422 0.023438)" xlink:href="#LucidaGrande-48"/>
       <use transform="translate(127.392891 37.145312)scale(0.7)" xlink:href="#LucidaGrande-48"/>
      </g>
     </g>
    </g>
    <g id="xtick_2">
     <g id="line2d_2">
      <g>
       <use style="stroke:#000000;stroke-width:0.8;" x="335.355981" xlink:href="#mae1912d9e5" y="454.968"/>
      </g>
     </g>
     <g id="text_2">
      <!-- $\mathdefault{10^{1}}$ -->
      <g transform="translate(325.151731 470.958673)scale(0.11662 -0.11662)">
       <use transform="translate(0 0.023438)" xlink:href="#LucidaGrande-49"/>
       <use transform="translate(63.232422 0.023438)" xlink:href="#LucidaGrande-48"/>
       <use transform="translate(127.392891 37.145312)scale(0.7)" xlink:href="#LucidaGrande-49"/>
      </g>
     </g>
    </g>
    <g id="xtick_3">
     <g id="line2d_3">
      <g>
       <use style="stroke:#000000;stroke-width:0.8;" x="504.44689" xlink:href="#mae1912d9e5" y="454.968"/>
      </g>
     </g>
     <g id="text_3">
      <!-- $\mathdefault{10^{2}}$ -->
      <defs>
       <path d="M 8.296875 0 
L 8.296875 8.453125 
Q 12.5 18.265625 25.296875 29.828125 
L 30.8125 34.765625 
Q 41.453125 44.390625 41.453125 53.859375 
Q 41.453125 59.90625 37.8125 63.375 
Q 34.1875 66.84375 27.828125 66.84375 
Q 20.3125 66.84375 10.109375 61.03125 
L 10.109375 69.53125 
Q 19.734375 74.078125 29.203125 74.078125 
Q 39.359375 74.078125 45.5 68.609375 
Q 51.65625 63.140625 51.65625 54.109375 
Q 51.65625 47.609375 48.546875 42.578125 
Q 45.453125 37.546875 37.015625 30.375 
L 33.296875 27.203125 
Q 21.734375 17.390625 19.921875 8.453125 
L 51.3125 8.453125 
L 51.3125 0 
z
" id="LucidaGrande-50"/>
      </defs>
      <g transform="translate(494.24264 470.958673)scale(0.11662 -0.11662)">
       <use transform="translate(0 0.023438)" xlink:href="#LucidaGrande-49"/>
       <use transform="translate(63.232422 0.023438)" xlink:href="#LucidaGrande-48"/>
       <use transform="translate(127.392891 37.145312)scale(0.7)" xlink:href="#LucidaGrande-50"/>
      </g>
     </g>
    </g>
    <g id="xtick_4">
     <g id="line2d_4">
      <defs>
       <path d="M 0 0 
L 0 2 
" id="me0c66ed1dd" style="stroke:#000000;stroke-width:0.6;"/>
      </defs>
      <g>
       <use style="stroke:#000000;stroke-width:0.6;" x="98.977034" xlink:href="#me0c66ed1dd" y="454.968"/>
      </g>
     </g>
    </g>
    <g id="xtick_5">
     <g id="line2d_5">
      <g>
       <use style="stroke:#000000;stroke-width:0.6;" x="115.363636" xlink:href="#me0c66ed1dd" y="454.968"/>
      </g>
     </g>
    </g>
    <g id="xtick_6">
     <g id="line2d_6">
      <g>
       <use style="stroke:#000000;stroke-width:0.6;" x="128.752465" xlink:href="#me0c66ed1dd" y="454.968"/>
      </g>
     </g>
    </g>
    <g id="xtick_7">
     <g id="line2d_7">
      <g>
       <use style="stroke:#000000;stroke-width:0.6;" x="140.072559" xlink:href="#me0c66ed1dd" y="454.968"/>
      </g>
     </g>
    </g>
    <g id="xtick_8">
     <g id="line2d_8">
      <g>
       <use style="stroke:#000000;stroke-width:0.6;" x="149.87847" xlink:href="#me0c66ed1dd" y="454.968"/>
      </g>
     </g>
    </g>
    <g id="xtick_9">
     <g id="line2d_9">
      <g>
       <use style="stroke:#000000;stroke-width:0.6;" x="158.527896" xlink:href="#me0c66ed1dd" y="454.968"/>
      </g>
     </g>
    </g>
    <g id="xtick_10">
     <g id="line2d_10">
      <g>
       <use style="stroke:#000000;stroke-width:0.6;" x="217.166508" xlink:href="#me0c66ed1dd" y="454.968"/>
      </g>
     </g>
    </g>
    <g id="xtick_11">
     <g id="line2d_11">
      <g>
       <use style="stroke:#000000;stroke-width:0.6;" x="246.941939" xlink:href="#me0c66ed1dd" y="454.968"/>
      </g>
     </g>
    </g>
    <g id="xtick_12">
     <g id="line2d_12">
      <g>
       <use style="stroke:#000000;stroke-width:0.6;" x="268.067943" xlink:href="#me0c66ed1dd" y="454.968"/>
      </g>
     </g>
    </g>
    <g id="xtick_13">
     <g id="line2d_13">
      <g>
       <use style="stroke:#000000;stroke-width:0.6;" x="284.454545" xlink:href="#me0c66ed1dd" y="454.968"/>
      </g>
     </g>
    </g>
    <g id="xtick_14">
     <g id="line2d_14">
      <g>
       <use style="stroke:#000000;stroke-width:0.6;" x="297.843374" xlink:href="#me0c66ed1dd" y="454.968"/>
      </g>
     </g>
    </g>
    <g id="xtick_15">
     <g id="line2d_15">
      <g>
       <use style="stroke:#000000;stroke-width:0.6;" x="309.163468" xlink:href="#me0c66ed1dd" y="454.968"/>
      </g>
     </g>
    </g>
    <g id="xtick_16">
     <g id="line2d_16">
      <g>
       <use style="stroke:#000000;stroke-width:0.6;" x="318.969379" xlink:href="#me0c66ed1dd" y="454.968"/>
      </g>
     </g>
    </g>
    <g id="xtick_17">
     <g id="line2d_17">
      <g>
       <use style="stroke:#000000;stroke-width:0.6;" x="327.618805" xlink:href="#me0c66ed1dd" y="454.968"/>
      </g>
     </g>
    </g>
    <g id="xtick_18">
     <g id="line2d_18">
      <g>
       <use style="stroke:#000000;stroke-width:0.6;" x="386.257417" xlink:href="#me0c66ed1dd" y="454.968"/>
      </g>
     </g>
    </g>
    <g id="xtick_19">
     <g id="line2d_19">
      <g>
       <use style="stroke:#000000;stroke-width:0.6;" x="416.032848" xlink:href="#me0c66ed1dd" y="454.968"/>
      </g>
     </g>
    </g>
    <g id="xtick_20">
     <g id="line2d_20">
      <g>
       <use style="stroke:#000000;stroke-width:0.6;" x="437.158852" xlink:href="#me0c66ed1dd" y="454.968"/>
      </g>
     </g>
    </g>
    <g id="xtick_21">
     <g id="line2d_21">
      <g>
       <use style="stroke:#000000;stroke-width:0.6;" x="453.545455" xlink:href="#me0c66ed1dd" y="454.968"/>
      </g>
     </g>
    </g>
    <g id="xtick_22">
     <g id="line2d_22">
      <g>
       <use style="stroke:#000000;stroke-width:0.6;" x="466.934283" xlink:href="#me0c66ed1dd" y="454.968"/>
      </g>
     </g>
    </g>
    <g id="xtick_23">
     <g id="line2d_23">
      <g>
       <use style="stroke:#000000;stroke-width:0.6;" x="478.254377" xlink:href="#me0c66ed1dd" y="454.968"/>
      </g>
     </g>
    </g>
    <g id="xtick_24">
     <g id="line2d_24">
      <g>
       <use style="stroke:#000000;stroke-width:0.6;" x="488.060288" xlink:href="#me0c66ed1dd" y="454.968"/>
      </g>
     </g>
    </g>
    <g id="xtick_25">
     <g id="line2d_25">
      <g>
       <use style="stroke:#000000;stroke-width:0.6;" x="496.709714" xlink:href="#me0c66ed1dd" y="454.968"/>
      </g>
     </g>
    </g>
    <g id="xtick_26">
     <g id="line2d_26">
      <g>
       <use style="stroke:#000000;stroke-width:0.6;" x="555.348326" xlink:href="#me0c66ed1dd" y="454.968"/>
      </g>
     </g>
    </g>
    <g id="xtick_27">
     <g id="line2d_27">
      <g>
       <use style="stroke:#000000;stroke-width:0.6;" x="585.123757" xlink:href="#me0c66ed1dd" y="454.968"/>
      </g>
     </g>
    </g>
    <g id="xtick_28">
     <g id="line2d_28">
      <g>
       <use style="stroke:#000000;stroke-width:0.6;" x="606.249761" xlink:href="#me0c66ed1dd" y="454.968"/>
      </g>
     </g>
    </g>
    <g id="xtick_29">
     <g id="line2d_29">
      <g>
       <use style="stroke:#000000;stroke-width:0.6;" x="622.636364" xlink:href="#me0c66ed1dd" y="454.968"/>
      </g>
     </g>
    </g>
    <g id="xtick_30">
     <g id="line2d_30">
      <g>
       <use style="stroke:#000000;stroke-width:0.6;" x="636.025193" xlink:href="#me0c66ed1dd" y="454.968"/>
      </g>
     </g>
    </g>
    <g id="xtick_31">
     <g id="line2d_31">
      <g>
       <use style="stroke:#000000;stroke-width:0.6;" x="647.345286" xlink:href="#me0c66ed1dd" y="454.968"/>
      </g>
     </g>
    </g>
    <g id="text_4">
     <!-- Frequency (Hz) -->
     <defs>
      <path d="M 9.328125 0 
L 9.328125 72.265625 
L 49.703125 72.265625 
L 49.703125 64.59375 
L 19.578125 64.59375 
L 19.578125 40.375 
L 44.875 40.375 
L 44.875 32.8125 
L 19.578125 32.8125 
L 19.578125 0 
z
" id="LucidaGrande-70"/>
      <path d="M 9.625 0 
L 9.625 53.03125 
L 19.234375 53.03125 
L 19.234375 43.0625 
Q 24.953125 54.203125 35.84375 54.203125 
Q 37.3125 54.203125 38.921875 53.953125 
L 38.921875 44.96875 
Q 36.421875 45.796875 34.515625 45.796875 
Q 25.390625 45.796875 19.234375 34.96875 
L 19.234375 0 
z
" id="LucidaGrande-114"/>
      <path d="M 48.484375 1.703125 
Q 38.8125 -1.21875 31.9375 -1.21875 
Q 20.21875 -1.21875 12.8125 6.5625 
Q 5.421875 14.359375 5.421875 26.765625 
Q 5.421875 38.8125 11.9375 46.53125 
Q 18.453125 54.25 28.609375 54.25 
Q 38.234375 54.25 43.484375 47.40625 
Q 48.734375 40.578125 48.734375 27.984375 
L 48.6875 25 
L 15.234375 25 
Q 17.328125 6.109375 33.734375 6.109375 
Q 39.75 6.109375 48.484375 9.328125 
z
M 15.671875 32.234375 
L 39.0625 32.234375 
Q 39.0625 47.015625 28.03125 47.015625 
Q 16.9375 47.015625 15.671875 32.234375 
z
" id="LucidaGrande-101"/>
      <path d="M 43.65625 -19.28125 
L 43.65625 9.96875 
Q 37.796875 -1.21875 25.984375 -1.21875 
Q 16.40625 -1.21875 10.90625 5.765625 
Q 5.421875 12.75 5.421875 24.859375 
Q 5.421875 38.09375 11.640625 46.140625 
Q 17.875 54.203125 28.03125 54.203125 
Q 37.453125 54.203125 43.65625 46.96875 
L 43.65625 53.03125 
L 53.328125 53.03125 
L 53.328125 -19.28125 
z
M 43.65625 40.375 
Q 36.1875 46.96875 29.5 46.96875 
Q 15.671875 46.96875 15.671875 25.828125 
Q 15.671875 7.234375 27.984375 7.234375 
Q 35.984375 7.234375 43.65625 15.96875 
z
" id="LucidaGrande-113"/>
      <path d="M 42.78125 0 
L 42.78125 9.96875 
Q 35.109375 -1.21875 24.171875 -1.21875 
Q 17.234375 -1.21875 13.125 3.140625 
Q 9.03125 7.515625 9.03125 14.9375 
L 9.03125 53.03125 
L 18.65625 53.03125 
L 18.65625 18.0625 
Q 18.65625 12.109375 20.390625 9.59375 
Q 22.125 7.078125 26.171875 7.078125 
Q 34.96875 7.078125 42.78125 18.65625 
L 42.78125 53.03125 
L 52.390625 53.03125 
L 52.390625 0 
z
" id="LucidaGrande-117"/>
      <path d="M 9.625 0 
L 9.625 53.03125 
L 19.234375 53.03125 
L 19.234375 43.0625 
Q 26.859375 54.203125 37.890625 54.203125 
Q 44.78125 54.203125 48.875 49.828125 
Q 52.984375 45.453125 52.984375 38.09375 
L 52.984375 0 
L 43.359375 0 
L 43.359375 34.96875 
Q 43.359375 40.875 41.625 43.390625 
Q 39.890625 45.90625 35.890625 45.90625 
Q 27.046875 45.90625 19.234375 34.328125 
L 19.234375 0 
z
" id="LucidaGrande-110"/>
      <path d="M 30.328125 -1.21875 
Q 19.578125 -1.21875 12.5 6.734375 
Q 5.421875 14.703125 5.421875 26.8125 
Q 5.421875 39.75 12.421875 46.96875 
Q 19.4375 54.203125 31.984375 54.203125 
Q 38.1875 54.203125 45.84375 52.484375 
L 45.84375 44.4375 
Q 37.703125 46.828125 32.5625 46.828125 
Q 25.203125 46.828125 20.734375 41.28125 
Q 16.265625 35.75 16.265625 26.515625 
Q 16.265625 17.578125 20.84375 12.0625 
Q 25.4375 6.546875 32.859375 6.546875 
Q 39.453125 6.546875 46.4375 9.90625 
L 46.4375 1.609375 
Q 37.109375 -1.21875 30.328125 -1.21875 
z
" id="LucidaGrande-99"/>
      <path d="M 12.703125 -19.28125 
L 21.296875 0 
L 0.78125 53.03125 
L 11.1875 53.03125 
L 26.375 13.09375 
L 42.578125 53.03125 
L 51.65625 53.03125 
L 22.703125 -19.28125 
z
" id="LucidaGrande-121"/>
      <path id="LucidaGrande-32"/>
      <path d="M 28.90625 -7.8125 
L 28.90625 -14.453125 
Q 18.359375 -7.28125 12.171875 5.046875 
Q 6 17.390625 6 31.34375 
Q 6 45.265625 12.171875 57.59375 
Q 18.359375 69.921875 28.90625 77.09375 
L 28.90625 70.453125 
Q 21.734375 62.640625 18.671875 53.65625 
Q 15.625 44.671875 15.625 31.34375 
Q 15.625 17.96875 18.671875 8.984375 
Q 21.734375 0 28.90625 -7.8125 
z
" id="LucidaGrande-40"/>
      <path d="M 9.328125 0 
L 9.328125 72.265625 
L 19.578125 72.265625 
L 19.578125 41.796875 
L 53.953125 41.796875 
L 53.953125 72.265625 
L 64.203125 72.265625 
L 64.203125 0 
L 53.953125 0 
L 53.953125 34.125 
L 19.578125 34.125 
L 19.578125 0 
z
" id="LucidaGrande-72"/>
      <path d="M 6 0 
L 6 7.234375 
L 38.8125 45.796875 
L 7.515625 45.796875 
L 7.515625 53.03125 
L 50.6875 53.03125 
L 50.6875 45.796875 
L 17.875 7.234375 
L 51.3125 7.234375 
L 51.3125 0 
z
" id="LucidaGrande-122"/>
      <path d="M 3.609375 -7.8125 
L 3.609375 -14.453125 
Q 14.15625 -7.28125 20.328125 5.046875 
Q 26.515625 17.390625 26.515625 31.34375 
Q 26.515625 45.265625 20.328125 57.59375 
Q 14.15625 69.921875 3.609375 77.09375 
L 3.609375 70.453125 
Q 10.796875 62.640625 13.84375 53.65625 
Q 16.890625 44.671875 16.890625 31.34375 
Q 16.890625 17.96875 13.84375 8.984375 
Q 10.796875 0 3.609375 -7.8125 
z
" id="LucidaGrande-41"/>
     </defs>
     <g transform="translate(318.321094 488.000378)scale(0.14 -0.14)">
      <use xlink:href="#LucidaGrande-70"/>
      <use x="53.613281" xlink:href="#LucidaGrande-114"/>
      <use x="94.53125" xlink:href="#LucidaGrande-101"/>
      <use x="150.244141" xlink:href="#LucidaGrande-113"/>
      <use x="213.183594" xlink:href="#LucidaGrande-117"/>
      <use x="275.244141" xlink:href="#LucidaGrande-101"/>
      <use x="330.957031" xlink:href="#LucidaGrande-110"/>
      <use x="393.017578" xlink:href="#LucidaGrande-99"/>
      <use x="444.238281" xlink:href="#LucidaGrande-121"/>
      <use x="496.484375" xlink:href="#LucidaGrande-32"/>
      <use x="528.125" xlink:href="#LucidaGrande-40"/>
      <use x="560.644531" xlink:href="#LucidaGrande-72"/>
      <use x="634.130859" xlink:href="#LucidaGrande-122"/>
      <use x="691.455078" xlink:href="#LucidaGrande-41"/>
     </g>
    </g>
   </g>
   <g id="matplotlib.axis_2">
    <g id="ytick_1">
     <g id="line2d_32">
      <defs>
       <path d="M 0 0 
L -3.5 0 
" id="m19bf402ed9" style="stroke:#000000;stroke-width:0.8;"/>
      </defs>
      <g>
       <use style="stroke:#000000;stroke-width:0.8;" x="90" xlink:href="#m19bf402ed9" y="454.968"/>
      </g>
     </g>
     <g id="text_5">
      <!-- $\mathdefault{10^{-7}}$ -->
      <defs>
       <path d="M 10.84375 25.296875 
L 10.84375 32.515625 
L 68.65625 32.515625 
L 68.65625 25.296875 
z
" id="LucidaGrande-8722"/>
       <path d="M 15.046875 0 
Q 16.453125 8.453125 19.0625 14.59375 
Q 21.6875 20.75 28.328125 31.5 
L 48.046875 63.234375 
L 10.84375 63.234375 
L 10.84375 72.265625 
L 57.234375 72.265625 
L 57.234375 63.234375 
Q 29.4375 22.265625 26.125 0 
z
" id="LucidaGrande-55"/>
      </defs>
      <g transform="translate(56.1774 459.463337)scale(0.11662 -0.11662)">
       <use transform="translate(0 0.292188)" xlink:href="#LucidaGrande-49"/>
       <use transform="translate(63.232422 0.292188)" xlink:href="#LucidaGrande-48"/>
       <use transform="translate(127.392891 37.414063)scale(0.7)" xlink:href="#LucidaGrande-8722"/>
       <use transform="translate(183.071602 37.414063)scale(0.7)" xlink:href="#LucidaGrande-55"/>
      </g>
     </g>
    </g>
    <g id="ytick_2">
     <g id="line2d_33">
      <g>
       <use style="stroke:#000000;stroke-width:0.8;" x="90" xlink:href="#m19bf402ed9" y="359.27056"/>
      </g>
     </g>
     <g id="text_6">
      <!-- $\mathdefault{10^{-5}}$ -->
      <defs>
       <path d="M 12.15625 -0.296875 
L 12.15625 8.296875 
Q 19.34375 5.421875 25.828125 5.421875 
Q 32.953125 5.421875 37.03125 9.609375 
Q 41.109375 13.8125 41.109375 21.1875 
Q 41.109375 37.453125 18.703125 37.453125 
Q 16.15625 37.453125 13.375 37.109375 
L 13.375 72.265625 
L 49.953125 72.265625 
L 49.953125 63.875 
L 21.828125 63.875 
L 21.828125 44.828125 
Q 35.75 44.828125 43.5625 38.421875 
Q 51.375 32.03125 51.375 20.703125 
Q 51.375 10.15625 44.265625 4.171875 
Q 37.15625 -1.8125 24.5625 -1.8125 
Q 19.09375 -1.8125 12.15625 -0.296875 
z
" id="LucidaGrande-53"/>
      </defs>
      <g transform="translate(56.1774 363.765896)scale(0.11662 -0.11662)">
       <use transform="translate(0 0.292188)" xlink:href="#LucidaGrande-49"/>
       <use transform="translate(63.232422 0.292188)" xlink:href="#LucidaGrande-48"/>
       <use transform="translate(127.392891 37.414063)scale(0.7)" xlink:href="#LucidaGrande-8722"/>
       <use transform="translate(183.071602 37.414063)scale(0.7)" xlink:href="#LucidaGrande-53"/>
      </g>
     </g>
    </g>
    <g id="ytick_3">
     <g id="line2d_34">
      <g>
       <use style="stroke:#000000;stroke-width:0.8;" x="90" xlink:href="#m19bf402ed9" y="263.573119"/>
      </g>
     </g>
     <g id="text_7">
      <!-- $\mathdefault{10^{-3}}$ -->
      <defs>
       <path d="M 10.15625 0.53125 
L 10.15625 9.515625 
Q 20.515625 5.421875 26.46875 5.421875 
Q 33.34375 5.421875 37.671875 9.453125 
Q 42 13.484375 42 19.875 
Q 42 35.109375 20.65625 35.109375 
L 16.84375 35.109375 
L 16.84375 41.609375 
L 20.21875 41.65625 
Q 40.234375 41.65625 40.234375 55.765625 
Q 40.234375 66.84375 27.046875 66.84375 
Q 19.828125 66.84375 11.140625 62.796875 
L 11.140625 71.1875 
Q 19.671875 74.078125 27.734375 74.078125 
Q 49.90625 74.078125 49.90625 57.328125 
Q 49.90625 44.578125 34.8125 39.15625 
Q 52.296875 35.109375 52.296875 20.015625 
Q 52.296875 9.8125 45.546875 4 
Q 38.8125 -1.8125 27.046875 -1.8125 
Q 20.359375 -1.8125 10.15625 0.53125 
z
" id="LucidaGrande-51"/>
      </defs>
      <g transform="translate(56.1774 268.068456)scale(0.11662 -0.11662)">
       <use transform="translate(0 0.023438)" xlink:href="#LucidaGrande-49"/>
       <use transform="translate(63.232422 0.023438)" xlink:href="#LucidaGrande-48"/>
       <use transform="translate(127.392891 37.145312)scale(0.7)" xlink:href="#LucidaGrande-8722"/>
       <use transform="translate(183.071602 37.145312)scale(0.7)" xlink:href="#LucidaGrande-51"/>
      </g>
     </g>
    </g>
    <g id="ytick_4">
     <g id="line2d_35">
      <g>
       <use style="stroke:#000000;stroke-width:0.8;" x="90" xlink:href="#m19bf402ed9" y="167.875679"/>
      </g>
     </g>
     <g id="text_8">
      <!-- $\mathdefault{10^{-1}}$ -->
      <g transform="translate(56.1774 172.371015)scale(0.11662 -0.11662)">
       <use transform="translate(0 0.023438)" xlink:href="#LucidaGrande-49"/>
       <use transform="translate(63.232422 0.023438)" xlink:href="#LucidaGrande-48"/>
       <use transform="translate(127.392891 37.145312)scale(0.7)" xlink:href="#LucidaGrande-8722"/>
       <use transform="translate(183.071602 37.145312)scale(0.7)" xlink:href="#LucidaGrande-49"/>
      </g>
     </g>
    </g>
    <g id="ytick_5">
     <g id="line2d_36">
      <g>
       <use style="stroke:#000000;stroke-width:0.8;" x="90" xlink:href="#m19bf402ed9" y="72.178238"/>
      </g>
     </g>
     <g id="text_9">
      <!-- $\mathdefault{10^{1}}$ -->
      <g transform="translate(62.5915 76.673575)scale(0.11662 -0.11662)">
       <use transform="translate(0 0.023438)" xlink:href="#LucidaGrande-49"/>
       <use transform="translate(63.232422 0.023438)" xlink:href="#LucidaGrande-48"/>
       <use transform="translate(127.392891 37.145312)scale(0.7)" xlink:href="#LucidaGrande-49"/>
      </g>
     </g>
    </g>
    <g id="text_10">
     <!-- Power spectral density (mas$^2$/Hz) -->
     <defs>
      <path d="M 9.328125 0 
L 9.328125 72.265625 
L 29 72.265625 
Q 42.09375 72.265625 47.796875 67.84375 
Q 53.515625 63.421875 53.515625 53.328125 
Q 53.515625 41.796875 45.703125 35.25 
Q 37.890625 28.71875 24.03125 28.71875 
L 19.484375 28.71875 
L 19.484375 0 
z
M 19.484375 36.46875 
L 23.640625 36.46875 
Q 32.765625 36.46875 37.734375 40.671875 
Q 42.71875 44.875 42.71875 52.546875 
Q 42.71875 59.03125 38.8125 61.8125 
Q 34.90625 64.59375 25.78125 64.59375 
L 19.484375 64.59375 
z
" id="LucidaGrande-80"/>
      <path d="M 30.375 -1.21875 
Q 19 -1.21875 12.203125 6.328125 
Q 5.421875 13.875 5.421875 26.515625 
Q 5.421875 39.3125 12.234375 46.75 
Q 19.046875 54.203125 30.71875 54.203125 
Q 42.390625 54.203125 49.1875 46.75 
Q 56 39.3125 56 26.609375 
Q 56 13.625 49.15625 6.203125 
Q 42.328125 -1.21875 30.375 -1.21875 
z
M 30.515625 6 
Q 45.796875 6 45.796875 26.609375 
Q 45.796875 46.96875 30.71875 46.96875 
Q 15.671875 46.96875 15.671875 26.515625 
Q 15.671875 6 30.515625 6 
z
" id="LucidaGrande-111"/>
      <path d="M 15.765625 0 
L 0.59375 53.03125 
L 10.015625 53.03125 
L 21.625 11.96875 
L 34.1875 53.03125 
L 43.796875 53.03125 
L 54.78125 11.96875 
L 68.109375 53.03125 
L 76.375 53.03125 
L 59.078125 0 
L 49.421875 0 
L 38.1875 41.0625 
L 25.484375 0 
z
" id="LucidaGrande-119"/>
      <path d="M 23.6875 -1.21875 
Q 17.09375 -1.21875 7.671875 1.859375 
L 7.671875 10.6875 
Q 17.09375 6 24.078125 6 
Q 28.21875 6 30.953125 8.25 
Q 33.6875 10.5 33.6875 13.875 
Q 33.6875 18.796875 26.03125 22.015625 
L 20.40625 24.421875 
Q 7.953125 29.59375 7.953125 39.3125 
Q 7.953125 46.234375 12.859375 50.21875 
Q 17.78125 54.203125 26.3125 54.203125 
Q 30.765625 54.203125 37.3125 52.984375 
L 39.3125 52.59375 
L 39.3125 44.578125 
Q 31.25 46.96875 26.515625 46.96875 
Q 17.234375 46.96875 17.234375 40.234375 
Q 17.234375 35.890625 24.265625 32.90625 
L 28.90625 30.953125 
Q 36.765625 27.640625 40.03125 23.953125 
Q 43.3125 20.265625 43.3125 14.75 
Q 43.3125 7.765625 37.796875 3.265625 
Q 32.28125 -1.21875 23.6875 -1.21875 
z
" id="LucidaGrande-115"/>
      <path d="M 9.625 -19.28125 
L 9.625 53.03125 
L 19.234375 53.03125 
L 19.234375 43.0625 
Q 25.140625 54.203125 36.96875 54.203125 
Q 46.53125 54.203125 52.015625 47.21875 
Q 57.515625 40.234375 57.515625 28.125 
Q 57.515625 14.9375 51.28125 6.859375 
Q 45.0625 -1.21875 34.90625 -1.21875 
Q 25.484375 -1.21875 19.234375 6 
L 19.234375 -19.28125 
z
M 19.234375 12.640625 
Q 26.65625 6 33.40625 6 
Q 47.265625 6 47.265625 27.15625 
Q 47.265625 45.796875 34.96875 45.796875 
Q 26.90625 45.796875 19.234375 37.0625 
z
" id="LucidaGrande-112"/>
      <path d="M 25.53125 -1.21875 
Q 18.21875 -1.21875 14.109375 2.96875 
Q 10.015625 7.171875 10.015625 14.65625 
L 10.015625 45.796875 
L 3.375 45.796875 
L 3.375 53.03125 
L 10.015625 53.03125 
L 10.015625 62.640625 
L 19.625 63.578125 
L 19.625 53.03125 
L 33.5 53.03125 
L 33.5 45.796875 
L 19.625 45.796875 
L 19.625 16.40625 
Q 19.625 6 28.609375 6 
Q 30.515625 6 33.25 6.640625 
L 33.25 0 
Q 28.8125 -1.21875 25.53125 -1.21875 
z
" id="LucidaGrande-116"/>
      <path d="M 36.96875 6.734375 
Q 28.328125 -1.21875 20.3125 -1.21875 
Q 13.71875 -1.21875 9.375 2.90625 
Q 5.03125 7.03125 5.03125 13.328125 
Q 5.03125 22.015625 12.328125 26.671875 
Q 19.625 31.34375 33.25 31.34375 
L 35.546875 31.34375 
L 35.546875 37.75 
Q 35.546875 46.96875 26.078125 46.96875 
Q 18.453125 46.96875 9.625 42.28125 
L 9.625 50.25 
Q 19.34375 54.203125 27.828125 54.203125 
Q 36.71875 54.203125 40.9375 50.1875 
Q 45.171875 46.1875 45.171875 37.75 
L 45.171875 13.71875 
Q 45.171875 5.46875 50.25 5.46875 
Q 50.875 5.46875 52.09375 5.671875 
L 52.78125 0.34375 
Q 49.515625 -1.21875 45.5625 -1.21875 
Q 38.8125 -1.21875 36.96875 6.734375 
z
M 35.546875 11.96875 
L 35.546875 25.6875 
L 32.328125 25.78125 
Q 24.421875 25.78125 19.53125 22.78125 
Q 14.65625 19.78125 14.65625 14.890625 
Q 14.65625 11.421875 17.09375 9.03125 
Q 19.53125 6.640625 23.046875 6.640625 
Q 29.046875 6.640625 35.546875 11.96875 
z
" id="LucidaGrande-97"/>
      <path d="M 9.625 0 
L 9.625 77.09375 
L 19.234375 77.09375 
L 19.234375 0 
z
" id="LucidaGrande-108"/>
      <path d="M 43.65625 0 
L 43.65625 9.96875 
Q 37.796875 -1.21875 25.984375 -1.21875 
Q 16.40625 -1.21875 10.90625 5.765625 
Q 5.421875 12.75 5.421875 24.859375 
Q 5.421875 38.09375 11.640625 46.140625 
Q 17.875 54.203125 28.03125 54.203125 
Q 37.453125 54.203125 43.65625 46.96875 
L 43.65625 77.09375 
L 53.328125 77.09375 
L 53.328125 0 
z
M 43.65625 40.375 
Q 36.1875 46.96875 29.5 46.96875 
Q 15.671875 46.96875 15.671875 25.828125 
Q 15.671875 7.234375 27.984375 7.234375 
Q 35.984375 7.234375 43.65625 15.96875 
z
" id="LucidaGrande-100"/>
      <path d="M 9.625 0 
L 9.625 53.03125 
L 19.234375 53.03125 
L 19.234375 0 
z
M 9.625 62.640625 
L 9.625 72.265625 
L 19.234375 72.265625 
L 19.234375 62.640625 
z
" id="LucidaGrande-105"/>
      <path d="M 9.625 0 
L 9.625 53.03125 
L 19.234375 53.03125 
L 19.234375 43.0625 
Q 26.265625 54.203125 37.3125 54.203125 
Q 47.953125 54.203125 51.8125 43.0625 
Q 58.640625 54.25 69.578125 54.25 
Q 76.609375 54.25 80.46875 50.125 
Q 84.328125 46 84.328125 38.578125 
L 84.328125 0 
L 74.65625 0 
L 74.65625 37.0625 
Q 74.65625 46.140625 67.484375 46.140625 
Q 60.015625 46.140625 51.8125 35.546875 
L 51.8125 0 
L 42.140625 0 
L 42.140625 37.0625 
Q 42.140625 46.1875 34.8125 46.1875 
Q 27.546875 46.1875 19.234375 35.546875 
L 19.234375 0 
z
" id="LucidaGrande-109"/>
      <path d="M 19.1875 8.296875 
L 53.609375 8.296875 
L 53.609375 0 
L 7.328125 0 
L 7.328125 8.296875 
Q 12.9375 14.109375 22.625 23.890625 
Q 32.328125 33.6875 34.8125 36.53125 
Q 39.546875 41.84375 41.421875 45.53125 
Q 43.3125 49.21875 43.3125 52.78125 
Q 43.3125 58.59375 39.234375 62.25 
Q 35.15625 65.921875 28.609375 65.921875 
Q 23.96875 65.921875 18.8125 64.3125 
Q 13.671875 62.703125 7.8125 59.421875 
L 7.8125 69.390625 
Q 13.765625 71.78125 18.9375 73 
Q 24.125 74.21875 28.421875 74.21875 
Q 39.75 74.21875 46.484375 68.546875 
Q 53.21875 62.890625 53.21875 53.421875 
Q 53.21875 48.921875 51.53125 44.890625 
Q 49.859375 40.875 45.40625 35.40625 
Q 44.1875 33.984375 37.640625 27.21875 
Q 31.109375 20.453125 19.1875 8.296875 
z
" id="DejaVuSans-50"/>
      <path d="M 9.421875 -14.453125 
L 35.453125 72.265625 
L 43.015625 72.265625 
L 17 -14.453125 
z
" id="LucidaGrande-47"/>
     </defs>
     <g transform="translate(49.3774 371.206)rotate(-90)scale(0.14 -0.14)">
      <use transform="translate(0 0.765625)" xlink:href="#LucidaGrande-80"/>
      <use transform="translate(55.273438 0.765625)" xlink:href="#LucidaGrande-111"/>
      <use transform="translate(116.699219 0.765625)" xlink:href="#LucidaGrande-119"/>
      <use transform="translate(193.75 0.765625)" xlink:href="#LucidaGrande-101"/>
      <use transform="translate(249.462891 0.765625)" xlink:href="#LucidaGrande-114"/>
      <use transform="translate(290.380859 0.765625)" xlink:href="#LucidaGrande-32"/>
      <use transform="translate(322.021484 0.765625)" xlink:href="#LucidaGrande-115"/>
      <use transform="translate(372.998047 0.765625)" xlink:href="#LucidaGrande-112"/>
      <use transform="translate(435.9375 0.765625)" xlink:href="#LucidaGrande-101"/>
      <use transform="translate(491.650391 0.765625)" xlink:href="#LucidaGrande-99"/>
      <use transform="translate(542.871094 0.765625)" xlink:href="#LucidaGrande-116"/>
      <use transform="translate(580.273438 0.765625)" xlink:href="#LucidaGrande-114"/>
      <use transform="translate(621.191406 0.765625)" xlink:href="#LucidaGrande-97"/>
      <use transform="translate(676.416016 0.765625)" xlink:href="#LucidaGrande-108"/>
      <use transform="translate(705.322266 0.765625)" xlink:href="#LucidaGrande-32"/>
      <use transform="translate(736.962891 0.765625)" xlink:href="#LucidaGrande-100"/>
      <use transform="translate(799.902344 0.765625)" xlink:href="#LucidaGrande-101"/>
      <use transform="translate(855.615234 0.765625)" xlink:href="#LucidaGrande-110"/>
      <use transform="translate(917.675781 0.765625)" xlink:href="#LucidaGrande-115"/>
      <use transform="translate(968.652344 0.765625)" xlink:href="#LucidaGrande-105"/>
      <use transform="translate(997.558594 0.765625)" xlink:href="#LucidaGrande-116"/>
      <use transform="translate(1034.960938 0.765625)" xlink:href="#LucidaGrande-121"/>
      <use transform="translate(1087.207031 0.765625)" xlink:href="#LucidaGrande-32"/>
      <use transform="translate(1118.847656 0.765625)" xlink:href="#LucidaGrande-40"/>
      <use transform="translate(1151.367188 0.765625)" xlink:href="#LucidaGrande-109"/>
      <use transform="translate(1244.726562 0.765625)" xlink:href="#LucidaGrande-97"/>
      <use transform="translate(1299.951172 0.765625)" xlink:href="#LucidaGrande-115"/>
      <use transform="translate(1351.884766 39.046875)scale(0.7)" xlink:href="#DejaVuSans-50"/>
      <use transform="translate(1399.155273 0.765625)" xlink:href="#LucidaGrande-47"/>
      <use transform="translate(1451.59668 0.765625)" xlink:href="#LucidaGrande-72"/>
      <use transform="translate(1525.083008 0.765625)" xlink:href="#LucidaGrande-122"/>
      <use transform="translate(1582.407227 0.765625)" xlink:href="#LucidaGrande-41"/>
     </g>
    </g>
   </g>
   <g id="line2d_37">
    <path clip-path="url(#p4b7b4ec6a0)" d="M -1 139.361268 
L 115.363636 138.31736 
L 166.265072 205.806468 
L 196.040503 161.185674 
L 217.166508 143.826224 
L 233.55311 189.160241 
L 246.941939 200.597594 
L 258.262032 182.745832 
L 268.067943 172.139807 
L 276.71737 218.905219 
L 284.454545 197.604594 
L 291.453672 196.354121 
L 297.843374 262.258572 
L 303.72133 230.280946 
L 309.163468 230.037365 
L 314.229977 188.821414 
L 318.969379 232.780766 
L 323.421363 217.653286 
L 327.618805 228.746133 
L 331.589245 235.925865 
L 335.355981 240.128176 
L 338.938899 231.751145 
L 342.355108 211.088742 
L 345.619434 258.658819 
L 348.74481 259.81517 
L 351.742583 232.807014 
L 354.622766 242.381452 
L 357.394236 268.77733 
L 360.064903 212.728504 
L 362.641843 226.496344 
L 365.131412 239.051464 
L 367.539341 329.239998 
L 369.870815 271.926818 
L 372.130539 285.017754 
L 374.322799 250.951511 
L 376.451506 243.873425 
L 378.520241 245.347385 
L 380.532292 305.60174 
L 382.490681 225.039471 
L 384.398197 242.970918 
L 386.257417 279.836713 
L 388.070725 260.805059 
L 389.840335 250.858549 
L 391.568302 355.807379 
L 393.256543 256.091001 
L 394.906843 272.360722 
L 396.52087 249.98241 
L 398.100183 324.113865 
L 399.646246 292.576271 
L 401.160428 294.459434 
L 402.644019 279.343134 
L 404.09823 260.410223 
L 405.524202 277.919679 
L 406.923011 257.762532 
L 408.295672 280.947056 
L 409.643146 273.545305 
L 410.966339 276.101234 
L 412.266112 254.91495 
L 413.543279 275.937391 
L 414.798613 264.078949 
L 416.032848 282.13093 
L 417.246681 304.614942 
L 418.440777 333.788249 
L 419.615766 307.649586 
L 420.77225 300.749156 
L 421.910804 272.80921 
L 423.031975 285.828593 
L 424.136285 273.898418 
L 425.224234 267.954288 
L 426.296301 257.54932 
L 427.352941 300.458599 
L 428.394594 300.95515 
L 429.421677 337.335224 
L 430.434593 262.175093 
L 431.433727 274.749573 
L 432.41945 280.157662 
L 433.392117 268.044457 
L 434.352068 261.089605 
L 435.299633 289.676273 
L 436.235126 302.661648 
L 437.158852 279.877472 
L 438.071103 267.580476 
L 438.97216 269.08841 
L 439.862296 340.755206 
L 440.74177 352.799868 
L 441.610837 265.75633 
L 442.469738 267.82775 
L 443.31871 322.681656 
L 444.157979 256.16229 
L 444.987765 294.637514 
L 445.808279 258.322671 
L 446.619726 316.535644 
L 447.422305 353.89357 
L 448.216208 265.197723 
L 449.778719 283.582783 
L 450.547681 334.660623 
L 451.308675 270.328133 
L 452.061864 271.184931 
L 452.807406 289.114914 
L 453.545455 273.448881 
L 454.27616 306.611212 
L 454.999665 317.36279 
L 455.716113 269.592146 
L 456.425637 311.779941 
L 457.128372 298.290143 
L 457.824446 276.287281 
L 458.513984 260.187949 
L 459.197108 256.363778 
L 459.873935 291.755268 
L 460.544581 337.668725 
L 461.209158 278.314572 
L 461.867775 285.366867 
L 462.520537 339.366822 
L 463.167548 285.381239 
L 463.808908 360.104088 
L 464.444715 301.60571 
L 465.075064 304.734472 
L 465.700049 311.503028 
L 466.319759 284.273991 
L 466.934283 317.273506 
L 467.543708 263.63935 
L 468.148117 356.104549 
L 468.747592 282.623933 
L 469.342212 273.927875 
L 469.932057 282.216151 
L 470.517201 317.10481 
L 471.09772 270.146513 
L 471.673686 269.25712 
L 472.81224 341.04426 
L 473.374965 331.930241 
L 473.93341 302.099013 
L 474.487641 303.385677 
L 475.03772 387.932546 
L 475.58371 290.746555 
L 476.12567 305.013458 
L 476.66366 280.374271 
L 477.197736 301.404765 
L 477.727957 289.10591 
L 478.254377 305.317309 
L 478.77705 300.854825 
L 479.296029 321.429917 
L 479.811366 314.13395 
L 480.323112 286.916779 
L 480.831317 272.075953 
L 481.336028 312.837502 
L 481.837295 281.949865 
L 482.335163 259.891535 
L 482.829678 307.212904 
L 483.320886 287.519134 
L 483.808829 363.224109 
L 484.293552 342.238955 
L 484.775096 283.577856 
L 485.253504 331.953429 
L 485.728814 285.162839 
L 486.201068 302.650527 
L 486.670305 292.760367 
L 487.136562 303.476503 
L 487.599877 316.97798 
L 488.060288 281.179427 
L 488.51783 338.345569 
L 488.972539 314.799601 
L 489.424449 267.409581 
L 489.873596 299.8654 
L 490.320012 376.380798 
L 490.763731 300.565093 
L 491.204785 288.370475 
L 491.643206 323.078561 
L 492.079025 307.219718 
L 492.512272 282.711188 
L 492.942979 278.287279 
L 493.371174 281.703592 
L 493.796887 342.12171 
L 494.220146 322.789892 
L 494.640979 269.870204 
L 495.059415 270.978754 
L 495.47548 289.868993 
L 495.8892 337.061782 
L 497.116559 275.635631 
L 497.521162 334.415391 
L 497.923548 286.410938 
L 498.323741 316.680988 
L 498.721765 291.941107 
L 499.117643 279.046297 
L 499.511399 327.114711 
L 499.903055 316.922385 
L 500.292632 335.580431 
L 500.680154 296.21316 
L 501.065642 339.013097 
L 501.449117 303.903967 
L 501.8306 353.906175 
L 502.210111 280.614243 
L 502.587671 319.379552 
L 502.963299 299.592998 
L 503.337016 326.754044 
L 503.708841 325.843523 
L 504.078793 311.316846 
L 504.44689 349.820415 
L 504.813152 270.825013 
L 505.177595 348.312148 
L 505.901101 306.502935 
L 506.617548 360.95661 
L 507.327073 288.2609 
L 507.679281 297.41597 
L 508.029808 332.728345 
L 508.37867 290.296055 
L 508.725882 297.830094 
L 509.07146 347.061375 
L 509.41542 265.534418 
L 510.098543 345.831304 
L 510.437737 348.040338 
L 510.775371 322.982721 
L 511.111459 283.1375 
L 511.446017 276.701006 
L 511.779057 326.912679 
L 512.110594 315.519276 
L 512.44064 288.76093 
L 512.76921 322.741289 
L 513.096317 315.644426 
L 513.421972 305.89589 
L 513.74619 346.912289 
L 514.068983 299.449277 
L 514.390363 331.940527 
L 514.710343 285.237934 
L 515.028935 323.443782 
L 515.34615 279.575864 
L 515.662001 369.757989 
L 516.289657 314.65522 
L 516.601484 323.334212 
L 516.911993 324.331486 
L 517.221195 297.853744 
L 517.5291 301.362754 
L 517.835719 276.266614 
L 518.141064 304.323667 
L 518.445144 320.281866 
L 518.74797 351.61801 
L 519.049552 299.48079 
L 519.349902 317.718425 
L 519.649027 360.790952 
L 519.946939 298.719865 
L 520.243648 337.109782 
L 520.539162 329.226427 
L 520.833492 369.342829 
L 521.126647 320.709215 
L 521.418637 315.645154 
L 521.70947 296.702342 
L 521.999156 347.598938 
L 522.287703 309.354931 
L 522.575121 329.987698 
L 522.861419 333.531952 
L 523.146605 289.398818 
L 523.430687 275.244653 
L 523.713675 345.071271 
L 523.995577 297.137538 
L 524.2764 290.137 
L 524.556154 305.83761 
L 524.834846 329.557497 
L 525.112484 299.438987 
L 525.664631 350.718403 
L 525.939156 291.563805 
L 526.212658 305.999391 
L 526.485146 294.776413 
L 526.756626 321.071408 
L 527.027106 305.610436 
L 527.565095 324.518263 
L 527.832619 284.319312 
L 528.099172 316.136626 
L 528.364761 305.039442 
L 528.629393 303.324577 
L 528.893074 343.649132 
L 529.155813 327.794467 
L 529.417614 344.371695 
L 529.678486 307.676786 
L 529.938434 313.637681 
L 530.197465 308.057134 
L 530.455585 299.82039 
L 530.712802 349.678636 
L 530.969121 336.509443 
L 531.224548 306.442311 
L 531.47909 308.210869 
L 531.732752 351.521232 
L 531.985542 374.727426 
L 532.488525 274.348779 
L 532.73873 389.706826 
L 532.988086 296.218795 
L 533.236598 329.850509 
L 533.484272 308.708375 
L 533.731114 337.466061 
L 533.977128 298.08996 
L 534.466698 381.802273 
L 534.953026 282.979471 
L 535.194988 301.620717 
L 535.436155 296.464371 
L 535.676532 337.899328 
L 535.916125 275.503286 
L 536.154939 300.503395 
L 536.392979 303.987998 
L 536.63025 317.456011 
L 536.866757 306.837454 
L 537.102504 316.871941 
L 537.337497 367.321756 
L 537.57174 301.900493 
L 537.805239 352.009475 
L 538.037998 350.382045 
L 538.270021 336.398619 
L 538.501313 351.268349 
L 538.731879 291.261526 
L 538.961724 352.974711 
L 539.190851 353.741049 
L 539.419266 305.148884 
L 539.873974 290.515834 
L 540.100277 316.895753 
L 540.325885 309.779378 
L 540.550802 307.124621 
L 540.775032 315.159352 
L 540.998579 331.394706 
L 541.221448 299.429222 
L 541.443643 288.666336 
L 541.665167 314.365217 
L 541.886025 300.948848 
L 542.106221 298.032145 
L 542.325758 321.488044 
L 542.544641 295.131179 
L 542.762874 308.70283 
L 542.98046 333.329225 
L 543.197404 407.617101 
L 543.413708 306.937068 
L 543.629377 339.562918 
L 543.844414 350.86603 
L 544.058824 351.037817 
L 544.485774 296.536383 
L 544.698322 331.40181 
L 544.910257 311.139835 
L 545.121581 376.377055 
L 545.332299 310.841707 
L 545.542415 332.92527 
L 545.751931 402.062837 
L 545.96085 317.099703 
L 546.169177 308.346087 
L 546.376915 307.71915 
L 546.584067 308.561317 
L 546.790636 318.11274 
L 546.996626 337.553886 
L 547.202039 426.056729 
L 547.406879 310.164958 
L 547.61115 311.976572 
L 547.814854 341.129228 
L 548.017995 300.395282 
L 548.220575 308.727297 
L 548.422598 285.945854 
L 548.624066 308.368317 
L 548.824984 290.44304 
L 549.025353 304.907196 
L 549.225177 277.217161 
L 549.424458 406.538853 
L 549.623201 314.109022 
L 550.019079 285.847511 
L 550.216221 277.816281 
L 550.412835 288.679236 
L 550.608923 314.386317 
L 550.999537 279.281113 
L 551.194068 291.703724 
L 551.388085 289.472287 
L 551.774587 265.065198 
L 551.967078 259.77741 
L 552.350552 230.435474 
L 552.541542 184.066559 
L 552.732035 165.410147 
L 553.111546 245.034282 
L 553.300569 253.885273 
L 553.677161 282.466238 
L 554.051831 269.234396 
L 554.238452 296.994592 
L 554.4246 305.36531 
L 554.610277 304.877292 
L 554.795486 323.231799 
L 554.980229 357.049139 
L 555.348326 300.629653 
L 555.531685 295.10165 
L 555.714587 284.63982 
L 555.897035 306.865512 
L 556.079031 295.900589 
L 556.441675 364.419518 
L 556.622327 303.550247 
L 556.802537 331.713553 
L 556.982305 296.093016 
L 557.161634 320.503024 
L 557.518984 296.085955 
L 557.874603 339.005192 
L 558.051769 317.625285 
L 558.228509 316.256769 
L 558.404824 322.030568 
L 558.580717 334.911306 
L 558.756189 325.732696 
L 558.931244 324.876055 
L 559.105882 297.022738 
L 559.280105 338.339518 
L 559.453917 350.789223 
L 559.80031 337.593729 
L 559.972896 321.272268 
L 560.145077 345.475748 
L 560.488233 317.260117 
L 560.659212 326.540648 
L 560.829793 287.3978 
L 560.999979 335.378845 
L 561.169772 283.799321 
L 561.508183 342.566827 
L 561.676806 305.671123 
L 562.012895 397.497412 
L 562.180364 301.432402 
L 562.347453 322.558776 
L 562.514161 297.32786 
L 562.680493 368.081244 
L 562.846448 311.748008 
L 563.012029 368.659184 
L 563.177238 307.611127 
L 563.506545 353.972296 
L 563.670646 342.74106 
L 563.834381 355.090363 
L 563.997752 381.827968 
L 564.160761 318.123571 
L 564.323408 327.840339 
L 564.485696 288.002399 
L 564.647626 350.509982 
L 564.8092 318.174928 
L 564.970419 337.68534 
L 565.131285 338.983307 
L 565.291799 316.790581 
L 565.451963 312.056756 
L 565.771247 347.1205 
L 565.93037 325.11063 
L 566.089149 330.983006 
L 566.247586 398.696935 
L 566.405681 312.73623 
L 566.563437 366.59102 
L 566.720854 375.247799 
L 566.877935 318.804869 
L 567.034681 371.882899 
L 567.191092 317.78725 
L 567.347172 312.211564 
L 567.50292 319.600882 
L 567.658338 378.285383 
L 567.813429 394.211427 
L 567.968192 323.7225 
L 568.12263 349.391998 
L 568.276744 349.146683 
L 568.430535 302.362486 
L 568.584005 333.259674 
L 568.737155 334.166513 
L 568.889986 313.597853 
L 569.042499 312.262454 
L 569.194697 346.060844 
L 569.346579 316.014851 
L 569.498149 338.593426 
L 569.649406 333.555413 
L 569.800352 320.027849 
L 569.950988 324.875941 
L 570.101316 305.877682 
L 570.251337 357.145562 
L 570.401052 315.791666 
L 570.550463 370.432208 
L 570.69957 310.442536 
L 570.848375 312.112546 
L 571.145083 336.063718 
L 571.292989 397.247219 
L 571.440598 315.252651 
L 571.734928 339.108982 
L 572.028083 317.31425 
L 572.174223 306.587263 
L 572.320073 339.747911 
L 572.465633 332.243418 
L 572.610906 345.179705 
L 572.755891 318.668674 
L 572.900591 367.616492 
L 573.045007 294.241381 
L 573.332989 323.725202 
L 573.476557 310.916548 
L 573.619845 327.478022 
L 573.762855 325.138667 
L 573.905586 394.135277 
L 574.04804 297.161933 
L 574.190219 365.379094 
L 574.615111 303.084895 
L 574.756197 360.762995 
L 574.897012 343.657533 
L 575.037558 307.880557 
L 575.177836 311.234449 
L 575.317846 306.567737 
L 575.457589 348.412646 
L 575.597068 306.715297 
L 575.736281 335.121328 
L 575.875232 312.926936 
L 576.01392 328.867977 
L 576.152346 285.887967 
L 576.290512 353.143901 
L 576.566067 306.741466 
L 576.703458 327.58109 
L 576.840592 303.872314 
L 576.97747 300.522704 
L 577.114094 311.248066 
L 577.386581 297.635771 
L 577.522447 303.302782 
L 577.658061 314.752093 
L 577.793426 286.534264 
L 577.928541 337.814031 
L 578.198029 293.182013 
L 578.332402 302.91758 
L 578.466531 302.322649 
L 578.600415 293.67349 
L 578.734055 303.635787 
L 578.867452 304.396885 
L 579.000608 294.30809 
L 579.133522 298.854075 
L 579.266197 315.149928 
L 579.398632 272.038091 
L 579.530828 283.733346 
L 579.79451 280.119101 
L 580.188266 255.308129 
L 580.31905 257.697969 
L 580.579921 243.905318 
L 580.71001 235.547208 
L 580.969499 195.324636 
L 581.0989 137.222388 
L 581.614238 235.1594 
L 581.870556 261.158069 
L 581.998381 253.216169 
L 582.125984 266.259356 
L 582.253365 267.127958 
L 582.380525 273.045834 
L 582.507466 271.941455 
L 582.634188 291.093635 
L 582.760691 278.641564 
L 583.013047 295.683706 
L 583.1389 294.373267 
L 583.264537 310.006212 
L 583.389961 285.74129 
L 583.889522 329.52812 
L 584.013883 355.101171 
L 584.138034 287.464172 
L 584.261975 289.934673 
L 584.385708 332.343741 
L 584.509232 311.2207 
L 584.632549 357.905082 
L 584.75566 297.82344 
L 584.878564 297.177285 
L 585.001263 302.301468 
L 585.368134 337.723107 
L 585.490018 331.485531 
L 585.611701 371.341169 
L 585.733182 303.46728 
L 585.854462 311.974337 
L 585.975542 303.146916 
L 586.217106 336.090127 
L 586.33759 301.970617 
L 586.457877 374.895529 
L 586.577968 308.72822 
L 586.697862 360.84877 
L 586.817561 350.798863 
L 587.056375 324.142757 
L 587.175491 344.848191 
L 587.294415 313.815672 
L 587.413146 401.91221 
L 587.650034 341.083149 
L 587.768192 301.89582 
L 587.886161 319.603927 
L 588.12153 302.943934 
L 588.356148 316.480258 
L 588.473176 358.060297 
L 588.590018 316.285898 
L 588.823146 325.962857 
L 589.055536 411.9797 
L 589.287194 315.703169 
L 589.518122 370.96023 
L 589.633315 349.170402 
L 589.748327 351.200429 
L 589.863159 378.048139 
L 590.092287 301.496656 
L 590.206583 340.990364 
L 590.434643 322.151899 
L 590.548408 358.49227 
L 590.661997 351.008086 
L 590.77541 336.131668 
L 590.888649 353.288035 
L 591.001713 320.722559 
L 591.227321 355.899384 
L 591.339865 321.924993 
L 591.564438 338.764883 
L 591.676467 325.838346 
L 591.788326 377.417163 
L 592.011534 333.536955 
L 592.122884 334.19802 
L 592.234065 321.991734 
L 592.345078 361.722464 
L 592.455924 313.649278 
L 592.566603 335.583001 
L 592.677115 320.908781 
L 592.787461 378.928375 
L 592.897641 378.537061 
L 593.007656 362.679729 
L 593.117507 320.624375 
L 593.336717 333.847488 
L 593.446077 327.377585 
L 593.555274 347.596548 
L 593.66431 315.003955 
L 593.773183 317.303181 
L 593.881896 357.700228 
L 593.990448 340.33164 
L 594.098839 292.589075 
L 594.207071 359.383184 
L 594.315143 358.879617 
L 594.530812 304.429566 
L 594.63841 391.306261 
L 594.74585 319.615159 
L 594.853133 378.527359 
L 595.06723 325.843522 
L 595.280705 385.805383 
L 595.493561 342.643885 
L 595.599758 398.134909 
L 595.705801 364.38241 
L 595.811692 415.511424 
L 595.917431 391.605772 
L 596.023017 402.286053 
L 596.233735 334.172844 
L 596.338868 320.828573 
L 596.44385 377.436564 
L 596.548683 340.949967 
L 596.653366 341.430652 
L 596.7579 310.051209 
L 596.966523 358.009245 
L 597.070613 349.430848 
L 597.174555 351.101664 
L 597.278351 343.213562 
L 597.382 324.773328 
L 597.485503 371.406533 
L 597.58886 354.903396 
L 597.692072 410.222014 
L 597.795139 308.766267 
L 598.00084 357.86803 
L 598.103475 407.638164 
L 598.308315 331.080815 
L 598.410521 336.772389 
L 598.614508 323.144324 
L 598.81793 366.333181 
L 599.02079 313.424534 
L 599.12201 323.28547 
L 599.223091 406.685921 
L 599.424837 326.176548 
L 599.525502 363.316129 
L 599.726419 324.11245 
L 599.826672 325.203317 
L 599.926788 314.362028 
L 600.126612 335.178179 
L 600.226321 336.141489 
L 600.325894 333.424462 
L 600.425332 348.684628 
L 600.524636 332.355791 
L 600.722842 373.049736 
L 600.821745 353.780883 
L 600.920515 359.060816 
L 601.117656 395.256799 
L 601.216029 349.873335 
L 601.31427 389.353892 
L 601.41238 322.952211 
L 601.510359 326.032875 
L 601.608208 332.663833 
L 601.705926 354.177604 
L 601.803514 324.461617 
L 601.900973 324.521244 
L 601.998303 340.245857 
L 602.095504 339.586047 
L 602.192576 396.74712 
L 602.28952 348.689347 
L 602.386337 459.091093 
L 602.483026 321.432955 
L 602.579587 345.073759 
L 602.676022 342.488003 
L 602.772331 327.388509 
L 602.868513 354.426704 
L 602.96457 350.932419 
L 603.060501 336.385578 
L 603.156307 338.497691 
L 603.251988 338.634918 
L 603.347545 322.949956 
L 603.442977 330.326299 
L 603.538286 316.490436 
L 603.633471 319.034077 
L 603.728533 369.716545 
L 603.823472 340.899739 
L 604.012982 378.27786 
L 604.107554 322.551233 
L 604.296334 345.210724 
L 604.390542 330.314106 
L 604.484629 365.57333 
L 604.578596 314.259971 
L 604.672443 322.243094 
L 604.766171 378.882516 
L 604.859778 372.129223 
L 604.953267 393.793662 
L 605.046637 375.644891 
L 605.139888 397.874481 
L 605.326035 333.410059 
L 605.418933 408.674557 
L 605.604375 326.337375 
L 605.789351 349.511952 
L 605.973862 326.324947 
L 606.065943 327.591711 
L 606.249761 361.691388 
L 606.341498 336.311284 
L 606.43312 355.219944 
L 606.616023 329.305431 
L 606.707303 357.45775 
L 606.798471 429.390202 
L 606.980466 332.218949 
L 607.071295 359.744838 
L 607.162012 323.381684 
L 607.34311 360.106354 
L 607.433492 366.601709 
L 607.523763 331.774464 
L 607.613923 347.844209 
L 607.703972 325.254658 
L 607.793911 342.325408 
L 607.88374 326.786347 
L 607.97346 375.574561 
L 608.06307 325.43737 
L 608.15257 328.445583 
L 608.241962 357.448172 
L 608.331245 307.571366 
L 608.420419 407.6343 
L 608.598444 321.079161 
L 608.687295 355.955828 
L 608.776039 322.515036 
L 608.864675 323.317994 
L 608.953205 369.244434 
L 609.041628 364.451484 
L 609.129944 380.02882 
L 609.218155 309.138964 
L 609.306259 322.108098 
L 609.394259 388.396501 
L 609.569941 342.568168 
L 609.657625 341.548923 
L 609.745204 326.356277 
L 609.832679 356.322256 
L 609.92005 329.891642 
L 610.007317 352.813454 
L 610.094481 349.765245 
L 610.268498 330.807213 
L 610.442104 355.294655 
L 610.528753 327.526021 
L 610.701746 355.678174 
L 610.788089 357.095115 
L 610.874331 366.961904 
L 610.960473 396.580087 
L 611.046513 325.477498 
L 611.132452 394.151432 
L 611.389669 321.629955 
L 611.560647 353.505948 
L 611.645987 349.841589 
L 611.731229 358.954387 
L 611.816371 330.934117 
L 611.901415 341.636006 
L 611.98636 390.757333 
L 612.071207 343.667747 
L 612.155956 354.76911 
L 612.240608 337.962147 
L 612.409619 391.923709 
L 612.578242 334.424684 
L 612.746479 368.805556 
L 612.830453 376.200064 
L 612.914331 328.131232 
L 612.998113 336.774173 
L 613.0818 340.011821 
L 613.248888 377.398373 
L 613.33229 330.651227 
L 613.581928 372.350645 
L 613.747884 331.98765 
L 613.830721 333.419398 
L 613.996116 405.771153 
L 614.078674 400.99843 
L 614.161139 326.567308 
L 614.243512 337.663209 
L 614.325792 360.367631 
L 614.40798 343.728194 
L 614.490077 496.31331 
L 614.653995 331.926285 
L 614.817548 373.179954 
L 614.899188 370.482016 
L 615.143565 324.091708 
L 615.306032 377.143709 
L 615.387132 351.272291 
L 615.468141 367.76925 
L 615.549062 341.873458 
L 615.629893 378.75296 
L 615.710635 320.185815 
L 615.871854 353.261698 
L 615.952331 319.120193 
L 616.03272 336.1497 
L 616.113021 315.610929 
L 616.193235 367.331681 
L 616.27336 353.724218 
L 616.353399 358.698219 
L 616.43335 341.689315 
L 616.513214 426.486698 
L 616.592992 314.300867 
L 616.672683 314.424097 
L 616.831806 356.060521 
L 616.911238 358.820262 
L 617.069846 340.437459 
L 617.149021 413.732111 
L 617.386037 330.933248 
L 617.62229 382.259169 
L 617.700872 364.365296 
L 617.779371 321.970516 
L 617.936116 463.55136 
L 618.014364 319.599876 
L 618.092528 321.737923 
L 618.248607 375.850226 
L 618.482106 316.516044 
L 618.559774 344.946284 
L 618.63736 339.948155 
L 618.714864 339.073415 
L 618.792287 319.067193 
L 618.869628 360.914377 
L 619.101163 318.137905 
L 619.17818 329.378155 
L 619.255116 371.959781 
L 619.331971 326.342606 
L 619.408746 390.700481 
L 619.485441 363.469283 
L 619.562055 373.580115 
L 619.63859 367.393522 
L 619.715046 336.868018 
L 619.791421 365.190476 
L 619.867718 475.837639 
L 620.020073 323.030533 
L 620.096132 333.317308 
L 620.172113 359.650286 
L 620.248015 324.553828 
L 620.323839 350.442306 
L 620.475252 322.301577 
L 620.550841 342.544312 
L 620.626353 340.755582 
L 620.777144 377.223006 
L 620.852424 329.069735 
L 620.927626 336.30029 
L 621.002752 412.295199 
L 621.077801 347.136511 
L 621.152773 391.415612 
L 621.227669 323.177663 
L 621.302488 334.002891 
L 621.377231 336.223453 
L 621.451898 403.98517 
L 621.52649 334.732893 
L 621.601006 430.495317 
L 621.749811 335.952514 
L 621.8241 323.325715 
L 621.898315 336.591053 
L 621.972454 379.02102 
L 622.046519 352.811054 
L 622.120509 355.085723 
L 622.194425 387.305331 
L 622.342034 357.756087 
L 622.489346 337.239982 
L 622.562892 352.815419 
L 622.636364 322.703418 
L 622.636364 322.703418 
" style="fill:none;stroke:#1976d2;stroke-linecap:square;stroke-width:1.5;"/>
   </g>
   <g id="line2d_38">
    <path clip-path="url(#p4b7b4ec6a0)" d="M -1 268.992279 
L 233.55311 269.091472 
L 276.71737 269.320199 
L 303.72133 269.672196 
L 323.421363 270.138271 
L 338.938899 270.707058 
L 351.742583 271.365846 
L 365.131412 272.295701 
L 376.451506 273.320022 
L 386.257417 274.415178 
L 396.52087 275.793673 
L 405.524202 277.214101 
L 414.798613 278.892891 
L 424.136285 280.806549 
L 433.392117 282.920159 
L 443.31871 285.414277 
L 453.545455 288.209314 
L 465.075064 291.602043 
L 477.727957 295.573261 
L 491.643206 300.179616 
L 508.029808 305.844288 
L 528.364761 313.122167 
L 554.980229 322.89958 
L 594.530812 337.688365 
L 622.636364 348.280269 
L 622.636364 348.280269 
" style="fill:none;stroke:#d32f2f;stroke-linecap:square;stroke-width:1.5;"/>
   </g>
   <g id="patch_3">
    <path d="M 90 454.968 
L 90 61.344 
" style="fill:none;stroke:#000000;stroke-linecap:square;stroke-linejoin:miter;stroke-width:0.8;"/>
   </g>
   <g id="patch_4">
    <path d="M 648 454.968 
L 648 61.344 
" style="fill:none;stroke:#000000;stroke-linecap:square;stroke-linejoin:miter;stroke-width:0.8;"/>
   </g>
   <g id="patch_5">
    <path d="M 90 454.968 
L 648 454.968 
" style="fill:none;stroke:#000000;stroke-linecap:square;stroke-linejoin:miter;stroke-width:0.8;"/>
   </g>
   <g id="patch_6">
    <path d="M 90 61.344 
L 648 61.344 
" style="fill:none;stroke:#000000;stroke-linecap:square;stroke-linejoin:miter;stroke-width:0.8;"/>
   </g>
   <g id="legend_1">
    <g id="patch_7">
     <path d="M 565.944687 110.729 
L 638.2 110.729 
Q 641 110.729 641 107.929 
L 641 71.144 
Q 641 68.344 638.2 68.344 
L 565.944687 68.344 
Q 563.144688 68.344 563.144688 71.144 
L 563.144688 107.929 
Q 563.144688 110.729 565.944687 110.729 
z
" style="fill:#ffffff;opacity:0.8;stroke:#cccccc;stroke-linejoin:miter;"/>
    </g>
    <g id="line2d_39">
     <path d="M 568.744688 79.837125 
L 596.744688 79.837125 
" style="fill:none;stroke:#1976d2;stroke-linecap:square;stroke-width:1.5;"/>
    </g>
    <g id="line2d_40"/>
    <g id="text_11">
     <!-- true -->
     <g transform="translate(607.944688 84.737125)scale(0.14 -0.14)">
      <use xlink:href="#LucidaGrande-116"/>
      <use x="37.402344" xlink:href="#LucidaGrande-114"/>
      <use x="78.320312" xlink:href="#LucidaGrande-117"/>
      <use x="140.380859" xlink:href="#LucidaGrande-101"/>
     </g>
    </g>
    <g id="line2d_41">
     <path d="M 568.744688 97.529625 
L 596.744688 97.529625 
" style="fill:none;stroke:#d32f2f;stroke-linecap:square;stroke-width:1.5;"/>
    </g>
    <g id="line2d_42"/>
    <g id="text_12">
     <!-- fit -->
     <defs>
      <path d="M 21.09375 45.796875 
L 21.09375 0 
L 11.421875 0 
L 11.421875 45.796875 
L 3.90625 45.796875 
L 3.90625 53.03125 
L 11.421875 53.03125 
L 11.421875 59.375 
Q 11.421875 78.328125 28.71875 78.328125 
Q 33.546875 78.328125 39.703125 76.703125 
L 39.703125 69.09375 
Q 33.203125 71.09375 29.296875 71.09375 
Q 24.5625 71.09375 22.828125 68.8125 
Q 21.09375 66.546875 21.09375 60.40625 
L 21.09375 53.03125 
L 34.328125 53.03125 
L 34.328125 45.796875 
z
" id="LucidaGrande-102"/>
     </defs>
     <g transform="translate(607.944688 102.429625)scale(0.14 -0.14)">
      <use xlink:href="#LucidaGrande-102"/>
      <use x="36.767578" xlink:href="#LucidaGrande-105"/>
      <use x="65.673828" xlink:href="#LucidaGrande-116"/>
     </g>
    </g>
   </g>
  </g>
 </g>
 <defs>
  <clipPath id="p4b7b4ec6a0">
   <rect height="393.624" width="558" x="90" y="61.344"/>
  </clipPath>
 </defs>
</svg>
